<svg xmlns="http://www.w3.org/2000/svg" width="1920" height="1097.81" viewBox="0 0 1920 1097.81">
  <metadata><?xpacket begin="﻿" id="W5M0MpCehiHzreSzNTczkc9d"?>
<x:xmpmeta xmlns:x="adobe:ns:meta/" x:xmptk="Adobe XMP Core 5.6-c138 79.159824, 2016/09/14-01:09:01        ">
   <rdf:RDF xmlns:rdf="http://www.w3.org/1999/02/22-rdf-syntax-ns#">
      <rdf:Description rdf:about=""/>
   </rdf:RDF>
</x:xmpmeta>
                                                                                                    
                                                                                                    
                                                                                                    
                                                                                                    
                                                                                                    
                                                                                                    
                                                                                                    
                                                                                                    
                                                                                                    
                                                                                                    
                                                                                                    
                                                                                                    
                                                                                                    
                                                                                                    
                                                                                                    
                                                                                                    
                                                                                                    
                                                                                                    
                                                                                                    
                                                                                                    
                           
<?xpacket end="w"?></metadata>
<defs>
    <style>
      .cls-1 {
        fill: #fff;
        fill-rule: evenodd;
      }
    </style>
  </defs>
  <path id="Фигура_1" data-name="Фигура 1" class="cls-1" d="M1740.2,1097.82l-0.37-33.68h-34.48v-2.16a15.336,15.336,0,0,0-4.83-1.7v-2.15h-1.2v-0.68s1.89-.73,1.84-1.84a2.338,2.338,0,0,0-1.41-1.21v-1.5s0.15-1.55-4.83-1.75c0,0-15.33-24.24-49.19-27.73,0.15,0,.64-0.11.56-1.79,0,0,6.93-.1,6.73-2.38,0,0,1.29-2.68-8.91-3.28l-0.68-64.653c0.55-.14,1.39-0.3,1.56-0.038,0,0,1.18,1.358,1.14.131s0.08-.131.08-0.131,1.05-.263,1.05,1.27c0,0,.53,1.622.7,0.045a2.747,2.747,0,0,0-1.18-2.105,1.1,1.1,0,0,1-.35-1.225s1.23-2.363.92-2.757c0,0-.39-0.528-1.4,2.405a1.165,1.165,0,0,1-1.01-1.181s0-2.233-1.53-2.188l-0.13-1.623s0.22-1.312-.13-1.533l-0.04-2.629s2.05-1.094.08-4.378l-0.68-28.336-2.01-2.016-0.27-1.489-0.26,1.489-2.01,2.016-0.31,28.336c-1.97,3.284.09,4.378,0.09,4.378l-0.04,2.629a2.078,2.078,0,0,1-1.19,0,7.877,7.877,0,0,1-.91-2.362c0.08-.963-0.27-0.745-0.27-0.745-0.08-.658-0.47-0.616-0.47-0.616-0.8.395-.05,1.884-0.05,1.884a6.176,6.176,0,0,1,.7,2.233c0.31,0.966,2.05,1.139,2.05,1.139l-0.13,1.623c-1.53-.045-1.53,2.188-1.53,2.188a1.159,1.159,0,0,1-1,1.181c-1.01-2.933-1.4-2.405-1.4-2.405-0.31.394,0.92,2.757,0.92,2.757a1.1,1.1,0,0,1-.36,1.225,2.783,2.783,0,0,0-1.18,2.105c0.18,1.577.7-.045,0.7-0.045,0-1.533,1.05-1.27,1.05-1.27s0.14-1.1.09,0.131,1.14-.131,1.14-0.131c0.17-.26,1.01-0.1,1.56.038l-0.68,64.653c-10.21.6-8.92,3.28-8.92,3.28-0.19,2.28,6.74,2.38,6.74,2.38-0.08,1.68.4,1.79,0.55,1.79-33.85,3.49-49.18,27.73-49.18,27.73-4.98.2-4.84,1.75-4.84,1.75v1.5a2.341,2.341,0,0,0-1.4,1.21c-0.05,1.11,1.84,1.84,1.84,1.84v0.68h-1.2v2.15a15.336,15.336,0,0,0-4.83,1.7v2.16h-32.69v32.71h-8.83v0.97h-6.57v-15.45h-7.23v9.21h-7.27V1079.3s1.37-2.98,2.73-2.71v-0.82l-3.12-1.89v-7.6s1-2,1.64-1.82l-2.29-1.08v-1.03l-0.75-.61v-38.51s2.61-.72,2.07-1.54c0,0,2.61-1.47,2.58-2.18,0,0-3.94-1.15-4.4-1.72v-6.7l-2.04-.32v-9.02l-0.36-.25v-0.39l-0.89-.57v-7.7s-0.07-1.039.57-.965a0.7,0.7,0,0,1,.47-0.326l-2.4-1.824a0.638,0.638,0,0,0-.25-0.824V963.351s0.82-3.76,1.54-3.795l-1.79-.789s0.18-1.609.71-1.574l-1.1-.5v-1.112a1.173,1.173,0,0,0,.86-1.107s1.57-.5,1.46-1.289l0.36,0.036,0.14-.574s0.97-.282.9-0.787h0.78v-0.393a8.108,8.108,0,0,0-1.72-1.047c2.05,0.54,3.85,1.131,3.89,1.139a0.211,0.211,0,0,0,.08.012,0.243,0.243,0,0,0,.24-0.177,0.254,0.254,0,0,0-.16-0.325,65.976,65.976,0,0,0-6.83-1.825c-0.22-1.9-1.81-11.688-11.69-15.493v-1.468l-0.79-1.18a2.288,2.288,0,0,0-.39-3.329v-0.682s-0.22-.784.39-0.607a0.727,0.727,0,0,0-.61-0.784v-0.613h0.25s-0.21-1.465.65-1.465a0.8,0.8,0,0,0-.47-0.643s0.32-1.112-.46-1.362l-0.22-.212a1.4,1.4,0,0,0,1-1.18,0.778,0.778,0,0,0,.5-1.006h0.57l-2-.893s0.36-.825-1.64-1.039c0,0-1.15-1.754.5-2.147a4.6,4.6,0,0,0,2.97-4.473,5.274,5.274,0,0,0-2.15-3.545,10.283,10.283,0,0,1-5.11-9.414l-0.07-2.286a1.832,1.832,0,0,0-.25-2.9v-1.36l0.42,0.286v-0.714l-0.53-.752v-6.121h2.57v-0.646h-2.79v-0.786h0.61v-0.608h-0.64v-1h-0.64v0.964h-0.72v0.611h0.72v0.714h-2.87v0.753h2.87v5.76l-0.36-.393v0.754l0.53,0.607v2.038a1.74,1.74,0,0,0,.04,2.8l-0.07,2.252s-0.29,6.98-3.79,8.876c0,0-3.61,1.789-3.36,5.475a4.006,4.006,0,0,0,3.25,3.368s1.4,0.892.61,1.859c0,0-1.68.284-1.86,1.468,0,0-2.11.642-1.22,1.715a1.485,1.485,0,0,1,.4.862l0.96,0.462v0.36a1.837,1.837,0,0,0-.36.428s-0.89-.321-0.82.464l0.47,0.611-0.22.18a3.507,3.507,0,0,1,.4,1.5l0.28,0.071v0.537l-0.18.252,0.22,0.214-0.5.322,0.46,0.465-0.18.249,0.25,0.253v2.469a2.543,2.543,0,0,0-.35,2.9,4.3,4.3,0,0,1-.66,1.273,0.528,0.528,0,0,1-.09.088c-0.4.285-3.4,1.9-4.86,4.511,0,0-1.08-1.577.21-1.862l0.07-.323a4.037,4.037,0,0,0,2.86-4.152,3.432,3.432,0,0,0-2.4-3.04s-3.93-1.04-4.4-8.053l-0.06-1.791s1.39-1.682-.15-2.65v-1.752l0.5,0.393v-0.716l-0.53-.644v-5.475h2.43V908.16h-2.43v-0.572h0.49V906.98h-0.49v-0.929h-0.61v0.82h-0.72v0.61h0.61v0.571h-2.54v0.573h2.5v5.228l-0.53-.5v0.714l0.66,0.664v2.306s-1.77.716-.13,2.581c0,0,.72,7.8-3.68,9.805,0,0-3.11,1.5-2.54,4.724,0,0,.9,2.684,2.97,2.828a0.52,0.52,0,0,1,.54.57s0.96,0.289.28,1.218c0,0-1.93.359-1.89,1.252h-0.61l0.07,0.252s-1.25.392-.68,1.146l0.43,0.75,0.82,0.5v0.468l-1.43-.143s-7.47-13.774-21.32-20.147v-1.983s-1.03-1.032-.51-1.635c0,0,.94-2.843-0.69-3.62v-0.775l-0.26-.34v-5.944s0.86-2.584-.35-3.445v-1.034l1.73-1.464s-0.86-.431.17-0.775l-1.21-1.464-0.94-.259a5.1,5.1,0,0,0-3.19-2.068s-2.15-2.581-.43-3.1c0,0,3.7-1.294,3.36-5a5.015,5.015,0,0,0-3.36-4.132s-5.16-3.1-5.25-14.47c0,0,3.27-2.672-.08-4.217v-2.155l0.89-1.016v-0.6l-0.89.5v-5.857h2.92V857.3H1432v-0.859h0.6v-0.777H1432v-1.12h-0.58v1.12h-0.61v0.777h0.61V857.3h-3.02v0.688h2.93v5.857l-0.69.948v0.6l0.69-.428v2.155c-3.36,1.545-.09,4.217-0.09,4.217-0.08,11.369-5.25,14.47-5.25,14.47a5.015,5.015,0,0,0-3.35,4.132c-0.35,3.705,3.35,5,3.35,5,1.73,0.516-.43,3.1-0.43,3.1a5.064,5.064,0,0,0-3.18,2.068l-0.95.259-1.2,1.464c1.03,0.344.17,0.775,0.17,0.775l1.72,1.464V905.1c-1.2.861-.34,3.445-0.34,3.445v5.944l-0.26.34V915.6c-1.63.777-.69,3.62-0.69,3.62,0.52,0.6-.51,1.635-0.51,1.635v1.983c-13.86,6.373-21.32,20.147-21.32,20.147l-1.44.143v-0.468l0.83-.5,0.43-.75c0.57-.754-0.68-1.146-0.68-1.146l0.07-.252h-0.61c0.04-.893-1.89-1.252-1.89-1.252-0.68-.929.28-1.218,0.28-1.218a0.515,0.515,0,0,1,.54-0.57c2.07-.144,2.97-2.828,2.97-2.828,0.57-3.222-2.54-4.724-2.54-4.724-4.4-2.007-3.69-9.805-3.69-9.805,1.65-1.865-.12-2.581-0.12-2.581V914.73l0.66-.664v-0.714l-0.54.5v-5.228h2.51v-0.573h-2.54v-0.571h0.61v-0.61h-0.72v-0.82h-0.61v0.929h-0.5v0.608h0.5v0.572h-2.43v0.682h2.43v5.475l-0.53.644v0.716l0.5-.393v1.752c-1.54.968-.15,2.65-0.15,2.65l-0.07,1.791c-0.46,7.013-4.4,8.053-4.4,8.053a3.432,3.432,0,0,0-2.39,3.04,4.037,4.037,0,0,0,2.86,4.152l0.07,0.323c1.29,0.285.22,1.862,0.22,1.862-1.47-2.613-4.47-4.226-4.87-4.511a0.528,0.528,0,0,1-.09-0.088,4.3,4.3,0,0,1-.66-1.273,2.555,2.555,0,0,0-.36-2.9v-2.469l0.26-.253-0.18-.249,0.46-.465-0.5-.322,0.22-.214-0.18-.252v-0.537l0.28-.071a3.507,3.507,0,0,1,.4-1.5l-0.22-.18,0.47-.611c0.07-.785-0.83-0.464-0.83-0.464a1.981,1.981,0,0,0-.35-0.428v-0.36l0.96-.462a1.488,1.488,0,0,1,.39-0.862c0.9-1.073-1.21-1.715-1.21-1.715-0.18-1.184-1.86-1.468-1.86-1.468-0.79-.967.61-1.859,0.61-1.859a4.006,4.006,0,0,0,3.25-3.368c0.25-3.686-3.36-5.475-3.36-5.475-3.5-1.9-3.79-8.876-3.79-8.876l-0.07-2.252a1.738,1.738,0,0,0,.03-2.8v-2.038l0.54-.607v-0.754l-0.36.393v-5.76h2.86v-0.753h-2.86v-0.714h0.72v-0.611h-0.72v-0.964h-0.64v1h-0.65v0.608h0.61v0.786h-2.79v0.646h2.58v6.121l-0.54.752v0.714l0.43-.286v1.36a1.832,1.832,0,0,0-.25,2.9l-0.07,2.286a10.283,10.283,0,0,1-5.11,9.414,5.274,5.274,0,0,0-2.15,3.545,4.6,4.6,0,0,0,2.97,4.473c1.64,0.393.5,2.147,0.5,2.147-2,.214-1.64,1.039-1.64,1.039l-2.01.893h0.58a0.776,0.776,0,0,0,.49,1.006,1.42,1.42,0,0,0,1.01,1.18l-0.22.212c-0.79.25-.46,1.362-0.46,1.362a0.8,0.8,0,0,0-.47.643c0.86,0,.65,1.465.65,1.465h0.25V925.7a0.727,0.727,0,0,0-.61.784c0.61-.177.39,0.607,0.39,0.607v0.682a2.288,2.288,0,0,0-.39,3.329l-0.79,1.18v1.468c-10.97,4.223-11.73,15.821-11.73,15.821a9.64,9.64,0,0,0-4.46,1.895v0.393h0.78c-0.07.5,0.9,0.787,0.9,0.787l0.14,0.574,0.36-.036c-0.11.787,1.46,1.289,1.46,1.289a1.163,1.163,0,0,0,.86,1.107v1.112l-1.11.5c0.54-.035.72,1.574,0.72,1.574l-1.79.789c0.72,0.035,1.54,3.795,1.54,3.795V988.9a0.647,0.647,0,0,0-.26.824l-2.39,1.824a0.7,0.7,0,0,1,.47.326c0.64-.074.57,0.965,0.57,0.965v7.7l-0.9.57v0.39l-0.36.25v9.02l-2.03.32v6.7c-0.47.57-4.4,1.72-4.4,1.72-0.03.71,2.57,2.18,2.57,2.18-0.53.82,2.08,1.54,2.08,1.54v38.51l-0.75.61v1.03l-2.29,1.08c0.64-.18,1.64,1.82,1.64,1.82v7.6l-3.12,1.89v0.82c1.36-.27,2.73,2.71,2.73,2.71v12.28h-3.82v6.24h-3.94v-12.16h-5.92v9.21h-5.92v-11.18c0-12.5-7.22-16.45-7.22-16.45-7.89,2.64-7.23,17.76-7.23,17.76h-15.91l-2.98-235.2c0.76-.539,1.09-2.808,1.09-2.808,1.72-.648,1.94-4,1.94-4,1.73-.326,1.4.865,1.4,0.865a2.421,2.421,0,0,0-1.4,2.376l-0.22,1.838c-0.11,1.622,1.62.325,1.62,0.325-0.64-.646-0.21-2.6-0.21-2.6,0.1-.646,2.05-0.863,2.05-0.863,0.21,3.565,2.48,0,2.48,0a5.461,5.461,0,0,1,1.62.863c-0.21,3.136,1.73,2.7,1.73,2.7l3.45,1.946-3.45-2.81a1.733,1.733,0,0,1-.54-2.053,2.867,2.867,0,0,0,3.67-1.514c0-2.269-2.92-1.621-2.92-1.621a2.754,2.754,0,0,0-1.85.766c-0.79-.838-1.49-1.738-1.49-1.738,0-1.732-.22-4.432-0.22-4.432-0.76-.432-1.19,3.351-1.19,3.351-5.72-6.592-2.69-9.4-2.69-9.4,2.37-4-1.73-8.537-1.73-8.537-2.05-5.943-3.57-6.486-3.57-6.486l0.22-30.59-3.67-4.321-2.27,1.512c0.76,1.406-.54,4.432-0.54,4.432l-10.78,298h-5.7v-15.12h-5.26v26.31h-8.54s1.64-14.8,0-13.16-7.23,0-7.23,0l-4.1,4.11-2.06-7.06a1.162,1.162,0,0,1,.64-0.65,0.622,0.622,0,0,0-.53-0.73s0.13-.19.31-0.41h2.21a0.4,0.4,0,0,0,.4-0.4,0.41,0.41,0,0,0-.4-0.41h-0.94a0.826,0.826,0,0,0,.69-0.85s0.15-.59-2.35-0.7v-6.39s2.27-.09,1.45-2.01a0.923,0.923,0,0,0,.11-0.17h1.04a0.405,0.405,0,0,0,0-.81h-1.11a2.566,2.566,0,0,0-1.79-.51l-1.92-21.32h1.11a2.963,2.963,0,0,1,.85-1.02l-2.54-1.96s0.21-.81-1.4-1.05l-0.55-3.52s0.81-1.11,1.22-1.03l-0.32-3.18s2.39,0.15,2.59-1.08c0,0-1.08-2.65-3.49-2.53v-0.47l0.42-.42v-1.91s1.74-.41,1.91-1.02l-1.66-1.52-0.73-12.6s1.14-.7,1.14-2.94a1.219,1.219,0,0,1,.55-0.97,0.86,0.86,0,0,0-.64-0.81l1.45-3.62s1.2-.82-0.23-0.82c0,0,1.84-1.45,1.9-2.33v-1.283h0.46v-0.525h-2.77v-1.635h0.36v-0.525h-0.47V994.7h-0.59v-3.064H1244V991h-0.46v-0.669l1.95-1.9V987.67h0.26v-0.465h-1.02a3.35,3.35,0,0,0-1.95-3.734v-1.488l0.64-.614h-0.58v-0.727l1.13-1.751h0.82v-0.73h-1.25l-3.44-6.038h-4.78a11.3,11.3,0,0,1-2.27,1.081l-4.43-4.494-2.01.817-2.05,2.157h-1.45l-0.7.47v0.553a9.9,9.9,0,0,1-3.38-.439V971.6h0.23v-0.645l-1.63-.494a2.258,2.258,0,0,0-1.22-1.546v-3.006h0.35v-0.962l-1.28-1.282-0.38-8.225,1.28-1.022-1.22-.056-0.03-.7s0.99-.641-0.06-0.875l-0.03-.961,0.32-.089V950.1s0.61-.729-0.23-0.873l-0.06-.236,1.13-.934V947.39h0.53v-0.818h0.35v-0.409l-2.31-.818-0.61-9.97,0.97-1.7V932.6h-0.41v-0.583a3.252,3.252,0,0,0,.84-2.1l-0.49.085-0.03-.553,0.64-.115v-3.15l0.47-.525v-1.226h-0.27l0.03-.32,1.23-1.02v-0.5l0.37-.117v-0.35h-0.23v-0.493l0.76-.44-2.01-.817v-0.7h-0.38a0.457,0.457,0,0,1,.29-0.7s-2.45-.727-0.49-0.991l0.14-1.224-1.45.262s-0.11-7.87-4.47-12.052a0.5,0.5,0,0,0,.07-0.605,0.5,0.5,0,0,0-.69-0.168,1.688,1.688,0,0,0-.15.105c-0.14-.105-0.28-0.209-0.42-0.308l-4.83.756-10.26-17.52,0.25-.252v-0.552l0.33-.328v-2.645l0.38-1.207v-1.259l0.4-.856h0.55l-1.45-3.626h-0.96l-0.15-.5h-0.95l-0.36-.706-1.01.3-5.58-8.912s-0.4-1.107.1-1.056a1.2,1.2,0,0,0,.36-1.662l0.3-.405v-1.407a2.616,2.616,0,0,0-1.31-.706V860.8a3.99,3.99,0,0,0-1.71-1.411v-0.605s1.4-1.562-.3-2.062c0,0,2.26-3.525,3.27-2.517l0.4-1.309a2.638,2.638,0,0,1-1.91-.051s-1.66-1.764,1-2.116c0,0,.36-1.66-0.65-2.415,0,0,1.51-.052.8-1.663,0,0-.05,1.11-0.9.907a1.741,1.741,0,0,0-1.71-2.317l0.05-2.316,0.4-.9-0.2-1.06-0.86.405v0.708a4.5,4.5,0,0,0-.8-0.152l0.3-.606-0.5-.757-0.7.708,0.19,0.451a3.789,3.789,0,0,0-1.05.3l0.15-.754-0.75-.554-0.1.853,0.19,0.455-0.55.3-0.05-.6-0.75-.2,0.1,0.653,0.4,0.553v1.359a0.706,0.706,0,0,0,.46.455l-0.26.7s-2.71.755-.3,3.326c0,0,.35,1.711-0.55,1.912a0.991,0.991,0,0,1-1.01-.154s-0.7,2.368.45,2.872v0.554h0.71s3.47,2.062,3.57,2.971a1.274,1.274,0,0,0,.1,2.062v0.605a5.285,5.285,0,0,0-1.26,1.612v0.856a2.271,2.271,0,0,0-1.06,1.107v1.207l0.41,0.353a1.432,1.432,0,0,0,.75,1.51v1.109l-3.82,9.717-1.26-.3-1.15,2.263-1.01-.605-0.15.754-0.45-.149-0.61,3.676,0.66,0.353s0,2.112.9,2.465c0,0-.3,3.222,1.31,3.724l-8.9,19.79-3.62.047V904.15l-0.61-.45,1.31-2.469h-1.06V899.47l0.51-.654h-0.46v-0.454a5.006,5.006,0,0,0,1.46-2.518l0.66-.757h-3.02l0.53-.8h1.01a0.4,0.4,0,1,0,0-.8h-1.28a2.163,2.163,0,0,0-1.67-.656l0.55-.453-0.25-3.069a2.479,2.479,0,0,0,.76-1.966h-1.01l-0.6-15.106-0.71-.2a3.663,3.663,0,0,0,.91-2.265,0.625,0.625,0,0,0-.4-0.353,6.217,6.217,0,0,0,1.11-2.012h0.48a0.4,0.4,0,0,0,0-.806h-0.81a5.084,5.084,0,0,0-1.14-.252l-0.4-7.653h-0.45v-0.656h0.4l-0.05-2.971h-0.7v-0.5a0.809,0.809,0,0,1,.55-0.2s-1.01-1.912,1.36-4.429h-0.5l1.96-4.582v-2.567l1.05-1.709v-0.456h-0.3l0.45-.605V838.3h1.1a0.4,0.4,0,0,0,0-.8h-1.32a5.191,5.191,0,0,0-1.64-.4l-0.05-1.106s1.36-1.259-.55-1.662l0.05-.655,0.8-1.008-1.71-3.324s0.31,0.05.31-1.257l0.65-.8,0.15-.756-0.6-.857,2.01-3.375s-1.91.2-2.06-1.107l-0.61-.248s0.05-2.218-.65-2.468l0.05-.607s1.26-.6.96-1.462l-3.27-3.621L1152.45,817s0.4,1.26,1.06,1.26l-0.11.554-2.11-1.612-0.3.052-5.33-16.716-1.16,11.53s-1.71,4.229-2.81,4.528a2.962,2.962,0,0,0,1.25.808l-0.6,1.612-2.77-1.563-0.8.5-0.25-2.412-0.3-.255-0.56-9.164,0.96-1.26-0.96-.2-0.45-6.244s0.71-.15.65-1.509c0,0,.51-0.2.51-1.663a1.582,1.582,0,0,0,.95-1.712s1.76-1.962.4-3.169l-0.2-2.72s1.01-.5.3-1.209l0.56-.655,0.05-1.256-0.86-.354v-0.655l0.4-.35V782.21l0.46-.1-2.16-4.029-1.11,1.01-1.16-2.065-1.36.754-0.25-.252v-0.3h0.36l-0.06-2.115-0.55-1.56s0.25-2.719-.35-2.869l-1.01.1a1.31,1.31,0,0,0-.45-1.057V767.86l0.4-.252s-0.05-4.026-1.26-3.021l0.11-3.423h0.45l-4.73-15.2s-0.85-7.1.3-7.352l-1.96-.1-7.45-31.72a1.547,1.547,0,0,0-.09-2.164s0.09-1.259.65-.5c0,0,.8,1.358,1.81-0.352a6.926,6.926,0,0,1-1.15-2.854c0.01,0.17.11,1.52-.46,1.142a1.875,1.875,0,0,1-.9-1.107c-0.21-.5-0.91-1.461-0.11-1.159s0.46,0.052.86-.252,2.41-.654,1.86-3.222c0,0-4.07.352-3.22-.555,0,0,1.31-.655.4-1,0,0-.15-1.914-1-1.864,0,0-.75-0.362-0.97.223s-0.14-.037-0.14-0.037a0.859,0.859,0,0,1,.87-0.911c0.95-.11.99-2.481-0.84-2.59l-0.29-2.115-0.47,2.006a2.223,2.223,0,0,0-.95,2.953l-0.58.037a32.934,32.934,0,0,1-2.19-2.66c-0.47-.767-0.18-0.183-0.18-0.183s0.73,6.124,3.46,7.911c0,0-.04,3.427-0.65,2.225s-0.19-.11-0.19-0.11-1.24,3.318,1.1,2.114a0.948,0.948,0,0,1,.29,1.2c-0.44.62,0.51,1.2,0.18,1.605,0,0-.58,1.64.11,2.369l-3.32,26.724-2.44-.18-0.14,6.927,0.4,0.037-0.08,1.022,0.7,1.384-0.84,13.673s-0.87.8-.77,3.1c0,0-.8,1.968-0.76-0.4,0,0-1.17-.108-1.27,5.868l0.14,5.288s-0.95.331-.87,2.117c0,0-.95-0.438-0.84,5.03l-3.1,4.412-0.11,1.057-0.47.108-0.18,1.788h-0.55l-0.18,3.5,0.51,0.037s0.26,1.751-.4,2.262l1.35,2.552-0.11,4.849s1.96,1.311,2.26,2.879a6.562,6.562,0,0,0,.98,1.715l0.14,3.793-1.38-5.323-2.88,13.672s-2.18-2.262-2.26-3.246a8.473,8.473,0,0,1-2.69,4.05s-0.62,1.055.33,1.274c0,0,1.38.474,0.43,1.386-0.04.04-.07,0.073-0.11,0.109a2.415,2.415,0,0,0-2.84,2.516l-0.51,3.756-0.8.036-0.8,5.031-1.13.075-0.47,5.032-1.02.618-0.77,4.486-0.61.037-0.41,4.3h-3.2l-19.67-35.763v-9.156s1.63-1.424-.18-1.812c0,0-1.62.065-.33,1.683V808.3h-61.33V799.23c1.3-1.618-.32-1.683-0.32-1.683-1.81.388-.19,1.812-0.19,1.812v9.156l-19.664,35.763H979.44l-0.4-4.3-0.619-.037-0.764-4.486-1.019-.618-0.476-5.032-1.128-.075-0.8-5.031-0.8-.036-0.508-3.756a2.416,2.416,0,0,0-2.841-2.516c-0.033-.036-0.068-0.069-0.11-0.109-0.948-.912.438-1.386,0.438-1.386,0.943-.219.328-1.274,0.328-1.274a8.458,8.458,0,0,1-2.7-4.05c-0.073.984-2.258,3.246-2.258,3.246L962.9,801.149l-1.383,5.323,0.145-3.793a6.525,6.525,0,0,0,.983-1.715c0.292-1.568,2.259-2.879,2.259-2.879l-0.108-4.849,1.346-2.552c-0.654-.511-0.4-2.262-0.4-2.262l0.508-.037-0.181-3.5h-0.548l-0.184-1.788-0.471-.108-0.11-1.057-3.1-4.412c0.109-5.468-.84-5.03-0.84-5.03,0.076-1.786-.872-2.117-0.872-2.117l0.146-5.288c-0.111-5.976-1.275-5.868-1.275-5.868,0.038,2.369-.765.4-0.765,0.4,0.11-2.3-.765-3.1-0.765-3.1l-0.838-13.673,0.693-1.384-0.074-1.022,0.4-.037-0.143-6.927-2.442.18-3.315-26.724c0.7-.729.111-2.369,0.111-2.369-0.327-.4.618-0.985,0.181-1.605a0.94,0.94,0,0,1,.291-1.2c2.333,1.2,1.093-2.114,1.093-2.114s0.439-1.095-.182.11-0.656-2.225-.656-2.225c2.731-1.787,3.461-7.911,3.461-7.911s0.292-.584-0.182.183a31.679,31.679,0,0,1-2.185,2.66l-0.583-.037a2.226,2.226,0,0,0-.946-2.953l-0.476-2.006-0.289,2.115c-1.823.109-1.788,2.48-.84,2.59a0.868,0.868,0,0,1,.876.911s0.072,0.619-.146.037-0.967-.223-0.967-0.223c-0.854-.05-1.007,1.864-1.007,1.864-0.9.35,0.4,1,.4,1,0.855,0.907-3.221.555-3.221,0.555-0.551,2.568,1.462,2.92,1.863,3.222s0.051,0.553.856,0.252,0.1,0.654-.1,1.159a1.869,1.869,0,0,1-.906,1.107c-0.566.378-.466-0.972-0.454-1.142a7.027,7.027,0,0,1-1.154,2.854c1,1.71,1.811.352,1.811,0.352,0.554-.755.654,0.5,0.654,0.5a1.545,1.545,0,0,0-.1,2.164l-7.444,31.72-1.963.1c1.156,0.253.3,7.352,0.3,7.352l-4.725,15.2H935.4l0.1,3.423c-1.206-1-1.256,3.021-1.256,3.021l0.4,0.252v1.863a1.307,1.307,0,0,0-.452,1.057l-1-.1c-0.606.15-.354,2.869-0.354,2.869l-0.554,1.56-0.05,2.115h0.352v0.3l-0.25.252-1.359-.754-1.155,2.065-1.107-1.01-2.165,4.029,0.454,0.1v0.958l0.4,0.35v0.655l-0.857.354,0.051,1.256,0.554,0.655c-0.7.707,0.3,1.209,0.3,1.209l-0.2,2.72c-1.358,1.207.4,3.169,0.4,3.169a1.583,1.583,0,0,0,.956,1.712c0,1.462.5,1.663,0.5,1.663-0.048,1.359.655,1.509,0.655,1.509l-0.453,6.244-0.954.2,0.954,1.26-0.552,9.164-0.3.255-0.251,2.412-0.805-.5-2.767,1.563-0.6-1.612a2.984,2.984,0,0,0,1.257-.808c-1.106-.3-2.815-4.528-2.815-4.528l-1.159-11.53-5.331,16.716-0.3-.052-2.113,1.612-0.1-.554c0.652,0,1.055-1.26,1.055-1.26l-2.766-4.227-3.27,3.621c-0.3.86,0.957,1.462,0.957,1.462l0.049,0.607c-0.7.25-.654,2.468-0.654,2.468l-0.6.248c-0.151,1.309-2.062,1.107-2.062,1.107l2.013,3.375-0.605.857,0.151,0.756,0.654,0.8c0,1.307.3,1.257,0.3,1.257l-1.71,3.324,0.8,1.008,0.05,0.655c-1.91.4-.553,1.662-0.553,1.662l-0.051,1.106a5.416,5.416,0,0,0-1.861.5v2.417l0.454,0.605h-0.3v0.456l1.055,1.709v2.567l1.962,4.582h-0.5c2.364,2.517,1.36,4.429,1.36,4.429a0.813,0.813,0,0,1,.552.2v0.5h-0.7l-0.052,2.971h0.4v0.656h-0.451l-0.4,7.653a6.076,6.076,0,0,0-1.559.4,5.147,5.147,0,0,0,1.2,2.668,0.625,0.625,0,0,0-.4.353,3.667,3.667,0,0,0,.907,2.265l-0.705.2-0.605,15.106h-1.006a2.484,2.484,0,0,0,.755,1.966l-0.252,3.069,0.554,0.453c-1.86.05-2.011,1.359-2.011,1.359l0.6,0.9h-3.016l0.652,0.757a5.007,5.007,0,0,0,1.459,2.518v0.454h-0.453l0.5,0.654v1.761h-1.055l1.308,2.469-0.6.45v4.732l-3.479-.047c-0.143-.223-0.288-0.44-0.436-0.653l-8.609-19.137c1.609-.5,1.306-3.724,1.306-3.724,0.907-.353.907-2.465,0.907-2.465l0.654-.353-0.6-3.676-0.453.149-0.149-.754-1.007.605-1.157-2.263-1.258.3-3.824-9.717v-1.109a1.43,1.43,0,0,0,.755-1.51l0.4-.353v-1.207a2.228,2.228,0,0,0-1.058-1.107V861a5.29,5.29,0,0,0-1.256-1.612v-0.605a1.276,1.276,0,0,0,.1-2.062c0.1-.909,3.57-2.971,3.57-2.971h0.706V853.2c1.154-.5.45-2.872,0.45-2.872a0.98,0.98,0,0,1-1,.154c-0.906-.2-0.554-1.912-0.554-1.912,2.414-2.571-.3-3.326-0.3-3.326l-0.251-.7a0.706,0.706,0,0,0,.452-0.455v-1.359l0.4-.553,0.1-.653-0.754.2-0.051.6-0.553-.3,0.2-.455-0.1-.853-0.755.554,0.15,0.754a3.818,3.818,0,0,0-1.056-.3l0.2-.451-0.7-.708-0.5.757,0.3,0.606a4.565,4.565,0,0,0-.806.152v-0.708l-0.855-.405-0.2,1.06,0.4,0.9,0.05,2.316a1.739,1.739,0,0,0-1.709,2.317c-0.856.2-.906-0.907-0.906-0.907-0.7,1.611.806,1.663,0.806,1.663-1.008.755-.655,2.415-0.655,2.415,2.666,0.352,1.007,2.116,1.007,2.116a2.644,2.644,0,0,1-1.913.051l0.4,1.309c1.006-1.008,3.269,2.517,3.269,2.517-1.709.5-.3,2.062-0.3,2.062v0.605a3.966,3.966,0,0,0-1.709,1.411v0.653a2.585,2.585,0,0,0-1.309.706v1.407l0.3,0.405a1.2,1.2,0,0,0,.352,1.662c0.5-.051.1,1.056,0.1,1.056L876.55,875.6l-1.007-.3-0.352.706h-0.957l-0.151.5h-0.955l-1.458,3.626h0.554l0.4,0.856v1.259L873,883.458V886.1l0.327,0.328v0.552l0.25,0.252-10.259,17.52L858.492,904c-5.533,3.778-5.653,13.028-5.653,13.028l-1.457-.262,0.145,1.224c1.953,0.264-.494.991-0.494,0.991a0.457,0.457,0,0,1,.291.7h-0.379v0.7l-2.012.817,0.758,0.44v0.493h-0.233v0.35l0.38,0.117v0.5l1.224,1.02,0.028,0.32h-0.263v1.226l0.468,0.525v3.15l0.639,0.115-0.027.553-0.5-.085a3.263,3.263,0,0,0,.845,2.1V932.6h-0.408v1.077l0.962,1.7-0.613,9.97-2.3.818v0.409h0.35v0.818h0.524v0.669l1.138,0.934-0.059.236c-0.846.144-.233,0.873-0.233,0.873v1.632l0.319,0.089-0.027.961c-1.05.234-.059,0.875-0.059,0.875l-0.03.7-1.222.056,1.281,1.022-0.379,8.225-1.284,1.282v0.962h0.352v3.006a2.255,2.255,0,0,0-1.224,1.546l-1.632.494V971.6h0.233v0.668a9.9,9.9,0,0,1-3.381.439v-0.553l-0.7-.47h-1.455l-2.04-2.157-2.012-.817-4.428,4.494a11.167,11.167,0,0,1-2.272-1.081h-4.779l-3.438,6.038h-1.255v0.73H823l1.135,1.751v0.727h-0.582l0.641,0.614v1.488a3.345,3.345,0,0,0-1.953,3.734h-1.02v0.465h0.263v0.759l1.952,1.9V991H822.97v0.641h0.41V994.7H822.8v1.252H822.33v0.525h0.351v1.635h-2.77v0.525h0.467v1.283c0.058,0.88,1.893,2.33,1.893,2.33-1.427,0-.231.82-0.231,0.82l1.455,3.62a0.86,0.86,0,0,0-.64.81,1.244,1.244,0,0,1,.553.97c0,2.24,1.137,2.94,1.137,2.94l-0.73,12.6-1.659,1.52c0.174,0.61,1.909,1.02,1.909,1.02v1.91l0.422,0.42v0.47c-2.42-.12-3.5,2.53-3.5,2.53,0.205,1.23,2.594,1.08,2.594,1.08l-0.322,3.18c0.409-.08,1.225,1.03,1.225,1.03l-0.553,3.52c-1.6.24-1.4,1.05-1.4,1.05L820,1043.7a3.045,3.045,0,0,1,.845,1.02h1.107l-1.923,21.32c-2.825.12-1.749,1.49-1.749,1.49-0.813,1.92,1.457,2.01,1.457,2.01v6.39c-2.506.11-2.358,0.7-2.358,0.7-0.148.67,0.932,0.93,0.932,0.93a0.752,0.752,0,0,1,.147.03,0.421,0.421,0,0,0-.131.3,0.4,0.4,0,0,0,.4.4h0.616a4.627,4.627,0,0,1,.3.41,0.625,0.625,0,0,0-.523.73,1.153,1.153,0,0,1,.633.65l-2.583,8.87h-6.742v-5.26h-5.915v9.21H798.6c-1.313-20.39-10.513-25-10.513-25-13.145,3.95-11.173,24.71-11.173,24.71h-5.281l-3.58-9.15,0.64-2.61h-1.813l-9.393-23.68s0.961,0,.319-1.46c0,0,2.882-2.5-1.6-4.27l-3.523-12.94-0.746-22.22s1.922-.52-0.319-2.71l-0.854-32.858a2.955,2.955,0,0,0,2.134-2.605v-4.9s1.175-2.087-.535-2.818c0,0,4.163-2.921-.426-6.154,0,0,3.1-1.146,1.814-5.842a6.477,6.477,0,0,0-4.054-4.484l-2.028-52.261s2.99-2.294,2.776-5.216l0.319-7.511s-1.173-2.4-2.455-2.814v-4.173s2.241-2.191-.746-4.7L747.352,859.4a3.974,3.974,0,0,0,2.562-4.065l-0.107-1.982s2.24-1.149,1.066-7.929c0,0,.215-8.552-4.268-10.326v-4.276s1.92-1.668-1.388-4.173l0.107-8.552a1.954,1.954,0,0,0-.748-2.61l-0.213-7.092s2.455-1.983,0-3.964l-0.212-3.962s2.241-1.148-.32-3.443v-4.9s1.6-.1-0.108-2.085v-3.443s0.506-1.688-.665-1.961v-0.02a0.292,0.292,0,0,0-.04.01,0.26,0.26,0,0,0-.04-0.01v0.02c-1.169.273-.666,1.961-0.666,1.961v3.443c-1.707,1.981-.107,2.085-0.107,2.085v4.9c-2.56,2.3-.32,3.443-0.32,3.443l-0.213,3.962c-2.455,1.981,0,3.964,0,3.964l-0.213,7.092a1.954,1.954,0,0,0-.746,2.61l0.1,8.552c-3.307,2.5-1.385,4.173-1.385,4.173V835.1c-4.484,1.774-4.269,10.326-4.269,10.326-1.174,6.78,1.067,7.929,1.067,7.929l-0.108,1.982a3.974,3.974,0,0,0,2.562,4.065l-0.215,17.835c-2.987,2.506-.746,4.7-0.746,4.7v4.173c-1.281.415-2.454,2.814-2.454,2.814l0.32,7.511c-0.215,2.922,2.775,5.216,2.775,5.216l-2.028,52.261a6.477,6.477,0,0,0-4.055,4.484c-1.281,4.7,1.814,5.842,1.814,5.842-4.588,3.233-.426,6.154-0.426,6.154-1.707.731-.534,2.818-0.534,2.818v4.9a2.956,2.956,0,0,0,2.135,2.605l-0.855,32.858c-2.239,2.19-.32,2.71-0.32,2.71l-0.746,22.22-3.523,12.94c-4.483,1.77-1.6,4.27-1.6,4.27-0.641,1.46.319,1.46,0.319,1.46l-9.391,23.68H717.34l0.64,2.61-3.494,8.92v-12.64H711.2v13.82h-6.573v-35.52H692.8v38.81h-5.258v-10.53h-9.2v9.87l-1.947,1.63H674.25v-3.05h0.795v-0.75h-0.928v-2.83l-0.752-1.11v-48.12s0.795-1.46.045-1.81a0.529,0.529,0,0,0-.263-0.84v-2.43a0.911,0.911,0,0,0,1.1-.88s0.442-1.11,1.016-1.11a6.791,6.791,0,0,1-1.987-1.85v-5.09s0.971-1.01.265-1.32c0,0,.53-0.79,0-1.15,0,0-.574-4.73-2.472-6.1a3.945,3.945,0,0,1-.663-2.65v-0.53h-0.264v-0.35H667.32l-1.37,2.96s-1.9-2.12-1.675-3.8v-0.62s0.352-2.03-.707-2.21H661.14l-1.986,6.23H647.677s-0.089-3.09-1.854-4.55c0,0,.043-2.74-1.191-2.92H642.2v-7.24l1.457-2.08-2.075-.93v-4.2l-0.222-.265V973.915a1.456,1.456,0,0,0,.045-1.942v-1.68l1.811-2.827-3.047-1.185c2.15-3.015,6.263-11.273-6.2-18.631a2.09,2.09,0,0,0-1.13-1.634s-4.771-4.315-5.166-5.468V938.7s3.092-2.965-.429-5.171V918.476a0.841,0.841,0,0,0-.256-0.451v-0.042c-0.018,0-.034.012-0.051,0.017s-0.035-.013-0.055-0.017v0.042a0.859,0.859,0,0,0-.255.451V933.53c-3.521,2.206-.428,5.171-0.428,5.171v1.847c-0.4,1.153-5.165,5.468-5.165,5.468a2.1,2.1,0,0,0-1.134,1.634c-12.8,7.559-8.107,16.067-6.021,18.868l-2.846,4.923,1.721,1.5-0.087.133s-0.177.973-.22,1.37c0,0-4.46,3.448-4.547,5.124,0,0-10.2,7.692-5.606,13.655l-2.384-.969V990s1.985-1.19.794-2.253V967.336a3.092,3.092,0,0,0-.618-3.846v-3.311s1.59-1.858.708-3.362l3.045-5.877a5.718,5.718,0,0,0-3.178-6.142v-3.933l-1.721-3.667h-0.278c1.441-4.525,2.682-15.727-13.445-28.206,0,0-16.448-12.786-17.1-16.465,0,0-8.085-7.241-8.276-14.678,0,0,4.266-3.813-.453-6.226V851.491a0.392,0.392,0,0,0-.275-0.328v-0.016a0.6,0.6,0,0,0-.086,0,0.581,0.581,0,0,0-.086,0v0.016a0.394,0.394,0,0,0-.275.328v20.132c-4.718,2.413-.453,6.226-0.453,6.226-0.189,7.437-8.275,14.678-8.275,14.678-0.649,3.679-17.1,16.465-17.1,16.465C516.72,921.471,517.959,932.673,519.4,937.2h-0.379l-1.72,3.667V944.8a5.717,5.717,0,0,0-3.18,6.142l3.047,5.877c-0.883,1.5.7,3.362,0.7,3.362v3.311a3.1,3.1,0,0,0-.617,3.846v20.413c-1.19,1.063.8,2.253,0.8,2.253v2.256l-2.384.969c4.591-5.963-5.605-13.655-5.605-13.655-0.088-1.676-4.548-5.124-4.548-5.124-0.043-.4-0.22-1.37-0.22-1.37l-0.088-.133,1.722-1.5-2.74-4.738c2-2.593,7.21-11.32-5.883-19.053a2.1,2.1,0,0,0-1.132-1.634s-4.77-4.315-5.166-5.468V938.7s3.093-2.965-.428-5.171V918.476a0.844,0.844,0,0,0-.255-0.451v-0.042c-0.019,0-.035.012-0.053,0.017s-0.035-.013-0.054-0.017v0.042a0.851,0.851,0,0,0-.255.451V933.53c-3.522,2.206-.428,5.171-0.428,5.171v1.847c-0.395,1.153-5.166,5.468-5.166,5.468a2.1,2.1,0,0,0-1.133,1.634c-12.356,7.3-8.41,15.48-6.247,18.56l-3.238,1.256,1.808,2.827v1.68a1.456,1.456,0,0,0,.044,1.942V996.23l-0.219.265v4.2l-2.076.93,1.456,2.08v7.24h-2.426c-1.238.18-1.191,2.92-1.191,2.92-1.767,1.46-1.856,4.55-1.856,4.55H458.813l-1.985-6.23H454.4c-1.061.18-.707,2.21-0.707,2.21v0.62c0.222,1.68-1.677,3.8-1.677,3.8l-1.37-2.96h-2.823v0.35h-0.266v0.53a3.937,3.937,0,0,1-.661,2.65c-1.9,1.37-2.474,6.1-2.474,6.1-0.528.36,0,1.15,0,1.15-0.706.31,0.266,1.32,0.266,1.32v5.09a6.8,6.8,0,0,1-1.985,1.85c0.573,0,1.013,1.11,1.013,1.11a0.913,0.913,0,0,0,1.1.88v2.43a0.529,0.529,0,0,0-.264.84c-0.751.35,0.044,1.81,0.044,1.81v41.51l-4.814.88c-1.971-7.24-4.6-9.21-4.6-9.21-7.229,0-8.543,9.86-8.543,9.86h-7.229v9.87h-9.63l-7.464-62.72a2.293,2.293,0,0,0,.444-1.42l3.427-1.99v-1.99l0.678-.6a1.862,1.862,0,0,1,.563-1.16v-0.75h-9.525l-0.3-1.42a2.451,2.451,0,0,0,.489-0.79H369.7l-0.864.94H352.642v-1.28a1.171,1.171,0,0,0-.488-1.53s-0.189-1.2.6-1.05a0.247,0.247,0,0,0-.188-0.41s0.564-.68-0.226-0.83c0,0,.678-0.71-0.114-0.9,0,0,.451-0.67-0.074-0.71,0,0,.377-1.2-0.3-1.05a1.926,1.926,0,0,0-1.054.83l0.377-1.35a1.8,1.8,0,0,0-.565-0.23,1.443,1.443,0,0,1,.377-0.71,2.989,2.989,0,0,0-3.39.23,1.254,1.254,0,0,1,.451.78,1.821,1.821,0,0,0-.677.41,1.545,1.545,0,0,1,.452.72,0.515,0.515,0,0,0-.074.82,1.755,1.755,0,0,1-1.508,0,0.836,0.836,0,0,0,.114.86,1.019,1.019,0,0,0,.263.75s-0.187.83,0.189,0.83c0,0-.376.82,0.037,0.78,0,0-.413.75,0.3,0.34a2.04,2.04,0,0,0,.3,1.5,0.9,0.9,0,0,0-.227.75v0.94s-20.033,6.43-29.531,7.49h-1.246a1.835,1.835,0,0,1,1.844-2.3s0.6-2.57-1.844-2.93a2.641,2.641,0,0,0-1.738.43c-0.133-.77-0.748-3.37-2.873-3.09v-15.51l0.647-2.3h-0.647l3.5-9.125h-5.9l0.37-1.469h-1.984v-1.924l0.323-.461H307.4V991.86h-0.8a4.422,4.422,0,0,0-.161-1.758s0.417-.207-0.162-0.371c0,0,.394-2.648,1.111-3.106,0,0,.091-0.256-0.139-0.209,0,0,.671-0.921.116-0.693,0,0,.555-0.922.023-0.646,0,0,.209-0.828-0.555-0.276,0,0-.233-0.344-0.07-0.46a0.734,0.734,0,0,0,.023-0.942c-0.395-.46-0.788-0.623-1.227-1.131a4.81,4.81,0,0,0-.694-1.059l0.02-.208s0.719-.275.164-1.358a7.067,7.067,0,0,0,.857-2.717,1.683,1.683,0,0,0,.186-0.969s1.181-.737.324-0.552c0,0,.37-0.552-0.163-0.3,0,0-.114-0.76-0.716.394a3.561,3.561,0,0,0,0,.989,11.606,11.606,0,0,0-1.137,2.558,1.379,1.379,0,0,0-1.04,1.726,1.789,1.789,0,0,0-.881.346,5.946,5.946,0,0,1-.926-0.161,0.578,0.578,0,0,1-.114-0.623s0.855-1.7-.394-2.047a0.889,0.889,0,0,0-1.066.806s-0.834-.325-0.486.827a0.553,0.553,0,0,0,.58.6,0.439,0.439,0,0,0,.347.161s0.208,0.46-.835.483a0.5,0.5,0,0,0-.485.068,0.619,0.619,0,0,0-1.066-.206,1.263,1.263,0,0,1-.554-0.046s-0.882-.555-0.95.6a0.962,0.962,0,0,1-.534.231s-0.207-.069-0.185.255a0.872,0.872,0,0,0-.532.6,4.083,4.083,0,0,1,.106.946c0,0.033-.007.063-0.012,0.09-0.071.323,0.114,0.393,0.461,0.138a0.99,0.99,0,0,1-.114.761s1.018-.715,1.041-0.115c0,0,.672-1.061.624-0.3a0.724,0.724,0,0,0,.535-0.115,0.3,0.3,0,0,0,.461-0.092s0.488,1.058,1.157.021c0,0,.558-0.184.233,0.418a12.049,12.049,0,0,0-.6,1.333,0.816,0.816,0,0,1-.857-0.138s-1.3,1.175-1.112,1.843c0,0,.834,1.383,1.506.3,0,0,.485-0.23-0.255,1.22,0,0-.464.553,0.881,0.923a5.848,5.848,0,0,0-.279.713s-0.555.322-.741-0.07a0.862,0.862,0,0,0-1.133.715s-0.326,0-.3.529l-0.811,2.788h-6.992v-0.53s-2.221.182-2.917,0.229a3.667,3.667,0,0,1,.3-1.633l-0.95-.117v-10.78l0.231-.555v-0.967h-0.276v-1.058l0.37-1.82v-0.828h-0.788v-0.738h-0.716l1.272-12.114h-3.194v-0.325H281.7V961.56a6.126,6.126,0,0,0-2.592-.322V960h-0.788a1.819,1.819,0,0,0,.139-1.381,0.81,0.81,0,0,0,.441-0.969s0.092-2.144-.278-2.258c0,0,1.2-.163.9-0.647a1.194,1.194,0,0,0-1.112-.342,2.3,2.3,0,0,0,.533-1.359l-0.045-3.8s1.019-.509.949-1.037a1.124,1.124,0,0,0-1.227.508,3.722,3.722,0,0,0-1.367.437v-1.177a1.409,1.409,0,0,0,.649-1.15,0.9,0.9,0,0,0-.972.668s-0.718.138-2.247,2.237a0.773,0.773,0,0,1-.485-0.669,0.991,0.991,0,0,0,.463-0.854l0.3-.3-0.6-.621-0.486-.022-1.805-27.712a0.537,0.537,0,0,0,.417-0.6s0.347-2.165-.44-2.532a1.205,1.205,0,0,0-.233-1.938l0.024-.16a0.675,0.675,0,0,1,.7.53,2.667,2.667,0,0,1,1.111.046s-0.069-.622.231-0.667c0,0-.948,0-0.717-0.439,0,0-.533-0.3.231-0.3a1.689,1.689,0,0,1,1.852-1.128l0.186-.716h0.231s0.209-1.2-.208-1.245l0.092-.825a3.221,3.221,0,0,0-1.018-.094s0.115-.807-1.066,0l-0.555-1.314,2.291-1.541-2.963-.323-0.711-1.845v-0.023l0,0.011,0-.011v0.023L270.8,906.3l-2.964.323,2.293,1.541-0.555,1.314c-1.182-.807-1.066,0-1.066,0a3.231,3.231,0,0,0-1.019.094l0.093,0.825c-0.416.047-.208,1.245-0.208,1.245h0.232l0.185,0.716a1.69,1.69,0,0,1,1.852,1.128c0.763,0,.231.3,0.231,0.3,0.232,0.439-.717.439-0.717,0.439,0.3,0.045.23,0.667,0.23,0.667a2.676,2.676,0,0,1,1.113-.046,0.672,0.672,0,0,1,.693-0.53l0.023,0.16a1.206,1.206,0,0,0-.231,1.938c-0.787.367-.44,2.532-0.44,2.532a0.538,0.538,0,0,0,.416.6l-1.8,27.712-0.485.022-0.6.621,0.3,0.3a0.991,0.991,0,0,0,.463.854,0.777,0.777,0,0,1-.486.669c-1.529-2.1-2.245-2.237-2.245-2.237a0.9,0.9,0,0,0-.973-0.668,1.406,1.406,0,0,0,.646,1.15v1.177a3.7,3.7,0,0,0-1.365-.437,1.123,1.123,0,0,0-1.226-.508c-0.07.528,0.949,1.037,0.949,1.037l-0.047,3.8a2.307,2.307,0,0,0,.532,1.359,1.193,1.193,0,0,0-1.11.342c-0.3.484,0.9,0.647,0.9,0.647-0.368.114-.277,2.258-0.277,2.258a0.811,0.811,0,0,0,.441.969,1.817,1.817,0,0,0,.138,1.381h-0.787v1.242a6.156,6.156,0,0,0-2.6.322v1.774h-0.716v0.325h-3.2l1.275,12.114h-0.718v0.738H257.19v0.828l0.371,1.82v1.058h-0.279v0.967l0.232,0.555v10.78l-0.949.117a3.661,3.661,0,0,1,.3,1.633c-0.693-.047-2.916-0.229-2.916-0.229v0.53h-6.992l-0.81-2.788c0.022-.529-0.3-0.529-0.3-0.529a0.862,0.862,0,0,0-1.134-.715c-0.185.392-.74,0.07-0.74,0.07a5.889,5.889,0,0,0-.278-0.713c1.343-.37.878-0.923,0.878-0.923-0.741-1.45-.254-1.22-0.254-1.22,0.672,1.083,1.5-.3,1.5-0.3,0.185-.668-1.111-1.843-1.111-1.843a0.816,0.816,0,0,1-.857.138,12.049,12.049,0,0,0-.6-1.333c-0.324-.6.231-0.418,0.231-0.418,0.673,1.037,1.158-.021,1.158-0.021a0.3,0.3,0,0,0,.464.092,0.716,0.716,0,0,0,.532.115c-0.046-.762.625,0.3,0.625,0.3,0.023-.6,1.043.115,1.043,0.115a0.989,0.989,0,0,1-.116-0.761c0.347,0.255.533,0.185,0.463-.138a0.408,0.408,0,0,1-.012-0.09,4.007,4.007,0,0,1,.1-0.946,0.874,0.874,0,0,0-.532-0.6c0.022-.324-0.186-0.255-0.186-0.255a0.957,0.957,0,0,1-.531-0.231c-0.071-1.152-.949-0.6-0.949-0.6a1.277,1.277,0,0,1-.557.046,0.618,0.618,0,0,0-1.065.206,0.5,0.5,0,0,0-.486-0.068c-1.042-.023-0.833-0.483-0.833-0.483a0.444,0.444,0,0,0,.347-0.161,0.552,0.552,0,0,0,.578-0.6c0.347-1.152-.487-0.827-0.487-0.827a0.887,0.887,0,0,0-1.064-.806c-1.251.344-.394,2.047-0.394,2.047a0.575,0.575,0,0,1-.114.623,5.976,5.976,0,0,1-.927.161,1.786,1.786,0,0,0-.88-0.346,1.38,1.38,0,0,0-1.042-1.726,11.5,11.5,0,0,0-1.134-2.558,3.561,3.561,0,0,0,0-.989c-0.6-1.154-.718-0.394-0.718-0.394-0.533-.251-0.161.3-0.161,0.3-0.858-.185.323,0.552,0.323,0.552a1.668,1.668,0,0,0,.185.969,7.062,7.062,0,0,0,.858,2.717c-0.557,1.083.161,1.358,0.161,1.358l0.024,0.208a4.793,4.793,0,0,0-.7,1.059c-0.441.508-.833,0.671-1.226,1.131a0.736,0.736,0,0,0,.022.942c0.163,0.116-.068.46-0.068,0.46-0.764-.552-0.556.276-0.556,0.276-0.533-.276.024,0.646,0.024,0.646-0.557-.228.114,0.693,0.114,0.693-0.231-.047-0.138.209-0.138,0.209,0.717,0.458,1.111,3.106,1.111,3.106-0.579.164-.162,0.371-0.162,0.371a4.425,4.425,0,0,0-.162,1.758h-0.8v0.411H234.89l0.322,0.461v1.924H233.23l0.368,1.469h-5.9l3.5,9.125h-0.645l0.645,2.3v15.51c-2.127-.28-2.739,2.32-2.875,3.09a2.637,2.637,0,0,0-1.737-.43c-2.443.36-1.845,2.93-1.845,2.93a1.836,1.836,0,0,1,1.845,2.3h-1.244c-9.5-1.06-29.535-7.49-29.535-7.49v-0.94a0.891,0.891,0,0,0-.226-0.75,2.038,2.038,0,0,0,.3-1.5c0.715,0.41.3-.34,0.3-0.34,0.413,0.04.039-.78,0.039-0.78,0.374,0,.186-0.83.186-0.83a1.024,1.024,0,0,0,.264-0.75,0.835,0.835,0,0,0,.113-0.86,1.75,1.75,0,0,1-1.506,0,0.517,0.517,0,0,0-.075-0.82,1.553,1.553,0,0,1,.451-0.72,1.829,1.829,0,0,0-.677-0.41,1.249,1.249,0,0,1,.452-0.78,2.989,2.989,0,0,0-3.39-.23,1.441,1.441,0,0,1,.376.71,1.8,1.8,0,0,0-.564.23l0.376,1.35a1.922,1.922,0,0,0-1.054-.83c-0.678-.15-0.3,1.05-0.3,1.05-0.527.04-.076,0.71-0.076,0.71-0.791.19-.112,0.9-0.112,0.9-0.79.15-.226,0.83-0.226,0.83a0.246,0.246,0,0,0-.188.41c0.791-.15.6,1.05,0.6,1.05a1.173,1.173,0,0,0-.49,1.53v1.28H174.2l-0.865-.94H144.937a2.45,2.45,0,0,0,.491.79l-0.3,1.42H135.6v0.75a1.85,1.85,0,0,1,.567,1.16l0.677,0.6v1.99l3.428,1.99a2.272,2.272,0,0,0,.444,1.42l-6.48,65.67H0V0H1920V1097.82H1740.2ZM1310.96,843.641c1.52,0.651-1.18.973-1.18,0.973a2.716,2.716,0,0,1-1.02-.676A2.946,2.946,0,0,1,1310.96,843.641Zm332.46,106.92-0.01-.737S1644.72,949.942,1643.42,950.561Zm-5.99-.737-0.01.737C1636.12,949.942,1637.43,949.824,1637.43,949.824ZM770.471,1092.61h-0.233l-0.8-2.58Zm-7.584,0h-3.643l0.06-3.83,1.92,0.21Zm-20.787-4.46h1.835l1.447,4.46h-4.726Zm-15.367.63,0.061,3.83h-3.645l1.662-3.62Zm-10.935,3.83h-0.234l1.031-2.58Zm-402.4-65.93a1.056,1.056,0,0,1,1.177-.44,3.052,3.052,0,0,0-.994,1.54,0.681,0.681,0,0,1-.83.32S311.831,1026.77,313.4,1026.68ZM302.75,989.989s0.369,0.014.235-1.009c0,0,.219-0.116.288,0,0,0,.218.641-0.05,0.757a0.811,0.811,0,0,0-.153.489,10.569,10.569,0,0,0-.338,1.626l-0.439.066A12.613,12.613,0,0,0,302.75,989.989Zm-2.7.957a1.826,1.826,0,0,0,.373-0.654,3.122,3.122,0,0,0,1.011-.185,2.874,2.874,0,0,0,.135,1.126v0.7h-0.928a0.652,0.652,0,0,0-.741-0.605A0.337,0.337,0,0,1,300.048,990.946Zm-58.585.287a2.822,2.822,0,0,0,.136-1.126,3.137,3.137,0,0,0,1.013.185,1.787,1.787,0,0,0,.37.654,0.336,0.336,0,0,1,.153.386,0.653,0.653,0,0,0-.743.605h-0.929v-0.7Zm-1.7-2.253c0.067-.116.287,0,0.287,0-0.135,1.023.237,1.009,0.237,1.009a12.388,12.388,0,0,0,.456,1.929l-0.44-.066a10.47,10.47,0,0,0-.337-1.626,0.813,0.813,0,0,0-.152-0.489C239.54,989.621,239.759,988.98,239.759,988.98Zm-10.125,37.7c1.567,0.09.645,1.42,0.645,1.42a0.684,0.684,0,0,1-.831-0.32,3.065,3.065,0,0,0-.993-1.54A1.061,1.061,0,0,1,229.634,1026.68Z"/>
</svg>
