<svg xmlns="http://www.w3.org/2000/svg" width="24" height="24" viewBox="0 0 24 24">
  <metadata><?xpacket begin="﻿" id="W5M0MpCehiHzreSzNTczkc9d"?>
<x:xmpmeta xmlns:x="adobe:ns:meta/" x:xmptk="Adobe XMP Core 5.6-c138 79.159824, 2016/09/14-01:09:01        ">
   <rdf:RDF xmlns:rdf="http://www.w3.org/1999/02/22-rdf-syntax-ns#">
      <rdf:Description rdf:about=""/>
   </rdf:RDF>
</x:xmpmeta>
                                                                                                    
                                                                                                    
                                                                                                    
                                                                                                    
                                                                                                    
                                                                                                    
                                                                                                    
                                                                                                    
                                                                                                    
                                                                                                    
                                                                                                    
                                                                                                    
                                                                                                    
                                                                                                    
                                                                                                    
                                                                                                    
                                                                                                    
                                                                                                    
                                                                                                    
                                                                                                    
                           
<?xpacket end="w"?></metadata>
<defs>
    <style>
      .cls-1 {
        fill: #ffd200;
        fill-rule: evenodd;
      }
    </style>
  </defs>
  <path id="Forma_1" data-name="Forma 1" class="cls-1" d="M1258,129a12,12,0,1,0,12,12A12,12,0,0,0,1258,129Zm6.34,17.509-0.96.961a1.845,1.845,0,0,1-.69.278,11.334,11.334,0,0,1-11.44-11.462,1.808,1.808,0,0,1,.28-0.659l0.96-.961a1.607,1.607,0,0,1,1.5-.354l0.2,0.067a1.878,1.878,0,0,1,1.1,1.16l0.48,1.774a1.713,1.713,0,0,1-.39,1.519l-0.64.642a6.819,6.819,0,0,0,4.79,4.793l0.64-.642a1.736,1.736,0,0,1,1.52-.4l1.77,0.485a1.9,1.9,0,0,1,1.16,1.095l0.07,0.205A1.6,1.6,0,0,1,1264.34,146.509Z" transform="translate(-1246 -129)"/>
</svg>
