<?xml version="1.0" encoding="UTF-8" standalone="no"?>
<!DOCTYPE svg  PUBLIC '-//W3C//DTD SVG 1.1//EN'  'http://www.w3.org/Graphics/SVG/1.1/DTD/svg11.dtd'>
<svg xmlns="http://www.w3.org/2000/svg" version="1.1">
<defs>
<font id="GothamPro-Medium" horiz-adv-x="500">
<font-face font-weight="400" font-family="Gotham Pro" bbox="-70 -165 1180 922" underline-thickness="20" ascent="800" underline-position="-133" stemv="122" descent="-200" units-per-em="1000" x-height="528" stemh="111" panose-1="2 0 6 3 3 0 0 2 0 4" unicode-range="U+0020-FB04" cap-height="700"/>
<missing-glyph d="M0 0v700h500v-700h-500zM81 49h339l-170 255zM49 96l171 254l-171 254v-508zM450 96v508l-171 -254zM250 395l170 255h-339z"/>
<glyph glyph-name="fi" d="M454 609v115h130v-115h-130zM103 0v424h-67v101h67v38c0 59 15 103 43 131s67 42 119 42c42 0 71 -6 98 -14v-102c-24 8 -45 13 -71 13c-46 0 -70 -25 -70 -80v-29h140v-100h-138v-424h-121zM459 0v528h121v-528h-121z" horiz-adv-x="662" unicode="fi"/>
<glyph glyph-name="fl" d="M103 0v424h-67v101h67v38c0 59 15 103 43 131s67 42 119 42c42 0 71 -6 98 -14v-102c-24 8 -45 13 -71 13c-46 0 -70 -25 -70 -80v-29h140v-100h-138v-424h-121zM459 0v730h121v-730h-121z" horiz-adv-x="662" unicode="fl"/>
<glyph glyph-name="ffi" d="M830 609v115h130v-115h-130zM479 0v424h-67v101h67v38c0 59 15 103 43 131s67 42 118 42c43 0 72 -6 99 -14v-102c-24 8 -45 13 -71 13c-46 0 -70 -25 -70 -80v-29h140v-100h-138v-424h-121zM103 0v424h-67v101h67v38c0 59 15 103 43 131s67 42 119 42c42 0 71 -6 98 -14 v-102c-24 8 -45 13 -71 13c-46 0 -70 -25 -70 -80v-29h140v-100h-138v-424h-121zM834 0v528h122v-528h-122z" horiz-adv-x="1038" unicode="ffi"/>
<glyph glyph-name="ffl" d="M479 0v424h-67v101h67v38c0 59 15 103 43 131s67 42 118 42c43 0 72 -6 99 -14v-102c-24 8 -45 13 -71 13c-46 0 -70 -25 -70 -80v-29h140v-100h-138v-424h-121zM103 0v424h-67v101h67v38c0 59 15 103 43 131s67 42 119 42c42 0 71 -6 98 -14v-102c-24 8 -45 13 -71 13 c-46 0 -70 -25 -70 -80v-29h140v-100h-138v-424h-121zM834 0v730h122v-730h-122z" horiz-adv-x="1038" unicode="ffl"/>
<glyph glyph-name=".notdef" d="M0 0v700h500v-700h-500zM81 49h339l-170 255zM49 96l171 254l-171 254v-508zM450 96v508l-171 -254zM250 395l170 255h-339z"/>
<glyph glyph-name="space" horiz-adv-x="300" unicode=" "/>
<glyph glyph-name="exclam" d="M118 221l-38 444v35h142v-35l-37 -444h-67zM85 0v137h133v-137h-133z" horiz-adv-x="302" unicode="!"/>
<glyph glyph-name="quotedbl" d="M279 401l24 299h137v-5l-98 -294h-63zM60 401l23 299h137v-5l-97 -294h-63z" horiz-adv-x="487" unicode='&quot;'/>
<glyph glyph-name="numbersign" d="M101 0l28 161h-90v104h108l29 174h-100v104h118l27 157h107l-27 -157h164l26 157h107l-27 -157h89v-104h-107l-29 -174h100v-104h-118l-28 -161h-107l28 161h-164l-27 -161h-107zM253 265h164l30 174h-164z" horiz-adv-x="700" unicode="#"/>
<glyph glyph-name="dollar" d="M288 -98v100c-87 10 -171 45 -239 99l64 91c57 -46 111 -76 176 -86v196c-146 38 -214 93 -214 207c0 108 88 181 213 191v58h81v-60c73 -9 136 -35 191 -76l-56 -94c-44 33 -89 54 -136 64v-190c152 -38 217 -99 217 -208s-89 -182 -216 -193v-99h-81zM289 423v176 c-63 -5 -96 -39 -96 -85c0 -41 19 -68 96 -91zM368 102c63 5 99 37 99 87c0 44 -21 71 -99 94v-181z" horiz-adv-x="642" unicode="$"/>
<glyph glyph-name="percent" d="M212 350c-98 0 -164 81 -164 179c0 97 67 179 166 179c98 0 164 -81 164 -179c0 -97 -67 -179 -166 -179zM119 0l512 700h99l-512 -700h-99zM635 -8c-98 0 -164 81 -164 179c0 97 67 179 166 179c98 0 164 -81 164 -179c0 -97 -67 -179 -166 -179zM214 427 c47 0 75 46 75 102s-32 102 -77 102c-47 0 -75 -46 -75 -102c0 -57 32 -102 77 -102zM637 69c47 0 75 46 75 102s-32 102 -77 102c-47 0 -75 -46 -75 -102c0 -57 32 -102 77 -102z" horiz-adv-x="849" unicode="%"/>
<glyph glyph-name="ampersand" d="M575 -14l-93 95c-60 -56 -130 -91 -215 -91c-130 0 -228 79 -228 202c0 90 53 155 149 196c-40 51 -58 95 -58 148c0 94 76 176 201 176c111 0 186 -75 186 -171c0 -92 -61 -147 -154 -182l120 -122c27 40 52 86 75 135l93 -49c-28 -56 -59 -111 -95 -160l110 -112z M298 425c72 26 110 59 110 111c0 47 -33 79 -80 79c-50 0 -83 -35 -83 -86c0 -35 14 -61 53 -104zM280 92c48 0 92 23 132 61l-156 159c-65 -28 -93 -71 -93 -118c0 -59 49 -102 117 -102z" horiz-adv-x="696" unicode="&amp;"/>
<glyph glyph-name="quotesingle" d="M60 401l23 299h139v-5l-98 -294h-64z" horiz-adv-x="269" unicode="&apos;"/>
<glyph glyph-name="parenleft" d="M340 -141c-182 100 -277 239 -277 428s95 328 277 428l53 -81c-142 -94 -209 -198 -209 -347s67 -253 209 -347z" horiz-adv-x="440" unicode="("/>
<glyph glyph-name="parenright" d="M101 -141l-53 81c142 94 209 198 209 347s-67 253 -209 347l53 81c181 -100 277 -239 277 -428s-96 -328 -277 -428z" horiz-adv-x="440" unicode=")"/>
<glyph glyph-name="asterisk" d="M180 382l14 122l-100 -73l-36 61l114 50l-114 50l36 61l100 -73l-14 122h70l-14 -122l100 73l36 -61l-114 -50l114 -50l-36 -61l-100 73l14 -122h-70z" horiz-adv-x="430" unicode="*"/>
<glyph glyph-name="plus" d="M263 106v191h-192v110h192v191h114v-191h192v-110h-192v-191h-114z" horiz-adv-x="640" unicode="+"/>
<glyph glyph-name="comma" d="M47 -145l-13 51c57 11 86 38 86 83c0 4 -1 7 -1 11h-51v137h133v-116c0 -111 -53 -158 -154 -166z" horiz-adv-x="269" unicode=","/>
<glyph glyph-name="hyphen" d="M56 247v119h296v-119h-296z" horiz-adv-x="408" unicode="-"/>
<glyph glyph-name="period" d="M68 0v137h133v-137h-133z" horiz-adv-x="269" unicode="."/>
<glyph glyph-name="slash" d="M-25 -128l452 926h105l-452 -926h-105z" horiz-adv-x="521" unicode="/"/>
<glyph glyph-name="zero" d="M361 -12c-184 0 -304 160 -304 362c0 200 122 362 306 362c183 0 304 -160 304 -362c0 -200 -122 -362 -306 -362zM363 99c109 0 177 111 177 251c0 138 -71 251 -179 251s-177 -110 -177 -251c0 -138 70 -251 179 -251z" horiz-adv-x="724" unicode="0"/>
<glyph glyph-name="one" d="M178 0v580l-126 -35l-26 100l188 60h86v-705h-122z" horiz-adv-x="396" unicode="1"/>
<glyph glyph-name="two" d="M49 0v97l241 205c96 81 131 126 131 189c0 69 -49 109 -113 109s-108 -35 -162 -105l-87 68c67 94 133 147 258 147c137 0 231 -84 231 -211c0 -110 -59 -169 -182 -271l-144 -120h333v-108h-506z" horiz-adv-x="613" unicode="2"/>
<glyph glyph-name="three" d="M311 -12c-122 0 -209 51 -268 123l86 80c50 -59 106 -92 184 -92c69 0 121 42 121 108c0 69 -63 108 -161 108h-57l-20 77l189 201h-303v107h463v-92l-195 -200c111 -16 206 -73 206 -199c0 -129 -100 -221 -245 -221z" horiz-adv-x="618" unicode="3"/>
<glyph glyph-name="four" d="M412 0v157h-353l-23 88l389 460h105v-447h100v-101h-100v-157h-118zM182 258h230v277z" horiz-adv-x="681" unicode="4"/>
<glyph glyph-name="five" d="M304 -12c-107 0 -191 43 -257 107l76 89c56 -52 115 -84 180 -84c84 0 139 48 139 123c0 71 -60 116 -145 116c-50 0 -93 -14 -129 -31l-74 49l20 343h418v-109h-312l-11 -164c33 12 64 20 111 20c136 0 243 -72 243 -222c0 -143 -104 -237 -259 -237z" horiz-adv-x="622" unicode="5"/>
<glyph glyph-name="six" d="M337 -12c-86 0 -148 27 -194 73c-54 54 -86 127 -86 270c0 214 102 381 300 381c91 0 153 -29 214 -78l-66 -95c-49 38 -91 61 -152 61c-104 0 -162 -94 -168 -222c37 36 85 70 167 70c136 0 245 -80 245 -222c0 -139 -113 -238 -260 -238zM334 94c87 0 140 55 140 129 c0 70 -56 122 -143 122s-142 -56 -142 -125c0 -71 57 -126 145 -126z" horiz-adv-x="656" unicode="6"/>
<glyph glyph-name="seven" d="M106 0l314 592h-352v108h492v-93l-316 -607h-138z" horiz-adv-x="609" unicode="7"/>
<glyph glyph-name="eight" d="M315 -10c-153 0 -267 80 -267 202c0 85 47 138 126 171c-59 31 -102 78 -102 158c0 107 103 189 243 189s243 -81 243 -191c0 -78 -43 -125 -102 -156c76 -35 126 -85 126 -170c0 -125 -114 -203 -267 -203zM315 404c72 0 125 43 125 105c0 54 -50 98 -125 98 s-125 -44 -125 -99c0 -61 53 -104 125 -104zM315 93c92 0 147 47 147 107c0 64 -64 106 -147 106s-147 -42 -147 -108c0 -57 55 -105 147 -105z" horiz-adv-x="630" unicode="8"/>
<glyph glyph-name="nine" d="M299 -12c-97 0 -165 35 -224 84l67 94c53 -45 100 -66 160 -66c103 0 165 91 169 220c-35 -42 -89 -74 -164 -74c-149 0 -248 87 -248 224s106 242 261 242c88 0 145 -25 194 -74c52 -52 85 -129 85 -269c0 -225 -112 -381 -300 -381zM325 349c89 0 142 58 142 128 c0 73 -57 129 -146 129c-87 0 -139 -58 -139 -132c0 -73 56 -125 143 -125z" horiz-adv-x="656" unicode="9"/>
<glyph glyph-name="colon" d="M73 391v137h133v-137h-133zM73 0v137h133v-137h-133z" horiz-adv-x="279" unicode=":"/>
<glyph glyph-name="semicolon" d="M73 391v137h133v-137h-133zM52 -145l-13 51c57 11 86 38 86 83c0 4 -1 7 -1 11h-51v137h133v-116c0 -111 -53 -158 -154 -166z" horiz-adv-x="279" unicode=";"/>
<glyph glyph-name="less" d="M547 77l-477 221v108l477 221v-115l-357 -159l357 -160v-116z" horiz-adv-x="640" unicode="&lt;"/>
<glyph glyph-name="equal" d="M86 421v112h468v-112h-468zM86 171v112h468v-112h-468z" horiz-adv-x="640" unicode="="/>
<glyph glyph-name="greater" d="M93 77v115l357 159l-357 160v116l477 -221v-108z" horiz-adv-x="640" unicode="&gt;"/>
<glyph glyph-name="question" d="M207 221l-20 162l5 5c127 5 185 46 185 114c0 56 -43 95 -115 95c-63 0 -115 -28 -163 -79l-75 80c58 66 133 111 241 111c140 0 234 -78 234 -205c0 -126 -90 -183 -201 -202l-10 -81h-81zM178 0v137h134v-137h-134z" horiz-adv-x="541" unicode="?"/>
<glyph glyph-name="at" d="M499 -162c-256 0 -446 197 -446 436s193 438 438 438s436 -189 436 -396c0 -168 -91 -249 -194 -249c-78 0 -125 33 -148 70c-36 -37 -85 -70 -155 -70c-100 0 -181 74 -181 189c0 141 111 250 227 250c72 0 115 -34 141 -74l12 60l97 -15l-44 -252c-3 -18 -5 -34 -5 -43 c0 -43 29 -71 78 -71c71 0 132 68 132 205c0 184 -169 358 -396 358c-228 0 -398 -180 -398 -400c0 -221 168 -398 406 -398c99 0 171 23 247 67l18 -30c-77 -47 -161 -75 -265 -75zM457 154c73 0 138 71 138 158c0 64 -45 108 -105 108c-73 0 -139 -68 -139 -158 c0 -69 44 -108 106 -108z" horiz-adv-x="980" unicode="@"/>
<glyph glyph-name="A" d="M30 0l308 705h114l308 -705h-130l-71 169h-331l-72 -169h-126zM273 278h241l-121 280z" horiz-adv-x="790" unicode="A"/>
<glyph glyph-name="B" d="M90 0v700h314c80 0 143 -22 183 -62c31 -31 47 -69 47 -118c0 -84 -48 -129 -100 -156c82 -28 139 -75 139 -172c0 -125 -103 -192 -259 -192h-324zM211 405h168c79 0 132 31 132 97c0 55 -44 89 -123 89h-177v-186zM211 109h204c84 0 135 33 135 98c0 59 -47 94 -144 94 h-195v-192z" horiz-adv-x="722" unicode="B"/>
<glyph glyph-name="C" d="M415 -12c-204 0 -356 159 -356 362c0 199 149 362 361 362c129 0 207 -45 274 -109l-79 -91c-56 52 -116 87 -196 87c-134 0 -231 -110 -231 -249c0 -137 97 -249 231 -249c86 0 141 35 201 91l79 -80c-73 -76 -153 -124 -284 -124z" horiz-adv-x="738" unicode="C"/>
<glyph glyph-name="D" d="M90 0v700h261c220 0 372 -151 372 -350c0 -197 -152 -350 -372 -350h-261zM213 112h138c147 0 243 99 243 238c0 137 -96 238 -243 238h-138v-476z" horiz-adv-x="782" unicode="D"/>
<glyph glyph-name="E" d="M90 0v700h519v-110h-396v-182h351v-110h-351v-188h401v-110h-524z" horiz-adv-x="670" unicode="E"/>
<glyph glyph-name="F" d="M90 0v700h521v-112h-398v-191h353v-112h-353v-285h-123z" horiz-adv-x="656" unicode="F"/>
<glyph glyph-name="G" d="M422 -12c-219 0 -363 156 -363 362c0 196 150 362 361 362c122 0 197 -34 269 -95l-78 -93c-54 46 -107 75 -196 75c-129 0 -227 -113 -227 -249c0 -144 95 -250 238 -250c66 0 126 21 169 53v131h-179v107h298v-294c-69 -59 -168 -109 -292 -109z" horiz-adv-x="784" unicode="G"/>
<glyph glyph-name="H" d="M90 0v700h123v-291h334v291h123v-700h-123v295h-334v-295h-123z" horiz-adv-x="760" unicode="H"/>
<glyph glyph-name="I" d="M97 0v700h123v-700h-123z" horiz-adv-x="317" unicode="I"/>
<glyph glyph-name="J" d="M245 -10c-108 0 -178 50 -224 113l81 83c41 -52 82 -82 141 -82c66 0 111 44 111 137v459h126v-462c0 -83 -24 -145 -65 -186s-100 -62 -170 -62z" horiz-adv-x="559" unicode="J"/>
<glyph glyph-name="K" d="M90 0v700h123v-352l333 352h151l-291 -301l304 -399h-149l-239 315l-109 -112v-203h-123z" horiz-adv-x="725" unicode="K"/>
<glyph glyph-name="L" d="M90 0v700h123v-588h368v-112h-491z" horiz-adv-x="619" unicode="L"/>
<glyph glyph-name="M" d="M90 0v700h131l213 -331l213 331h131v-700h-123v502l-221 -330h-4l-219 328v-500h-121z" horiz-adv-x="868" unicode="M"/>
<glyph glyph-name="N" d="M90 0v700h114l375 -484v484h121v-700h-103l-386 498v-498h-121z" horiz-adv-x="790" unicode="N"/>
<glyph glyph-name="O" d="M424 -12c-215 0 -365 163 -365 362c0 197 152 362 367 362s365 -163 365 -362c0 -197 -152 -362 -367 -362zM426 101c139 0 236 111 236 249c0 136 -99 249 -238 249s-236 -111 -236 -249c0 -136 99 -249 238 -249z" horiz-adv-x="850" unicode="O"/>
<glyph glyph-name="P" d="M90 0v700h276c163 0 266 -93 266 -236c0 -157 -126 -239 -280 -239h-139v-225h-123zM213 336h143c93 0 151 52 151 127c0 82 -59 125 -151 125h-143v-252z" horiz-adv-x="668" unicode="P"/>
<glyph glyph-name="Q" d="M721 -21l-84 75c-59 -42 -131 -66 -213 -66c-215 0 -365 163 -365 362c0 197 152 362 367 362s365 -163 365 -362c0 -79 -25 -154 -71 -215l80 -68zM426 101c46 0 87 13 120 34l-120 102l79 90l121 -110c24 37 36 82 36 133c0 136 -99 249 -238 249s-236 -111 -236 -249 c0 -136 99 -249 238 -249z" horiz-adv-x="850" unicode="Q"/>
<glyph glyph-name="R" d="M90 0v700h312c164 0 260 -88 260 -223c0 -115 -69 -184 -167 -212l189 -265h-145l-174 244h-152v-244h-123zM213 353h180c88 0 144 46 144 119c0 75 -54 116 -145 116h-179v-235z" horiz-adv-x="723" unicode="R"/>
<glyph glyph-name="S" d="M335 -10c-107 0 -208 37 -292 112l74 88c67 -58 134 -91 221 -91c76 0 124 35 124 90c0 50 -28 77 -158 108c-149 35 -233 79 -233 210c0 120 100 203 239 203c102 0 183 -31 254 -88l-66 -93c-63 47 -126 72 -190 72c-72 0 -114 -37 -114 -85c0 -54 32 -78 166 -110 c148 -36 225 -89 225 -207c0 -131 -103 -209 -250 -209z" horiz-adv-x="640" unicode="S"/>
<glyph glyph-name="T" d="M262 0v586h-222v114h568v-114h-222v-586h-124z" horiz-adv-x="648" unicode="T"/>
<glyph glyph-name="U" d="M377 -11c-182 0 -298 105 -298 308v403h123v-398c0 -130 67 -200 177 -200c109 0 176 66 176 195v403h123v-397c0 -209 -118 -314 -301 -314z" horiz-adv-x="757" unicode="U"/>
<glyph glyph-name="V" d="M321 -5l-291 705h136l211 -538l210 538h133l-291 -705h-108z" horiz-adv-x="750" unicode="V"/>
<glyph glyph-name="W" d="M280 -5l-244 705h133l167 -519l172 521h104l172 -521l167 519h129l-244 -705h-106l-172 503l-172 -503h-106z" horiz-adv-x="1116" unicode="W"/>
<glyph glyph-name="X" d="M37 0l255 356l-245 344h145l174 -251l175 251h141l-244 -342l254 -358h-145l-184 265l-185 -265h-141z" horiz-adv-x="729" unicode="X"/>
<glyph glyph-name="Y" d="M296 0v276l-278 424h145l196 -310l198 310h141l-278 -421v-279h-124z" horiz-adv-x="716" unicode="Y"/>
<glyph glyph-name="Z" d="M65 0v91l413 500h-400v109h560v-91l-413 -500h413v-109h-573z" horiz-adv-x="702" unicode="Z"/>
<glyph glyph-name="bracketleft" d="M88 -130v830h307v-95h-192v-640h192v-95h-307z" horiz-adv-x="454" unicode="["/>
<glyph glyph-name="backslash" d="M441 -128l-452 926h105l452 -926h-105z" horiz-adv-x="521" unicode="\"/>
<glyph glyph-name="bracketright" d="M59 -130v95h192v640h-192v95h308v-830h-308z" horiz-adv-x="454" unicode="]"/>
<glyph glyph-name="asciicircum" d="M56 493l151 208h86l151 -208h-93l-102 132l-102 -132h-91z" unicode="^"/>
<glyph glyph-name="underscore" d="M-2 -160v94h604v-94h-604z" horiz-adv-x="600" unicode="_"/>
<glyph glyph-name="grave" d="M246 595l-122 115l110 49l106 -164h-94z" unicode="`"/>
<glyph glyph-name="a" d="M519 0h-120v65c-36 -43 -91 -76 -171 -76c-100 0 -188 57 -188 165c0 117 91 173 214 173c64 0 105 -9 146 -22v10c0 73 -46 113 -130 113c-59 0 -103 -13 -151 -33l-33 97c58 26 115 44 201 44c156 0 232 -82 232 -223v-313zM402 191v30c-31 12 -74 21 -121 21 c-76 0 -121 -31 -121 -84c0 -50 45 -78 102 -78c80 0 140 45 140 111z" horiz-adv-x="587" unicode="a"/>
<glyph glyph-name="b" d="M376 -11c-87 0 -142 44 -179 93v-82h-121v730h121v-290c39 55 94 99 179 99c125 0 246 -99 246 -276c0 -175 -120 -274 -246 -274zM348 94c83 0 151 65 151 171c0 102 -69 169 -151 169s-154 -68 -154 -171c0 -102 72 -169 154 -169z" horiz-adv-x="670" unicode="b"/>
<glyph glyph-name="c" d="M320 -12c-157 0 -273 123 -273 275c0 150 116 276 274 276c100 0 162 -37 211 -91l-75 -81c-37 39 -76 66 -137 66c-88 0 -152 -76 -152 -170s65 -170 158 -170c57 0 99 27 137 66l73 -72c-52 -58 -113 -99 -216 -99z" horiz-adv-x="571" unicode="c"/>
<glyph glyph-name="d" d="M294 -11c-124 0 -245 99 -245 276c0 175 119 274 245 274c87 0 142 -44 180 -93v284h121v-730h-121v88c-39 -55 -94 -99 -180 -99zM323 94c81 0 153 68 153 171c0 102 -72 169 -153 169c-83 0 -152 -64 -152 -171c0 -102 70 -169 152 -169z" horiz-adv-x="670" unicode="d"/>
<glyph glyph-name="e" d="M318 -12c-153 0 -271 111 -271 276c0 151 107 275 258 275c168 0 253 -132 253 -284c0 -8 -1 -28 -2 -34h-388c13 -86 74 -134 152 -134c59 0 101 22 143 63l71 -63c-50 -60 -119 -99 -216 -99zM167 301h271c-8 78 -54 139 -134 139c-74 0 -126 -57 -137 -139z" horiz-adv-x="604" unicode="e"/>
<glyph glyph-name="f" d="M103 0v424h-67v101h67v38c0 59 15 103 43 131s67 42 119 42c42 0 71 -6 98 -14v-102c-24 8 -45 13 -71 13c-46 0 -70 -25 -70 -80v-29h140v-100h-138v-424h-121z" horiz-adv-x="376" unicode="f"/>
<glyph glyph-name="g" d="M311 -162c-87 0 -168 22 -236 63l45 91c56 -35 116 -56 188 -56c108 0 167 56 167 162v41c-44 -57 -99 -97 -186 -97c-124 0 -240 92 -240 249c0 156 117 248 240 248c89 0 144 -41 185 -90v79h121v-420c0 -89 -23 -155 -67 -199c-48 -48 -122 -71 -217 -71zM321 144 c84 0 155 60 155 147s-71 146 -155 146s-150 -58 -150 -147c0 -87 67 -146 150 -146z" horiz-adv-x="670" unicode="g"/>
<glyph glyph-name="h" d="M76 0v730h121v-284c34 50 83 93 165 93c119 0 188 -80 188 -203v-336h-121v300c0 82 -41 129 -113 129c-70 0 -119 -49 -119 -131v-298h-121z" horiz-adv-x="620" unicode="h"/>
<glyph glyph-name="i" d="M78 609v115h130v-115h-130zM83 0v528h121v-528h-121z" horiz-adv-x="286" unicode="i"/>
<glyph glyph-name="j" d="M78 609v115h130v-115h-130zM50 -163c-23 0 -39 2 -58 5v97c12 -2 23 -3 34 -3c34 0 57 18 57 64v528h121v-535c0 -107 -55 -156 -154 -156z" horiz-adv-x="286" unicode="j"/>
<glyph glyph-name="k" d="M76 0v730h121v-436l219 234h147l-210 -215l217 -313h-140l-159 228l-74 -77v-151h-121z" horiz-adv-x="582" unicode="k"/>
<glyph glyph-name="l" d="M83 0v730h121v-730h-121z" horiz-adv-x="286" unicode="l"/>
<glyph glyph-name="m" d="M76 0v528h121v-80c34 47 80 91 161 91c76 0 129 -37 157 -93c43 56 99 93 179 93c115 0 185 -73 185 -202v-337h-121v300c0 84 -39 129 -107 129c-66 0 -113 -46 -113 -131v-298h-121v301c0 82 -40 128 -107 128s-113 -50 -113 -132v-297h-121z" horiz-adv-x="950" unicode="m"/>
<glyph glyph-name="n" d="M76 0v528h121v-82c34 50 83 93 165 93c119 0 188 -80 188 -203v-336h-121v300c0 82 -41 129 -113 129c-70 0 -119 -49 -119 -131v-298h-121z" horiz-adv-x="620" unicode="n"/>
<glyph glyph-name="o" d="M327 -12c-161 0 -280 123 -280 275c0 151 120 276 282 276s281 -123 281 -276c0 -150 -120 -275 -283 -275zM329 93c98 0 160 77 160 170s-67 170 -162 170c-97 0 -159 -76 -159 -170c0 -92 67 -170 161 -170z" horiz-adv-x="657" unicode="o"/>
<glyph glyph-name="p" d="M76 -160v688h121v-88c39 55 94 99 179 99c125 0 246 -99 246 -276c0 -175 -120 -274 -246 -274c-87 0 -142 44 -179 93v-242h-121zM348 94c83 0 151 65 151 171c0 102 -69 169 -151 169s-154 -68 -154 -171c0 -102 72 -169 154 -169z" horiz-adv-x="670" unicode="p"/>
<glyph glyph-name="q" d="M474 -160v248c-39 -55 -94 -99 -180 -99c-124 0 -245 99 -245 276c0 175 119 274 245 274c87 0 142 -44 180 -93v82h121v-688h-121zM323 94c81 0 153 68 153 171c0 102 -72 169 -153 169c-83 0 -152 -64 -152 -171c0 -102 70 -169 152 -169z" horiz-adv-x="670" unicode="q"/>
<glyph glyph-name="r" d="M76 0v528h121v-119c33 79 94 133 187 129v-128h-7c-106 0 -180 -69 -180 -209v-201h-121z" horiz-adv-x="413" unicode="r"/>
<glyph glyph-name="s" d="M257 -10c-75 0 -158 27 -224 79l54 82c57 -43 119 -65 173 -65c52 0 82 22 82 59c0 39 -51 53 -109 70l-9 3c-78 23 -165 55 -165 158c0 100 83 161 188 161c66 0 138 -23 194 -60l-48 -86c-51 31 -105 50 -149 50c-47 0 -74 -22 -74 -55c0 -36 51 -52 109 -71 c3 -1 7 -2 10 -3c77 -24 164 -59 164 -156c0 -111 -86 -166 -196 -166z" unicode="s"/>
<glyph glyph-name="t" d="M253 -9c-89 0 -152 39 -152 155v278h-67v104h67v145h121v-145h142v-104h-142v-259c0 -47 24 -66 65 -66c27 0 51 6 75 18v-99c-30 -17 -64 -27 -109 -27z" horiz-adv-x="410" unicode="t"/>
<glyph glyph-name="u" d="M258 -11c-119 0 -188 80 -188 203v336h121v-300c0 -82 41 -129 113 -129c70 0 119 49 119 131v298h121v-528h-121v82c-34 -50 -83 -93 -165 -93z" horiz-adv-x="620" unicode="u"/>
<glyph glyph-name="v" d="M243 -4l-217 532h130l142 -388l143 388h127l-216 -532h-109z" horiz-adv-x="595" unicode="v"/>
<glyph glyph-name="w" d="M203 -4l-171 532h124l106 -362l117 364h103l118 -364l108 362h121l-173 -532h-108l-118 361l-119 -361h-108z" horiz-adv-x="861" unicode="w"/>
<glyph glyph-name="x" d="M30 0l194 268l-187 260h132l122 -174l122 174h129l-187 -257l195 -271h-132l-130 185l-129 -185h-129z" horiz-adv-x="580" unicode="x"/>
<glyph glyph-name="y" d="M184 -163c-51 0 -88 12 -125 32l41 90c22 -12 46 -20 71 -20c34 0 55 15 75 61l-220 528h129l150 -392l137 392h126l-210 -543c-42 -108 -89 -148 -174 -148z" horiz-adv-x="596" unicode="y"/>
<glyph glyph-name="z" d="M52 0v83l305 346h-294v99h448v-83l-305 -346h305v-99h-459z" horiz-adv-x="560" unicode="z"/>
<glyph glyph-name="braceleft" d="M416 -141c-182 33 -227 97 -227 200c0 15 2 55 2 72c0 78 -30 110 -113 110h-26v92h26c83 0 113 32 113 110c0 17 -2 57 -2 72c0 103 45 167 227 200l21 -80c-120 -33 -136 -64 -136 -137c0 -20 2 -53 2 -74c0 -78 -38 -116 -104 -137c67 -22 104 -59 104 -137 c0 -21 -2 -54 -2 -74c0 -73 16 -104 136 -137z" horiz-adv-x="487" unicode="{"/>
<glyph glyph-name="bar" d="M117 -128v926h97v-926h-97z" horiz-adv-x="331" unicode="|"/>
<glyph glyph-name="braceright" d="M71 -141l-21 80c120 33 136 64 136 137c0 20 -2 53 -2 74c0 78 38 116 104 137c-67 22 -104 59 -104 137c0 21 2 54 2 74c0 73 -16 104 -136 137l21 80c182 -33 227 -97 227 -200c0 -15 -2 -55 -2 -72c0 -78 30 -110 113 -110h26v-92h-26c-83 0 -113 -32 -113 -110 c0 -17 2 -57 2 -72c0 -103 -45 -167 -227 -200z" horiz-adv-x="487" unicode="}"/>
<glyph glyph-name="asciitilde" d="M126 229l-67 21c22 80 51 124 112 124c55 0 108 -40 143 -40c29 0 41 16 55 50l67 -20c-22 -81 -51 -125 -112 -125c-55 0 -108 40 -143 40c-29 0 -41 -16 -55 -50z" horiz-adv-x="495" unicode="~"/>
<glyph glyph-name="uni00A0" horiz-adv-x="300"/>
<glyph glyph-name="nbspace" horiz-adv-x="300" unicode=" "/>
<glyph glyph-name="exclamdown" d="M85 563v137h133v-137h-133zM80 0v35l38 444h67l37 -444v-35h-142z" horiz-adv-x="302" unicode="¡"/>
<glyph glyph-name="cent" d="M210 -6l20 102c-105 37 -178 139 -178 259c0 151 116 275 273 275h9l15 76h88l-18 -89c49 -15 86 -43 118 -78l-73 -78c-21 21 -44 39 -69 50l-65 -326c56 1 100 28 138 65l70 -69c-52 -59 -118 -101 -217 -101h-6l-17 -86h-88zM255 202l63 323 c-85 -2 -148 -76 -148 -170c0 -67 32 -125 85 -153z" horiz-adv-x="581" unicode="¢"/>
<glyph glyph-name="sterling" d="M63 0v78l79 24v176h-79v104h79v92c0 145 84 236 230 236c111 0 173 -49 221 -112l-94 -75c-36 46 -70 73 -126 73c-66 0 -107 -48 -107 -125v-89h249v-104h-249v-171h325v-107h-528z" horiz-adv-x="644" unicode="£"/>
<glyph glyph-name="currency" d="M434 -12c-148 0 -253 96 -291 237h-91v85h77c-1 13 -1 25 -1 40s0 31 2 45h-78v85h94c40 135 143 232 284 232c122 0 191 -56 244 -132l-93 -69c-43 59 -84 91 -154 91c-71 0 -126 -47 -154 -122h215v-85h-234c-1 -13 -2 -28 -2 -45c0 -14 1 -27 2 -40h234v-85h-216 c27 -78 85 -127 163 -127c67 0 107 35 153 95l88 -64c-57 -83 -128 -141 -242 -141z" horiz-adv-x="720" unicode="¤"/>
<glyph glyph-name="yen" d="M284 0v102h-193v89h193v73h-193v89h159l-231 347h143l183 -293l183 293h139l-232 -347h160v-89h-193v-73h193v-89h-193v-102h-118z" horiz-adv-x="686" unicode="¥"/>
<glyph glyph-name="brokenbar" d="M53 -89v250h114v-250h-114zM53 411v250h114v-250h-114z" horiz-adv-x="222" unicode="¦"/>
<glyph glyph-name="section" d="M326 -10c-98 0 -175 36 -231 95l69 68c46 -43 98 -71 161 -71c55 0 81 21 81 51c0 29 -29 47 -132 70c-155 35 -216 74 -216 148c0 65 46 100 107 116c-36 23 -55 57 -55 97c0 89 74 146 196 146c98 0 175 -36 231 -95l-69 -68c-46 43 -98 71 -161 71 c-53 0 -81 -20 -81 -51c0 -27 24 -45 132 -70c155 -35 216 -73 216 -148c0 -64 -46 -100 -107 -116c35 -21 55 -57 55 -97c0 -88 -73 -146 -196 -146zM388 278c45 0 77 23 77 56c0 29 -32 49 -117 70c-51 13 -81 18 -104 18c-45 0 -77 -23 -77 -56c0 -29 32 -49 117 -70 c51 -13 81 -18 104 -18z" horiz-adv-x="632" unicode="§"/>
<glyph glyph-name="dieresis" d="M288 595v118h123v-118h-123zM89 595v118h123v-118h-123z" unicode="¨"/>
<glyph glyph-name="copyright" d="M414 -12c-203 0 -361 163 -361 362c0 197 160 362 363 362s361 -163 361 -362c0 -197 -160 -362 -363 -362zM414 24c185 0 325 147 325 328c0 179 -139 324 -323 324c-185 0 -325 -147 -325 -328c0 -179 139 -324 323 -324zM419 159c-110 0 -192 86 -192 196 c0 107 81 196 194 196c71 0 113 -24 149 -59l-47 -54c-29 26 -62 45 -102 45c-68 0 -118 -57 -118 -129c0 -69 50 -127 118 -127c45 0 73 18 104 47l48 -47c-40 -42 -83 -68 -154 -68z" horiz-adv-x="830" unicode="©"/>
<glyph glyph-name="ordfeminine" d="M159 403c-55 0 -103 31 -103 92c0 62 50 93 120 93c32 0 54 -5 76 -11v5c0 39 -25 61 -70 61c-31 0 -55 -8 -83 -19l-19 54c34 16 64 25 111 25c89 0 128 -47 128 -122v-172h-68v34c-21 -24 -50 -40 -92 -40zM53 282v58h270v-58h-270zM177 454c43 0 75 25 75 60v18 c-17 6 -37 11 -63 11c-40 0 -64 -17 -64 -47c0 -26 22 -42 52 -42z" horiz-adv-x="390" unicode="ª"/>
<glyph glyph-name="guillemotleft" d="M461 41l-165 219v8l165 220l92 -47l-132 -176l132 -177zM210 41l-166 219v8l166 220l92 -47l-132 -176l132 -177z" horiz-adv-x="606" unicode="«"/>
<glyph glyph-name="logicalnot" d="M441 246v173h-359v111h473v-284h-114z" horiz-adv-x="640" unicode="¬"/>
<glyph glyph-name="uni00AD" d="M56 247v119h296v-119h-296z" horiz-adv-x="408" unicode="­"/>
<glyph glyph-name="registered" d="M414 -12c-203 0 -361 163 -361 362c0 197 160 362 363 362s361 -163 361 -362c0 -197 -160 -362 -363 -362zM414 24c185 0 325 147 325 328c0 179 -139 324 -323 324c-185 0 -325 -147 -325 -328c0 -179 139 -324 323 -324zM269 171v379h169c50 0 89 -15 115 -41 c20 -19 31 -46 31 -81c0 -61 -36 -99 -88 -114l102 -143h-86l-94 131h-77v-131h-72zM341 365h94c47 0 75 23 75 61s-28 59 -75 59h-94v-120z" horiz-adv-x="830" unicode="®"/>
<glyph glyph-name="macron" d="M79 600v89h342v-89h-342z" unicode="¯"/>
<glyph glyph-name="degree" d="M235 381c-87 0 -166 75 -166 162v2c0 87 79 161 166 161c88 0 167 -74 167 -161v-2c0 -87 -79 -162 -167 -162zM235 447c55 0 95 45 95 96v2c0 51 -40 95 -95 95c-54 0 -94 -44 -94 -95v-2c0 -51 40 -96 94 -96z" horiz-adv-x="471" unicode="°"/>
<glyph glyph-name="plusminus" d="M75 16v104h490v-104h-490zM263 176v153h-194v109h194v152h114v-152h192v-109h-192v-153h-114z" horiz-adv-x="640" unicode="±"/>
<glyph glyph-name="twosuperior" d="M0 0v700h500v-700h-500zM81 49h339l-170 255zM49 96l171 254l-171 254v-508zM450 96v508l-171 -254zM250 395l170 255h-339z" unicode="²"/>
<glyph glyph-name="threesuperior" d="M0 0v700h500v-700h-500zM81 49h339l-170 255zM49 96l171 254l-171 254v-508zM450 96v508l-171 -254zM250 395l170 255h-339z" unicode="³"/>
<glyph glyph-name="acute" d="M160 595l106 164l110 -49l-122 -115h-94z" unicode="´"/>
<glyph glyph-name="mu" d="M75 -160v688h121v-302c0 -72 46 -131 113 -131c72 0 122 54 122 136v297h121v-528h-121v83c-30 -49 -80 -89 -152 -89c-43 0 -70 17 -83 36v-190h-121z" horiz-adv-x="628" unicode="µ"/>
<glyph glyph-name="paragraph" d="M346 0v244h-18c-164 0 -288 78 -288 229c0 142 111 227 271 227h159v-700h-124z" horiz-adv-x="557" unicode="¶"/>
<glyph glyph-name="periodcentered" d="M68 238v137h133v-137h-133z" horiz-adv-x="269" unicode="·"/>
<glyph glyph-name="cedilla" d="M237 -165l-106 44l90 131h91z" unicode="¸"/>
<glyph glyph-name="onesuperior" d="M0 0v700h500v-700h-500zM81 49h339l-170 255zM49 96l171 254l-171 254v-508zM450 96v508l-171 -254zM250 395l170 255h-339z" unicode="¹"/>
<glyph glyph-name="ordmasculine" d="M194 402c-86 0 -150 67 -150 152c0 83 65 151 152 151c86 0 150 -67 150 -152c0 -83 -65 -151 -152 -151zM51 282v58h288v-58h-288zM196 464c49 0 80 40 80 90c0 48 -34 89 -82 89c-49 0 -80 -40 -80 -90c0 -48 34 -89 82 -89z" horiz-adv-x="390" unicode="º"/>
<glyph glyph-name="guillemotright" d="M396 41l-92 46l132 176l-132 177l92 48l166 -220v-8zM145 41l-92 46l132 176l-132 177l92 48l165 -220v-8z" horiz-adv-x="606" unicode="»"/>
<glyph glyph-name="onequarter" d="M0 0v700h500v-700h-500zM81 49h339l-170 255zM49 96l171 254l-171 254v-508zM450 96v508l-171 -254zM250 395l170 255h-339z" unicode="¼"/>
<glyph glyph-name="onehalf" d="M0 0v700h500v-700h-500zM81 49h339l-170 255zM49 96l171 254l-171 254v-508zM450 96v508l-171 -254zM250 395l170 255h-339z" unicode="½"/>
<glyph glyph-name="threequarters" d="M0 0v700h500v-700h-500zM81 49h339l-170 255zM49 96l171 254l-171 254v-508zM450 96v508l-171 -254zM250 395l170 255h-339z" unicode="¾"/>
<glyph glyph-name="questiondown" d="M229 563v137h134v-137h-134zM276 -9c-140 0 -234 78 -234 205c0 126 90 183 201 202l10 81h81l20 -162l-5 -5c-127 -5 -185 -46 -185 -114c0 -56 43 -95 115 -95c63 0 115 28 163 79l75 -80c-58 -66 -133 -111 -241 -111z" horiz-adv-x="541" unicode="¿"/>
<glyph glyph-name="Agrave" d="M30 0l308 705h114l308 -705h-130l-71 169h-331l-72 -169h-126zM273 278h241l-121 280zM351 758l-122 115l110 49l106 -164h-94z" horiz-adv-x="790" unicode="À"/>
<glyph glyph-name="Aacute" d="M30 0l308 705h114l308 -705h-130l-71 169h-331l-72 -169h-126zM273 278h241l-121 280zM345 758l106 164l110 -49l-122 -115h-94z" horiz-adv-x="790" unicode="Á"/>
<glyph glyph-name="Acircumflex" d="M30 0l308 705h114l308 -705h-130l-71 169h-331l-72 -169h-126zM273 278h241l-121 280zM223 757l116 146h112l116 -146h-96l-77 67l-77 -67h-94z" horiz-adv-x="790" unicode="Â"/>
<glyph glyph-name="Atilde" d="M30 0l308 705h114l308 -705h-130l-71 169h-331l-72 -169h-126zM273 278h241l-121 280zM273 748l-67 20c22 81 51 125 112 125c55 0 108 -40 144 -40c29 0 40 16 55 50l67 -21c-22 -80 -51 -124 -112 -124c-55 0 -108 40 -144 40c-29 0 -40 -16 -55 -50z" horiz-adv-x="790" unicode="Ã"/>
<glyph glyph-name="Adieresis" d="M30 0l308 705h114l308 -705h-130l-71 169h-331l-72 -169h-126zM273 278h241l-121 280zM433 758v118h123v-118h-123zM234 758v118h123v-118h-123z" horiz-adv-x="790" unicode="Ä"/>
<glyph glyph-name="Aring" d="M30 0l298 684c-27 20 -47 51 -47 89c0 59 54 109 114 109s114 -50 114 -111c0 -36 -20 -67 -47 -87l298 -684h-130l-71 169h-331l-72 -169h-126zM395 710c34 0 62 28 62 63c0 33 -28 61 -62 61s-62 -28 -62 -63c0 -33 28 -61 62 -61zM273 278h241l-121 280z" horiz-adv-x="790" unicode="Å"/>
<glyph glyph-name="AE" d="M12 0l391 700h581v-110h-374v-182h329v-110h-329v-188h379v-110h-502v169h-255l-93 -169h-127zM291 278h196v315h-20z" horiz-adv-x="1045" unicode="Æ"/>
<glyph glyph-name="Ccedilla" d="M371 -165l-105 44l79 116c-168 31 -286 176 -286 355c0 199 149 362 361 362c129 0 207 -45 274 -109l-79 -91c-56 52 -116 87 -196 87c-134 0 -231 -110 -231 -249c0 -137 97 -249 231 -249c86 0 141 35 201 91l79 -80c-68 -71 -143 -118 -262 -123z" horiz-adv-x="738" unicode="Ç"/>
<glyph glyph-name="Egrave" d="M90 0v700h519v-110h-396v-182h351v-110h-351v-188h401v-110h-524zM327 758l-122 115l110 49l106 -164h-94z" horiz-adv-x="670" unicode="È"/>
<glyph glyph-name="Eacute" d="M90 0v700h519v-110h-396v-182h351v-110h-351v-188h401v-110h-524zM277 758l106 164l110 -49l-122 -115h-94z" horiz-adv-x="670" unicode="É"/>
<glyph glyph-name="Ecircumflex" d="M90 0v700h519v-110h-396v-182h351v-110h-351v-188h401v-110h-524zM175 758l116 146h112l116 -146h-96l-77 67l-77 -67h-94z" horiz-adv-x="670" unicode="Ê"/>
<glyph glyph-name="Edieresis" d="M90 0v700h519v-110h-396v-182h351v-110h-351v-188h401v-110h-524zM385 758v118h123v-118h-123zM186 758v118h123v-118h-123z" horiz-adv-x="670" unicode="Ë"/>
<glyph glyph-name="Igrave" d="M97 0v700h123v-700h-123zM116 758l-122 115l110 49l106 -164h-94z" horiz-adv-x="317" unicode="Ì"/>
<glyph glyph-name="Iacute" d="M97 0v700h123v-700h-123zM108 758l106 164l110 -49l-122 -115h-94z" horiz-adv-x="317" unicode="Í"/>
<glyph glyph-name="Icircumflex" d="M97 0v700h123v-700h-123zM-13 758l116 146h112l116 -146h-96l-77 67l-77 -67h-94z" horiz-adv-x="317" unicode="Î"/>
<glyph glyph-name="Idieresis" d="M97 0v700h123v-700h-123zM197 758v118h123v-118h-123zM-2 758v118h123v-118h-123z" horiz-adv-x="317" unicode="Ï"/>
<glyph glyph-name="Eth" d="M120 0v297h-75v110h75v293h261c220 0 372 -151 372 -350c0 -197 -152 -350 -372 -350h-261zM242 112h139c147 0 243 99 243 238c0 137 -96 238 -243 238h-139v-181h176v-110h-176v-185z" horiz-adv-x="812" unicode="Ð"/>
<glyph glyph-name="Ntilde" d="M90 0v700h114l375 -484v484h121v-700h-103l-386 498v-498h-121zM273 748l-67 20c22 81 51 125 112 125c55 0 108 -40 144 -40c29 0 40 16 55 50l67 -21c-22 -80 -51 -124 -112 -124c-55 0 -108 40 -144 40c-29 0 -40 -16 -55 -50z" horiz-adv-x="790" unicode="Ñ"/>
<glyph glyph-name="Ograve" d="M424 -12c-215 0 -365 163 -365 362c0 197 152 362 367 362s365 -163 365 -362c0 -197 -152 -362 -367 -362zM426 101c139 0 236 111 236 249c0 136 -99 249 -238 249s-236 -111 -236 -249c0 -136 99 -249 238 -249zM374 758l-122 115l110 49l106 -164h-94z" horiz-adv-x="850" unicode="Ò"/>
<glyph glyph-name="Oacute" d="M424 -12c-215 0 -365 163 -365 362c0 197 152 362 367 362s365 -163 365 -362c0 -197 -152 -362 -367 -362zM426 101c139 0 236 111 236 249c0 136 -99 249 -238 249s-236 -111 -236 -249c0 -136 99 -249 238 -249zM382 758l106 164l110 -49l-122 -115h-94z" horiz-adv-x="850" unicode="Ó"/>
<glyph glyph-name="Ocircumflex" d="M424 -12c-215 0 -365 163 -365 362c0 197 152 362 367 362s365 -163 365 -362c0 -197 -152 -362 -367 -362zM426 101c139 0 236 111 236 249c0 136 -99 249 -238 249s-236 -111 -236 -249c0 -136 99 -249 238 -249zM253 758l116 146h112l116 -146h-96l-77 67l-77 -67h-94 z" horiz-adv-x="850" unicode="Ô"/>
<glyph glyph-name="Otilde" d="M424 -12c-215 0 -365 163 -365 362c0 197 152 362 367 362s365 -163 365 -362c0 -197 -152 -362 -367 -362zM426 101c139 0 236 111 236 249c0 136 -99 249 -238 249s-236 -111 -236 -249c0 -136 99 -249 238 -249zM303 748l-67 20c22 81 51 125 112 125 c55 0 108 -40 144 -40c29 0 40 16 55 50l67 -21c-22 -80 -51 -124 -112 -124c-55 0 -108 40 -144 40c-29 0 -40 -16 -55 -50z" horiz-adv-x="850" unicode="Õ"/>
<glyph glyph-name="Odieresis" d="M424 -12c-215 0 -365 163 -365 362c0 197 152 362 367 362s365 -163 365 -362c0 -197 -152 -362 -367 -362zM426 101c139 0 236 111 236 249c0 136 -99 249 -238 249s-236 -111 -236 -249c0 -136 99 -249 238 -249zM463 758v118h123v-118h-123zM264 758v118h123v-118 h-123z" horiz-adv-x="850" unicode="Ö"/>
<glyph glyph-name="multiply" d="M145 91l-79 78l174 175l-174 174l79 79l174 -175l174 175l79 -79l-175 -174l175 -175l-79 -78l-174 174z" horiz-adv-x="640" unicode="×"/>
<glyph glyph-name="Oslash" d="M424 -12c-78 0 -147 22 -204 60l-48 -53h-121l99 111c-58 64 -91 150 -91 244c0 197 152 362 367 362c78 0 147 -22 204 -60l48 53h121l-99 -112c58 -63 91 -149 91 -243c0 -197 -152 -362 -367 -362zM232 201l320 360c-35 25 -79 40 -128 40c-139 0 -238 -112 -238 -251 c0 -56 16 -107 46 -149zM426 99c139 0 238 112 238 251c0 56 -16 107 -46 149l-320 -360c35 -25 79 -40 128 -40z" horiz-adv-x="850" unicode="Ø"/>
<glyph glyph-name="Ugrave" d="M377 -11c-182 0 -298 105 -298 308v403h123v-398c0 -130 67 -200 177 -200c109 0 176 66 176 195v403h123v-397c0 -209 -118 -314 -301 -314zM341 753l-122 115l110 49l106 -164h-94z" horiz-adv-x="757" unicode="Ù"/>
<glyph glyph-name="Uacute" d="M377 -11c-182 0 -298 105 -298 308v403h123v-398c0 -130 67 -200 177 -200c109 0 176 66 176 195v403h123v-397c0 -209 -118 -314 -301 -314zM322 753l106 164l110 -49l-122 -115h-94z" horiz-adv-x="757" unicode="Ú"/>
<glyph glyph-name="Ucircumflex" d="M377 -11c-182 0 -298 105 -298 308v403h123v-398c0 -130 67 -200 177 -200c109 0 176 66 176 195v403h123v-397c0 -209 -118 -314 -301 -314zM207 757l116 146h112l116 -146h-96l-77 67l-77 -67h-94z" horiz-adv-x="757" unicode="Û"/>
<glyph glyph-name="Udieresis" d="M377 -11c-182 0 -298 105 -298 308v403h123v-398c0 -130 67 -200 177 -200c109 0 176 66 176 195v403h123v-397c0 -209 -118 -314 -301 -314zM417 757v118h123v-118h-123zM218 757v118h123v-118h-123z" horiz-adv-x="757" unicode="Ü"/>
<glyph glyph-name="Yacute" d="M296 0v276l-278 424h145l196 -310l198 310h141l-278 -421v-279h-124zM311 753l106 164l110 -49l-122 -115h-94z" horiz-adv-x="716" unicode="Ý"/>
<glyph glyph-name="Thorn" d="M90 0v700h123v-110h153c163 0 266 -93 266 -235c0 -158 -126 -239 -280 -239h-139v-116h-123zM213 226h143c93 0 151 53 151 128c0 82 -59 125 -151 125h-143v-253z" horiz-adv-x="673" unicode="Þ"/>
<glyph glyph-name="germandbls" d="M296 -2v93c97 3 154 40 154 110c0 65 -63 103 -154 114v82c64 31 113 73 113 141c0 58 -40 96 -101 96c-66 0 -112 -50 -112 -128v-506h-120v502c0 145 92 235 238 235c136 0 215 -83 215 -190c0 -90 -52 -139 -110 -171c78 -26 152 -78 152 -180 c0 -125 -100 -198 -259 -198h-16z" horiz-adv-x="620" unicode="ß"/>
<glyph glyph-name="agrave" d="M519 0h-120v65c-36 -43 -91 -76 -171 -76c-100 0 -188 57 -188 165c0 117 91 173 214 173c64 0 105 -9 146 -22v10c0 73 -46 113 -130 113c-59 0 -103 -13 -151 -33l-33 97c58 26 115 44 201 44c156 0 232 -82 232 -223v-313zM402 191v30c-31 12 -74 21 -121 21 c-76 0 -121 -31 -121 -84c0 -50 45 -78 102 -78c80 0 140 45 140 111zM257 595l-122 115l110 49l106 -164h-94z" horiz-adv-x="587" unicode="à"/>
<glyph glyph-name="aacute" d="M519 0h-120v65c-36 -43 -91 -76 -171 -76c-100 0 -188 57 -188 165c0 117 91 173 214 173c64 0 105 -9 146 -22v10c0 73 -46 113 -130 113c-59 0 -103 -13 -151 -33l-33 97c58 26 115 44 201 44c156 0 232 -82 232 -223v-313zM402 191v30c-31 12 -74 21 -121 21 c-76 0 -121 -31 -121 -84c0 -50 45 -78 102 -78c80 0 140 45 140 111zM235 595l106 164l110 -49l-122 -115h-94z" horiz-adv-x="587" unicode="á"/>
<glyph glyph-name="acircumflex" d="M519 0h-120v65c-36 -43 -91 -76 -171 -76c-100 0 -188 57 -188 165c0 117 91 173 214 173c64 0 105 -9 146 -22v10c0 73 -46 113 -130 113c-59 0 -103 -13 -151 -33l-33 97c58 26 115 44 201 44c156 0 232 -82 232 -223v-313zM402 191v30c-31 12 -74 21 -121 21 c-76 0 -121 -31 -121 -84c0 -50 45 -78 102 -78c80 0 140 45 140 111zM121 595l116 146h112l116 -146h-96l-77 67l-77 -67h-94z" horiz-adv-x="587" unicode="â"/>
<glyph glyph-name="atilde" d="M519 0h-120v65c-36 -43 -91 -76 -171 -76c-100 0 -188 57 -188 165c0 117 91 173 214 173c64 0 105 -9 146 -22v10c0 73 -46 113 -130 113c-59 0 -103 -13 -151 -33l-33 97c58 26 115 44 201 44c156 0 232 -82 232 -223v-313zM402 191v30c-31 12 -74 21 -121 21 c-76 0 -121 -31 -121 -84c0 -50 45 -78 102 -78c80 0 140 45 140 111zM172 585l-67 20c22 81 51 125 112 125c55 0 108 -40 144 -40c29 0 40 16 55 50l67 -21c-22 -80 -51 -124 -112 -124c-55 0 -108 40 -144 40c-29 0 -40 -16 -55 -50z" horiz-adv-x="587" unicode="ã"/>
<glyph glyph-name="adieresis" d="M519 0h-120v65c-36 -43 -91 -76 -171 -76c-100 0 -188 57 -188 165c0 117 91 173 214 173c64 0 105 -9 146 -22v10c0 73 -46 113 -130 113c-59 0 -103 -13 -151 -33l-33 97c58 26 115 44 201 44c156 0 232 -82 232 -223v-313zM402 191v30c-31 12 -74 21 -121 21 c-76 0 -121 -31 -121 -84c0 -50 45 -78 102 -78c80 0 140 45 140 111zM331 595v118h123v-118h-123zM132 595v118h123v-118h-123z" horiz-adv-x="587" unicode="ä"/>
<glyph glyph-name="aring" d="M519 0h-120v65c-36 -43 -91 -76 -171 -76c-100 0 -188 57 -188 165c0 117 91 173 214 173c64 0 105 -9 146 -22v10c0 73 -46 113 -130 113c-59 0 -103 -13 -151 -33l-33 97c58 26 115 44 201 44c156 0 232 -82 232 -223v-313zM402 191v30c-31 12 -74 21 -121 21 c-76 0 -121 -31 -121 -84c0 -50 45 -78 102 -78c80 0 140 45 140 111zM293 593c-60 0 -114 50 -114 111c0 59 54 109 114 109s114 -50 114 -111c0 -59 -54 -109 -114 -109zM293 641c34 0 62 28 62 63c0 33 -28 61 -62 61s-62 -28 -62 -63c0 -33 28 -61 62 -61z" horiz-adv-x="587" unicode="å"/>
<glyph glyph-name="ae" d="M240 -11c-110 0 -200 57 -200 165c0 117 91 173 212 173c66 0 104 -9 145 -22v10c0 75 -43 113 -129 113c-57 0 -101 -13 -149 -33l-33 97c58 26 115 44 199 44c86 0 153 -31 185 -87c42 55 107 90 185 90c165 0 250 -132 250 -284c0 -11 0 -22 -1 -34h-388 c14 -86 74 -134 151 -134c60 0 102 22 144 63l71 -63c-51 -60 -119 -99 -217 -99c-82 0 -156 34 -204 90c-59 -49 -132 -89 -221 -89zM514 301h272c-8 78 -54 139 -134 139c-75 0 -127 -57 -138 -139zM260 80c58 0 110 25 156 68c-9 23 -16 48 -19 76c-31 11 -69 18 -118 18 c-74 0 -119 -31 -119 -84c0 -50 44 -78 100 -78z" horiz-adv-x="952" unicode="æ"/>
<glyph glyph-name="ccedilla" d="M276 -165l-106 44l80 118c-120 30 -203 137 -203 266c0 150 116 276 274 276c100 0 162 -37 211 -91l-75 -81c-37 39 -76 66 -137 66c-88 0 -152 -76 -152 -170s65 -170 158 -170c57 0 99 27 137 66l73 -72c-49 -53 -104 -93 -195 -98z" horiz-adv-x="571" unicode="ç"/>
<glyph glyph-name="egrave" d="M318 -12c-153 0 -271 111 -271 276c0 151 107 275 258 275c168 0 253 -132 253 -284c0 -8 -1 -28 -2 -34h-388c13 -86 74 -134 152 -134c59 0 101 22 143 63l71 -63c-50 -60 -119 -99 -216 -99zM167 301h271c-8 78 -54 139 -134 139c-74 0 -126 -57 -137 -139zM261 595 l-122 115l110 49l106 -164h-94z" horiz-adv-x="604" unicode="è"/>
<glyph glyph-name="eacute" d="M318 -12c-153 0 -271 111 -271 276c0 151 107 275 258 275c168 0 253 -132 253 -284c0 -8 -1 -28 -2 -34h-388c13 -86 74 -134 152 -134c59 0 101 22 143 63l71 -63c-50 -60 -119 -99 -216 -99zM167 301h271c-8 78 -54 139 -134 139c-74 0 -126 -57 -137 -139zM249 595 l106 164l110 -49l-122 -115h-94z" horiz-adv-x="604" unicode="é"/>
<glyph glyph-name="ecircumflex" d="M318 -12c-153 0 -271 111 -271 276c0 151 107 275 258 275c168 0 253 -132 253 -284c0 -8 -1 -28 -2 -34h-388c13 -86 74 -134 152 -134c59 0 101 22 143 63l71 -63c-50 -60 -119 -99 -216 -99zM167 301h271c-8 78 -54 139 -134 139c-74 0 -126 -57 -137 -139zM131 595 l116 146h112l116 -146h-96l-77 67l-77 -67h-94z" horiz-adv-x="604" unicode="ê"/>
<glyph glyph-name="edieresis" d="M318 -12c-153 0 -271 111 -271 276c0 151 107 275 258 275c168 0 253 -132 253 -284c0 -8 -1 -28 -2 -34h-388c13 -86 74 -134 152 -134c59 0 101 22 143 63l71 -63c-50 -60 -119 -99 -216 -99zM167 301h271c-8 78 -54 139 -134 139c-74 0 -126 -57 -137 -139zM341 595 v118h123v-118h-123zM142 595v118h123v-118h-123z" horiz-adv-x="604" unicode="ë"/>
<glyph glyph-name="igrave" d="M83 0v528h121v-528h-121zM101 595l-122 115l110 49l106 -164h-94z" horiz-adv-x="286" unicode="ì"/>
<glyph glyph-name="iacute" d="M83 0v528h121v-528h-121zM91 595l106 164l110 -49l-122 -115h-94z" horiz-adv-x="286" unicode="í"/>
<glyph glyph-name="icircumflex" d="M83 0v528h121v-528h-121zM-29 595l116 146h112l116 -146h-96l-77 67l-77 -67h-94z" horiz-adv-x="286" unicode="î"/>
<glyph glyph-name="idieresis" d="M83 0v528h121v-528h-121zM181 595v118h123v-118h-123zM-18 595v118h123v-118h-123z" horiz-adv-x="286" unicode="ï"/>
<glyph glyph-name="eth" d="M316 -12c-155 0 -269 116 -269 262c0 140 101 236 232 236c57 0 96 -15 139 -41l-105 143l-119 -53l-48 63l121 53l-58 79h139l24 -35l99 43l47 -63l-102 -44l89 -129c59 -85 88 -154 88 -245c0 -144 -104 -269 -277 -269zM321 91c93 0 153 70 153 156 c0 83 -64 150 -157 150c-92 0 -151 -65 -151 -152c0 -83 64 -154 155 -154z" horiz-adv-x="642" unicode="ð"/>
<glyph glyph-name="ntilde" d="M76 0v528h121v-82c34 50 83 93 165 93c119 0 188 -80 188 -203v-336h-121v300c0 82 -41 129 -113 129c-70 0 -119 -49 -119 -131v-298h-121zM192 585l-67 20c22 81 51 125 112 125c55 0 108 -40 144 -40c29 0 40 16 55 50l67 -21c-22 -80 -51 -124 -112 -124 c-55 0 -108 40 -144 40c-29 0 -40 -16 -55 -50z" horiz-adv-x="620" unicode="ñ"/>
<glyph glyph-name="ograve" d="M327 -12c-161 0 -280 123 -280 275c0 151 120 276 282 276s281 -123 281 -276c0 -150 -120 -275 -283 -275zM329 93c98 0 160 77 160 170s-67 170 -162 170c-97 0 -159 -76 -159 -170c0 -92 67 -170 161 -170zM281 595l-122 115l110 49l106 -164h-94z" horiz-adv-x="657" unicode="ò"/>
<glyph glyph-name="oacute" d="M327 -12c-161 0 -280 123 -280 275c0 151 120 276 282 276s281 -123 281 -276c0 -150 -120 -275 -283 -275zM329 93c98 0 160 77 160 170s-67 170 -162 170c-97 0 -159 -76 -159 -170c0 -92 67 -170 161 -170zM281 595l106 164l110 -49l-122 -115h-94z" horiz-adv-x="657" unicode="ó"/>
<glyph glyph-name="ocircumflex" d="M327 -12c-161 0 -280 123 -280 275c0 151 120 276 282 276s281 -123 281 -276c0 -150 -120 -275 -283 -275zM329 93c98 0 160 77 160 170s-67 170 -162 170c-97 0 -159 -76 -159 -170c0 -92 67 -170 161 -170zM156 595l116 146h112l116 -146h-96l-77 67l-77 -67h-94z" horiz-adv-x="657" unicode="ô"/>
<glyph glyph-name="otilde" d="M327 -12c-161 0 -280 123 -280 275c0 151 120 276 282 276s281 -123 281 -276c0 -150 -120 -275 -283 -275zM329 93c98 0 160 77 160 170s-67 170 -162 170c-97 0 -159 -76 -159 -170c0 -92 67 -170 161 -170zM206 585l-67 20c22 81 51 125 112 125c55 0 108 -40 144 -40 c29 0 40 16 55 50l67 -21c-22 -80 -51 -124 -112 -124c-55 0 -108 40 -144 40c-29 0 -40 -16 -55 -50z" horiz-adv-x="657" unicode="õ"/>
<glyph glyph-name="odieresis" d="M327 -12c-161 0 -280 123 -280 275c0 151 120 276 282 276s281 -123 281 -276c0 -150 -120 -275 -283 -275zM329 93c98 0 160 77 160 170s-67 170 -162 170c-97 0 -159 -76 -159 -170c0 -92 67 -170 161 -170zM366 595v118h123v-118h-123zM167 595v118h123v-118h-123z " horiz-adv-x="657" unicode="ö"/>
<glyph glyph-name="divide" d="M83 299v111h473v-111h-473zM256 497v131h124v-131h-124zM256 80v131h124v-131h-124z" horiz-adv-x="640" unicode="÷"/>
<glyph glyph-name="oslash" d="M327 -12c-56 0 -108 16 -151 43l-34 -36h-110l80 89c-41 48 -65 110 -65 179c0 151 120 276 282 276c57 0 109 -16 151 -43l35 38h110s-51 -57 -81 -91c42 -47 66 -109 66 -180c0 -150 -120 -275 -283 -275zM190 172l218 240c-23 15 -50 24 -81 24 c-99 0 -162 -78 -162 -173c0 -33 9 -65 25 -91zM329 91c100 0 163 78 163 172c0 34 -10 66 -25 92l-219 -241c23 -15 51 -23 81 -23z" horiz-adv-x="657" unicode="ø"/>
<glyph glyph-name="ugrave" d="M258 -11c-119 0 -188 80 -188 203v336h121v-300c0 -82 41 -129 113 -129c70 0 119 49 119 131v298h121v-528h-121v82c-34 -50 -83 -93 -165 -93zM275 594l-122 115l110 49l106 -164h-94z" horiz-adv-x="620" unicode="ù"/>
<glyph glyph-name="uacute" d="M258 -11c-119 0 -188 80 -188 203v336h121v-300c0 -82 41 -129 113 -129c70 0 119 49 119 131v298h121v-528h-121v82c-34 -50 -83 -93 -165 -93zM249 594l106 164l110 -49l-122 -115h-94z" horiz-adv-x="620" unicode="ú"/>
<glyph glyph-name="ucircumflex" d="M258 -11c-119 0 -188 80 -188 203v336h121v-300c0 -82 41 -129 113 -129c70 0 119 49 119 131v298h121v-528h-121v82c-34 -50 -83 -93 -165 -93zM138 595l116 146h112l116 -146h-96l-77 67l-77 -67h-94z" horiz-adv-x="620" unicode="û"/>
<glyph glyph-name="udieresis" d="M258 -11c-119 0 -188 80 -188 203v336h121v-300c0 -82 41 -129 113 -129c70 0 119 49 119 131v298h121v-528h-121v82c-34 -50 -83 -93 -165 -93zM348 595v118h123v-118h-123zM149 595v118h123v-118h-123z" horiz-adv-x="620" unicode="ü"/>
<glyph glyph-name="yacute" d="M184 -163c-51 0 -88 12 -125 32l41 90c22 -12 46 -20 71 -20c34 0 55 15 75 61l-220 528h129l150 -392l137 392h126l-210 -543c-42 -108 -89 -148 -174 -148zM244 594l106 164l110 -49l-122 -115h-94z" horiz-adv-x="596" unicode="ý"/>
<glyph glyph-name="thorn" d="M76 -160v890h121v-290c39 55 94 99 179 99c125 0 246 -99 246 -276c0 -175 -120 -274 -246 -274c-87 0 -142 44 -179 93v-242h-121zM348 94c83 0 151 65 151 171c0 102 -69 169 -151 169s-154 -68 -154 -171c0 -102 72 -169 154 -169z" horiz-adv-x="670" unicode="þ"/>
<glyph glyph-name="ydieresis" d="M184 -163c-51 0 -88 12 -125 32l41 90c22 -12 46 -20 71 -20c34 0 55 15 75 61l-220 528h129l150 -392l137 392h126l-210 -543c-42 -108 -89 -148 -174 -148zM336 595v118h123v-118h-123zM137 595v118h123v-118h-123z" horiz-adv-x="596" unicode="ÿ"/>
<glyph glyph-name="dotlessi" d="M83 0v528h121v-528h-121z" horiz-adv-x="286" unicode="ı"/>
<glyph glyph-name="Lslash" d="M120 0v278l-75 -22v114l75 23v307h122v-270l202 60v-114l-202 -61v-203h369v-112h-491z" horiz-adv-x="649" unicode="Ł"/>
<glyph glyph-name="lslash" d="M113 0v297l-76 -23v115l76 23v318h120v-283l76 23v-115l-76 -23v-332h-120z" horiz-adv-x="346" unicode="ł"/>
<glyph glyph-name="OE" d="M431 0c-220 0 -372 151 -372 350c0 197 152 350 372 350h606v-110h-374v-182h329v-110h-329v-188h379v-110h-611zM431 112h109v476h-109c-147 0 -243 -99 -243 -238c0 -137 96 -238 243 -238z" horiz-adv-x="1098" unicode="Œ"/>
<glyph glyph-name="oe" d="M321 -12c-152 0 -274 123 -274 275c0 151 122 276 279 276c90 0 166 -44 211 -109c44 66 117 109 204 109c167 0 252 -132 252 -284c0 -8 -1 -24 -2 -34h-388c14 -86 75 -134 152 -134c60 0 102 22 144 63l71 -63c-51 -60 -120 -99 -216 -99c-92 0 -171 42 -218 111 c-46 -67 -124 -111 -215 -111zM602 301h272c-9 78 -54 139 -134 139c-75 0 -127 -57 -138 -139zM326 93c95 0 156 77 156 170s-66 170 -158 170c-95 0 -156 -78 -156 -170s66 -170 158 -170z" horiz-adv-x="1040" unicode="œ"/>
<glyph glyph-name="Scaron" d="M335 -10c-107 0 -208 37 -292 112l74 88c67 -58 134 -91 221 -91c76 0 124 35 124 90c0 50 -28 77 -158 108c-149 35 -233 79 -233 210c0 120 100 203 239 203c102 0 183 -31 254 -88l-66 -93c-63 47 -126 72 -190 72c-72 0 -114 -37 -114 -85c0 -54 32 -78 166 -110 c148 -36 225 -89 225 -207c0 -131 -103 -209 -250 -209zM264 758l-116 146h96l77 -66l77 66h94l-116 -146h-112z" horiz-adv-x="640" unicode="Š"/>
<glyph glyph-name="scaron" d="M257 -10c-75 0 -158 27 -224 79l54 82c57 -43 119 -65 173 -65c52 0 82 22 82 59c0 39 -51 53 -109 70l-9 3c-78 23 -165 55 -165 158c0 100 83 161 188 161c66 0 138 -23 194 -60l-48 -86c-51 31 -105 50 -149 50c-47 0 -74 -22 -74 -55c0 -36 51 -52 109 -71 c3 -1 7 -2 10 -3c77 -24 164 -59 164 -156c0 -111 -86 -166 -196 -166zM198 595l-116 146h96l77 -66l77 66h94l-116 -146h-112z" unicode="š"/>
<glyph glyph-name="Ydieresis" d="M296 0v276l-278 424h145l196 -310l198 310h141l-278 -421v-279h-124zM396 757v118h123v-118h-123zM197 757v118h123v-118h-123z" horiz-adv-x="716" unicode="Ÿ"/>
<glyph glyph-name="Zcaron" d="M65 0v91l413 500h-400v109h560v-91l-413 -500h413v-109h-573zM299 758l-116 146h96l77 -66l77 66h94l-116 -146h-112z" horiz-adv-x="702" unicode="Ž"/>
<glyph glyph-name="zcaron" d="M52 0v83l305 346h-294v99h448v-83l-305 -346h305v-99h-459zM232 595l-116 146h96l77 -66l77 66h94l-116 -146h-112z" horiz-adv-x="560" unicode="ž"/>
<glyph glyph-name="florin" d="M97 -5c-24 0 -40 1 -56 5v99c13 -3 26 -4 40 -4c42 0 64 20 73 68l35 193h-80v101h97l18 93c19 101 67 155 175 155c38 0 67 -4 92 -12v-100c-24 6 -48 10 -69 10c-47 0 -71 -23 -81 -78l-12 -68h127v-101h-145l-38 -211c-19 -107 -75 -150 -176 -150z" horiz-adv-x="527" unicode="ƒ"/>
<glyph glyph-name="circumflex" d="M78 595l116 146h112l116 -146h-96l-77 67l-77 -67h-94z" unicode="ˆ"/>
<glyph glyph-name="caron" d="M194 595l-116 146h96l77 -66l77 66h94l-116 -146h-112z" unicode="ˇ"/>
<glyph glyph-name="breve" d="M250 593c-96 0 -164 54 -171 148h83c12 -38 37 -63 88 -63s76 25 88 63h83c-7 -94 -75 -148 -171 -148z" unicode="˘"/>
<glyph glyph-name="dotaccent" d="M187 595v119h126v-119h-126z" unicode="˙"/>
<glyph glyph-name="ring" d="M250 593c-60 0 -114 50 -114 111c0 59 54 109 114 109s114 -50 114 -111c0 -59 -54 -109 -114 -109zM250 641c34 0 62 28 62 63c0 33 -28 61 -62 61s-62 -28 -62 -63c0 -33 28 -61 62 -61z" unicode="˚"/>
<glyph glyph-name="ogonek" d="M366 -164c-123 -8 -190 34 -190 108c0 23 7 47 15 66h86c-4 -15 -6 -30 -6 -44c0 -45 27 -70 95 -74v-56z" unicode="˛"/>
<glyph glyph-name="tilde" d="M128 585l-67 20c22 81 51 125 112 125c55 0 108 -40 144 -40c29 0 40 16 55 50l67 -21c-22 -80 -51 -124 -112 -124c-55 0 -108 40 -144 40c-29 0 -40 -16 -55 -50z" unicode="˜"/>
<glyph glyph-name="hungarumlaut" d="M238 595l106 164l106 -49l-122 -115h-90zM56 595l104 164l106 -49l-120 -115h-90z" unicode="˝"/>
<glyph glyph-name="Omega" d="M68 0v100h182v48c-118 32 -182 142 -182 260c0 185 149 302 327 302c175 0 321 -117 321 -301c0 -117 -62 -231 -181 -261v-48h181v-100h-273v200c102 19 151 100 151 199c0 116 -81 206 -200 206c-120 0 -202 -92 -202 -208c0 -97 50 -181 150 -197v-200h-274z" horiz-adv-x="786" unicode="Ω"/>
<glyph glyph-name="pi" d="M0 0v700h500v-700h-500zM81 49h339l-170 255zM49 96l171 254l-171 254v-508zM450 96v508l-171 -254zM250 395l170 255h-339z" unicode="π"/>
<glyph glyph-name="afii10023" d="M387 758v118h123v-118h-123zM188 758v118h123v-118h-123zM90 0v700h519v-110h-396v-182h351v-110h-351v-188h401v-110h-524z" horiz-adv-x="670" unicode="Ё"/>
<glyph glyph-name="afii10051" d="M564 -16c-40 0 -80 9 -106 18l23 108c18 -6 36 -9 58 -9c70 0 135 31 135 122c0 77 -52 119 -137 119c-73 0 -131 -25 -179 -68v-274h-123v589h-197v111h577v-111h-257v-196c59 42 127 67 206 67c137 0 237 -83 237 -234c0 -161 -100 -242 -237 -242z" horiz-adv-x="874" unicode="Ђ"/>
<glyph glyph-name="afii10052" d="M233 758l106 164l110 -49l-122 -115h-94zM90 0v700h471v-111h-349v-589h-122z" horiz-adv-x="594" unicode="Ѓ"/>
<glyph glyph-name="afii10053" d="M414 -12c-204 0 -355 159 -355 362c0 198 149 362 360 362c127 0 202 -48 268 -110l-70 -84c-56 50 -118 83 -199 83c-116 0 -206 -83 -227 -196h314v-105h-315c19 -116 110 -202 228 -202c88 0 144 35 205 91l79 -81c-72 -76 -156 -120 -288 -120z" horiz-adv-x="736" unicode="Є"/>
<glyph glyph-name="afii10054" d="M335 -10c-107 0 -208 37 -292 112l74 88c67 -58 134 -91 221 -91c76 0 124 35 124 90c0 50 -28 77 -158 108c-149 35 -233 79 -233 210c0 120 100 203 239 203c102 0 183 -31 254 -88l-66 -93c-63 47 -126 72 -190 72c-72 0 -114 -37 -114 -85c0 -54 32 -78 166 -110 c148 -36 225 -89 225 -207c0 -131 -103 -209 -250 -209z" horiz-adv-x="640" unicode="Ѕ"/>
<glyph glyph-name="afii10055" d="M97 0v700h123v-700h-123z" horiz-adv-x="317" unicode="І"/>
<glyph glyph-name="afii10056" d="M197 758v118h123v-118h-123zM-2 758v118h123v-118h-123zM97 0v700h123v-700h-123z" horiz-adv-x="317" unicode="Ї"/>
<glyph glyph-name="afii10057" d="M245 -10c-108 0 -178 50 -224 113l81 83c41 -52 82 -82 141 -82c66 0 111 44 111 137v459h126v-462c0 -83 -24 -145 -65 -186s-100 -62 -170 -62z" horiz-adv-x="559" unicode="Ј"/>
<glyph glyph-name="afii10058" d="M90 -8c-27 0 -66 6 -85 11l12 101c9 -3 25 -6 40 -6c71 0 137 45 137 464v138h476v-252h161c157 0 262 -78 262 -219s-101 -229 -263 -229h-283v589h-238v-63c0 -439 -81 -534 -219 -534zM670 110h158c91 0 143 41 143 120c0 72 -53 111 -146 111h-155v-231z" horiz-adv-x="1132" unicode="Љ"/>
<glyph glyph-name="afii10059" d="M90 0v700h122v-274h334v274h123v-274h175c150 0 248 -75 248 -209c0 -137 -96 -217 -254 -217h-292v321h-334v-321h-122zM669 110h164c90 0 136 37 136 111c0 66 -47 102 -138 102h-162v-213z" horiz-adv-x="1131" unicode="Њ"/>
<glyph glyph-name="afii10060" d="M236 0v589h-198v111h577v-111h-257v-200c59 41 127 67 206 67c137 0 237 -75 237 -215v-241h-122v196c0 88 -49 142 -137 142c-73 0 -130 -21 -184 -70v-268h-122z" horiz-adv-x="874" unicode="Ћ"/>
<glyph glyph-name="afii10061" d="M306 758l106 164l110 -49l-122 -115h-94zM90 0v700h123v-352l333 352h151l-291 -301l304 -399h-149l-239 315l-109 -112v-203h-123z" horiz-adv-x="725" unicode="Ќ"/>
<glyph glyph-name="afii10062" d="M380 755c-85 0 -144 54 -158 140l75 14c12 -42 38 -68 83 -68s70 26 83 68l74 -14c-13 -86 -72 -140 -157 -140zM211 -11c-54 0 -96 13 -137 35l47 92c28 -16 55 -22 86 -22s75 19 110 76l-292 530h138l218 -407l192 407h133l-273 -547c-59 -119 -131 -164 -222 -164z " horiz-adv-x="732" unicode="Ў"/>
<glyph glyph-name="afii10145" d="M316 -150v150h-227v700h122v-589h327v589h122v-700h-225v-150h-119z" horiz-adv-x="751" unicode="Џ"/>
<glyph glyph-name="afii10017" d="M30 0l308 705h114l308 -705h-130l-71 169h-331l-72 -169h-126zM273 278h241l-121 280z" horiz-adv-x="790" unicode="А"/>
<glyph glyph-name="afii10018" d="M90 0v700h522v-111h-400v-161h195c154 0 254 -77 254 -212c0 -140 -100 -216 -260 -216h-311zM212 110h162c106 0 164 25 164 111c0 68 -51 103 -142 103h-184v-214z" horiz-adv-x="710" unicode="Б"/>
<glyph glyph-name="afii10019" d="M90 0v700h314c80 0 143 -22 183 -62c31 -31 47 -69 47 -118c0 -84 -48 -129 -100 -156c82 -28 139 -75 139 -172c0 -125 -103 -192 -259 -192h-324zM211 405h168c79 0 132 31 132 97c0 55 -44 89 -123 89h-177v-186zM211 109h204c84 0 135 33 135 98c0 59 -47 94 -144 94 h-195v-192z" horiz-adv-x="722" unicode="В"/>
<glyph glyph-name="afii10020" d="M90 0v700h471v-111h-349v-589h-122z" horiz-adv-x="594" unicode="Г"/>
<glyph glyph-name="afii10021" d="M10 -150v260h68c58 115 89 257 89 491v99h488v-590h87l-17 -260h-102v150h-493l-12 -150h-108zM209 110h323v479h-247v-80c0 -162 -28 -302 -76 -399z" horiz-adv-x="762" unicode="Д"/>
<glyph glyph-name="afii10022" d="M90 0v700h519v-110h-396v-182h351v-110h-351v-188h401v-110h-524z" horiz-adv-x="670" unicode="Е"/>
<glyph glyph-name="afii10024" d="M604 0h-122v186l-110 125l-209 -311h-148l276 402l-262 298h147l306 -364v364h122v-364l306 364h147l-263 -298l277 -402h-148l-209 311l-110 -125v-186z" horiz-adv-x="1086" unicode="Ж"/>
<glyph glyph-name="afii10025" d="M328 712c145 0 246 -79 246 -188c0 -90 -57 -137 -119 -163c78 -24 137 -77 137 -168c0 -116 -101 -205 -257 -205c-136 0 -225 40 -303 115l67 85c63 -60 138 -93 233 -93c74 0 137 39 137 105c0 72 -69 102 -160 102h-79v102h78c89 0 144 36 144 102 c0 59 -54 98 -132 98c-83 0 -143 -27 -196 -78l-66 80c67 64 146 106 270 106z" horiz-adv-x="646" unicode="З"/>
<glyph glyph-name="afii10026" d="M90 0v700h121v-511l354 511h115v-700h-121v510l-353 -510h-116z" horiz-adv-x="771" unicode="И"/>
<glyph glyph-name="afii10027" d="M389 755c-85 0 -144 54 -158 140l75 14c12 -42 38 -68 83 -68s70 26 83 68l74 -14c-13 -86 -72 -140 -157 -140zM90 0v700h121v-511l354 511h115v-700h-121v510l-353 -510h-116z" horiz-adv-x="771" unicode="Й"/>
<glyph glyph-name="afii10028" d="M90 0v700h123v-352l333 352h151l-291 -301l304 -399h-149l-239 315l-109 -112v-203h-123z" horiz-adv-x="725" unicode="К"/>
<glyph glyph-name="afii10029" d="M90 -8c-27 0 -66 6 -85 11l12 101c9 -3 25 -6 40 -6c71 0 137 45 137 464v138h480v-700h-123v589h-242v-63c0 -445 -81 -534 -219 -534z" horiz-adv-x="765" unicode="Л"/>
<glyph glyph-name="afii10030" d="M90 0v700h131l213 -331l213 331h131v-700h-123v502l-221 -330h-4l-219 328v-500h-121z" horiz-adv-x="868" unicode="М"/>
<glyph glyph-name="afii10031" d="M90 0v700h123v-291h334v291h123v-700h-123v295h-334v-295h-123z" horiz-adv-x="760" unicode="Н"/>
<glyph glyph-name="afii10032" d="M424 -12c-215 0 -365 163 -365 362c0 197 152 362 367 362s365 -163 365 -362c0 -197 -152 -362 -367 -362zM426 101c139 0 236 111 236 249c0 136 -99 249 -238 249s-236 -111 -236 -249c0 -136 99 -249 238 -249z" horiz-adv-x="850" unicode="О"/>
<glyph glyph-name="afii10033" d="M90 0v700h571v-700h-123v589h-325v-589h-123z" horiz-adv-x="751" unicode="П"/>
<glyph glyph-name="afii10034" d="M90 0v700h276c163 0 266 -93 266 -236c0 -157 -126 -239 -280 -239h-139v-225h-123zM213 336h143c93 0 151 52 151 127c0 82 -59 125 -151 125h-143v-252z" horiz-adv-x="668" unicode="Р"/>
<glyph glyph-name="afii10035" d="M415 -12c-204 0 -356 159 -356 362c0 199 149 362 361 362c129 0 207 -45 274 -109l-79 -91c-56 52 -116 87 -196 87c-134 0 -231 -110 -231 -249c0 -137 97 -249 231 -249c86 0 141 35 201 91l79 -80c-73 -76 -153 -124 -284 -124z" horiz-adv-x="738" unicode="С"/>
<glyph glyph-name="afii10036" d="M262 0v586h-222v114h568v-114h-222v-586h-124z" horiz-adv-x="648" unicode="Т"/>
<glyph glyph-name="afii10037" d="M211 -11c-54 0 -96 13 -137 35l47 92c28 -16 55 -22 86 -22s75 19 110 76l-292 530h138l218 -407l192 407h133l-273 -547c-59 -119 -131 -164 -222 -164z" horiz-adv-x="732" unicode="У"/>
<glyph glyph-name="afii10038" d="M397 -27v76c-220 0 -350 128 -350 307c0 178 131 303 350 303v66h122v-66c219 0 350 -125 350 -304c0 -178 -129 -306 -350 -306v-76h-122zM397 158v391c-138 0 -224 -73 -224 -195c0 -124 86 -196 224 -196zM519 158c139 0 224 72 224 196c0 122 -85 195 -224 195v-391z " horiz-adv-x="917" unicode="Ф"/>
<glyph glyph-name="afii10039" d="M37 0l255 356l-245 344h145l174 -251l175 251h141l-244 -342l254 -358h-145l-184 265l-185 -265h-141z" horiz-adv-x="729" unicode="Х"/>
<glyph glyph-name="afii10040" d="M631 -150v150h-541v700h123v-589h328v589h122v-589h87l-17 -261h-102z" horiz-adv-x="770" unicode="Ц"/>
<glyph glyph-name="afii10041" d="M501 0v277c-50 -26 -129 -59 -199 -59c-137 0 -231 72 -231 223v259h123v-228c0 -88 43 -140 130 -140c65 0 134 26 177 55v313h123v-700h-123z" horiz-adv-x="714" unicode="Ч"/>
<glyph glyph-name="afii10042" d="M90 0v700h122v-590h275v590h123v-590h275v590h122v-700h-917z" horiz-adv-x="1097" unicode="Ш"/>
<glyph glyph-name="afii10043" d="M976 -150v150h-886v700h123v-589h275v589h122v-589h275v589h123v-589h86l-17 -261h-101z" horiz-adv-x="1114" unicode="Щ"/>
<glyph glyph-name="afii10044" d="M210 0v589h-175v111h297v-252h161c157 0 263 -78 263 -219s-102 -229 -264 -229h-282zM332 110h158c91 0 144 41 144 120c0 72 -53 111 -147 111h-155v-231z" horiz-adv-x="795" unicode="Ъ"/>
<glyph glyph-name="afii10045" d="M90 0v700h122v-252h161c157 0 263 -78 263 -219s-102 -229 -264 -229h-282zM212 110h158c91 0 144 41 144 120c0 72 -53 111 -146 111h-156v-231zM719 0v700h122v-700h-122z" horiz-adv-x="931" unicode="Ы"/>
<glyph glyph-name="afii10046" d="M90 0v700h122v-252h161c157 0 263 -78 263 -219s-102 -229 -264 -229h-282zM212 110h158c91 0 144 41 144 120c0 72 -53 111 -146 111h-156v-231z" horiz-adv-x="675" unicode="Ь"/>
<glyph glyph-name="afii10047" d="M320 -12c-132 0 -216 44 -288 120l79 81c61 -56 117 -91 205 -91c119 0 209 86 228 202h-314v105h313c-21 113 -111 196 -227 196c-81 0 -143 -33 -199 -83l-70 84c66 62 142 110 268 110c211 0 360 -164 360 -362c0 -203 -151 -362 -355 -362z" horiz-adv-x="734" unicode="Э"/>
<glyph glyph-name="afii10048" d="M661 -12c-182 0 -311 132 -333 309h-115v-297h-123v700h123v-293h116c23 173 154 305 334 305c199 0 336 -159 336 -362c0 -201 -138 -362 -338 -362zM663 99c124 0 210 109 210 251c0 140 -88 250 -212 250s-209 -108 -209 -250c0 -140 87 -251 211 -251z" horiz-adv-x="1058" unicode="Ю"/>
<glyph glyph-name="afii10049" d="M36 0l191 263c-98 27 -167 98 -167 214c0 136 99 223 261 223h311v-700h-122v242h-155l-174 -242h-145zM329 349h181v240h-179c-92 0 -147 -44 -147 -120c0 -73 57 -120 145 -120z" horiz-adv-x="722" unicode="Я"/>
<glyph glyph-name="afii10065" d="M519 0h-120v65c-36 -43 -91 -76 -171 -76c-100 0 -188 57 -188 165c0 117 91 173 214 173c64 0 105 -9 146 -22v10c0 73 -46 113 -130 113c-59 0 -103 -13 -151 -33l-33 97c58 26 115 44 201 44c156 0 232 -82 232 -223v-313zM402 191v30c-31 12 -74 21 -121 21 c-76 0 -121 -31 -121 -84c0 -50 45 -78 102 -78c80 0 140 45 140 111z" horiz-adv-x="587" unicode="а"/>
<glyph glyph-name="afii10066" d="M334 93c91 0 152 72 152 162s-66 163 -154 163c-89 0 -151 -72 -151 -163c0 -90 66 -162 153 -162zM332 -12c-171 0 -272 113 -272 308c0 164 19 329 211 369l288 60l20 -97l-288 -63c-102 -22 -133 -80 -139 -150c27 46 93 99 203 99c136 0 252 -112 252 -257 c0 -146 -116 -269 -275 -269z" horiz-adv-x="654" unicode="б"/>
<glyph glyph-name="afii10067" d="M76 0v528h271c105 0 174 -51 174 -132c0 -67 -40 -101 -85 -121c64 -18 109 -57 109 -132c0 -89 -75 -143 -195 -143h-274zM195 96h137c59 0 90 27 90 68c0 38 -31 64 -96 64h-131v-132zM195 310h124c51 0 79 27 79 65c0 34 -23 60 -77 60h-126v-125z" horiz-adv-x="590" unicode="в"/>
<glyph glyph-name="afii10068" d="M76 0v528h374v-104h-253v-424h-121z" horiz-adv-x="470" unicode="г"/>
<glyph glyph-name="afii10069" d="M15 -127v231h57c44 88 59 211 59 359v65h409v-424h75l-16 -231h-101v127h-370l-12 -127h-101zM196 104h223v320h-174v-70c0 -96 -18 -185 -49 -250z" horiz-adv-x="640" unicode="д"/>
<glyph glyph-name="afii10070" d="M318 -12c-153 0 -271 111 -271 276c0 151 107 275 258 275c168 0 253 -132 253 -284c0 -8 -1 -28 -2 -34h-388c13 -86 74 -134 152 -134c59 0 101 22 143 63l71 -63c-50 -60 -119 -99 -216 -99zM167 301h271c-8 78 -54 139 -134 139c-74 0 -126 -57 -137 -139z" horiz-adv-x="604" unicode="е"/>
<glyph glyph-name="afii10072" d="M9 0l207 306l-199 222h141l219 -259v259h121v-259l220 259h141l-199 -222l206 -306h-136l-151 225l-81 -92v-133h-121v133l-81 92l-151 -225h-136z" horiz-adv-x="875" unicode="ж"/>
<glyph glyph-name="afii10073" d="M256 -12c-94 0 -169 28 -231 81l57 80c47 -40 106 -63 166 -63c55 0 100 29 100 73c0 39 -38 66 -107 66h-65v87h65c57 0 93 29 93 69c0 36 -37 60 -87 60c-55 0 -110 -19 -150 -54l-54 76c54 47 129 76 215 76c116 0 197 -60 197 -142c0 -64 -37 -100 -83 -120 c57 -20 96 -60 96 -128c0 -89 -84 -161 -212 -161z" horiz-adv-x="518" unicode="з"/>
<glyph glyph-name="afii10074" d="M76 0v528h118v-354c83 118 166 236 250 354h114v-528h-117v352l-251 -352h-114z" horiz-adv-x="634" unicode="и"/>
<glyph glyph-name="afii10075" d="M318 589c-85 0 -144 54 -157 139l74 14c13 -42 38 -68 83 -68s70 26 83 68l73 -14c-13 -85 -71 -139 -156 -139zM76 0v528h118v-354c83 118 166 236 250 354h114v-528h-117v352l-251 -352h-114z" horiz-adv-x="634" unicode="й"/>
<glyph glyph-name="afii10076" d="M76 0v528h120v-253l230 253h142l-205 -222l222 -306h-143l-160 218l-86 -91v-127h-120z" horiz-adv-x="593" unicode="к"/>
<glyph glyph-name="afii10077" d="M72 -6c-19 0 -53 4 -71 7l9 99c8 -2 27 -4 35 -4c61 0 103 30 103 432h399v-528h-121v424h-165c0 -383 -72 -430 -189 -430z" horiz-adv-x="623" unicode="л"/>
<glyph glyph-name="afii10078" d="M76 0v528h120l165 -245l166 245h120v-528h-122v352l-166 -237l-165 235v-350h-118z" horiz-adv-x="723" unicode="м"/>
<glyph glyph-name="afii10079" d="M76 0v528h121v-214h233v214h121v-528h-121v213h-233v-213h-121z" horiz-adv-x="627" unicode="н"/>
<glyph glyph-name="afii10080" d="M327 -12c-161 0 -280 123 -280 275c0 151 120 276 282 276s281 -123 281 -276c0 -150 -120 -275 -283 -275zM329 93c98 0 160 77 160 170s-67 170 -162 170c-97 0 -159 -76 -159 -170c0 -92 67 -170 161 -170z" horiz-adv-x="657" unicode="о"/>
<glyph glyph-name="afii10081" d="M76 0v528h471v-528h-121v424h-229v-424h-121z" horiz-adv-x="623" unicode="п"/>
<glyph glyph-name="afii10082" d="M76 -160v688h121v-88c39 55 94 99 179 99c125 0 246 -99 246 -276c0 -175 -120 -274 -246 -274c-87 0 -142 44 -179 93v-242h-121zM348 94c83 0 151 65 151 171c0 102 -69 169 -151 169s-154 -68 -154 -171c0 -102 72 -169 154 -169z" horiz-adv-x="670" unicode="р"/>
<glyph glyph-name="afii10083" d="M320 -12c-157 0 -273 123 -273 273v2c0 150 116 276 274 276c100 0 162 -37 211 -91l-75 -81c-37 39 -76 66 -137 66c-88 0 -152 -76 -152 -168v-2c0 -94 65 -170 158 -170c57 0 99 27 137 66l73 -72c-52 -58 -113 -99 -216 -99z" horiz-adv-x="566" unicode="с"/>
<glyph glyph-name="afii10084" d="M189 0v424h-170v104h462v-104h-170v-424h-122z" horiz-adv-x="501" unicode="т"/>
<glyph glyph-name="afii10085" d="M184 -163c-51 0 -88 12 -125 32l41 90c22 -12 46 -20 71 -20c34 0 55 15 75 61l-220 528h129l150 -392l137 392h126l-210 -543c-42 -108 -89 -148 -174 -148z" horiz-adv-x="596" unicode="у"/>
<glyph glyph-name="afii10086" d="M384 -160v198c-26 -25 -68 -46 -121 -46c-125 0 -214 99 -214 272c0 170 89 272 215 272c53 0 94 -26 120 -53v217h121v-217c26 27 67 53 120 53c126 0 215 -102 215 -273c0 -172 -89 -271 -214 -271c-55 0 -95 21 -121 46v-198h-121zM299 93c35 0 60 13 85 35v268 c-25 23 -50 37 -85 37c-84 0 -128 -68 -128 -171c0 -105 42 -169 128 -169zM591 93c86 0 127 64 127 170c0 102 -43 170 -127 170c-34 0 -61 -16 -86 -37v-268c25 -22 51 -35 86 -35z" horiz-adv-x="889" unicode="ф"/>
<glyph glyph-name="afii10087" d="M30 0l194 268l-187 260h132l122 -174l122 174h129l-187 -257l195 -271h-132l-130 185l-129 -185h-129z" horiz-adv-x="580" unicode="х"/>
<glyph glyph-name="afii10088" d="M503 -127v127h-427v528h120v-424h228v424h120v-424h76l-16 -231h-101z" horiz-adv-x="645" unicode="ц"/>
<glyph glyph-name="afii10089" d="M397 0v197c-37 -19 -100 -40 -157 -40c-105 0 -180 58 -180 166v205h121v-176c0 -48 33 -92 87 -92c47 0 94 15 129 35v233h121v-528h-121z" horiz-adv-x="594" unicode="ч"/>
<glyph glyph-name="afii10090" d="M76 0v528h121v-424h195v424h120v-424h195v424h121v-528h-752z" horiz-adv-x="904" unicode="ш"/>
<glyph glyph-name="afii10091" d="M787 -127v127h-711v528h121v-424h195v424h120v-424h195v424h121v-424h75l-15 -231h-101z" horiz-adv-x="928" unicode="щ"/>
<glyph glyph-name="afii10092" d="M163 0v425h-146v103h266v-185h122c119 0 210 -52 210 -167c0 -109 -77 -176 -202 -176h-250zM283 98h115c61 0 95 27 95 78c0 47 -35 73 -97 73h-113v-151z" horiz-adv-x="645" unicode="ъ"/>
<glyph glyph-name="afii10093" d="M76 0v528h121v-185h111c119 0 210 -52 210 -167c0 -109 -77 -176 -201 -176h-241zM197 98h104c61 0 96 27 96 78c0 47 -36 73 -98 73h-102v-151zM598 0v528h121v-528h-121z" horiz-adv-x="795" unicode="ы"/>
<glyph glyph-name="afii10094" d="M76 0v528h121v-185h121c119 0 210 -52 210 -167c0 -109 -77 -176 -201 -176h-251zM197 98h114c61 0 96 27 96 78c0 47 -36 73 -98 73h-112v-151z" horiz-adv-x="558" unicode="ь"/>
<glyph glyph-name="afii10095" d="M246 -12c-104 0 -167 39 -219 98l72 71c39 -40 82 -68 141 -68c80 0 141 57 156 132h-207v87h206c-14 72 -74 128 -150 128c-63 0 -105 -24 -143 -62l-65 75c45 47 111 89 209 89c159 0 273 -126 273 -276c0 -151 -117 -274 -273 -274z" horiz-adv-x="566" unicode="э"/>
<glyph glyph-name="afii10096" d="M545 -12c-141 0 -239 97 -258 226h-91v-214h-120v528h120v-214h91c21 126 119 224 260 224c159 0 263 -123 263 -275c0 -150 -105 -275 -265 -275zM547 93c94 0 143 77 143 170s-54 170 -145 170c-94 0 -142 -76 -142 -170c0 -93 53 -170 144 -170z" horiz-adv-x="857" unicode="ю"/>
<glyph glyph-name="afii10097" d="M28 0l146 198c-72 22 -123 75 -123 158c0 102 75 172 208 172h265v-528h-121v178h-108l-125 -178h-142zM276 269h127v161h-128c-64 0 -103 -30 -103 -80c0 -51 42 -81 104 -81z" horiz-adv-x="600" unicode="я"/>
<glyph glyph-name="afii10071" d="M339 595v118h123v-118h-123zM140 595v118h123v-118h-123zM318 -12c-153 0 -271 111 -271 276c0 151 107 275 258 275c168 0 253 -132 253 -284c0 -8 -1 -28 -2 -34h-388c13 -86 74 -134 152 -134c59 0 101 22 143 63l71 -63c-50 -60 -119 -99 -216 -99zM167 301h271 c-8 78 -54 139 -134 139c-74 0 -126 -57 -137 -139z" horiz-adv-x="604" unicode="ё"/>
<glyph glyph-name="afii10099" d="M357 -9c-55 0 -81 10 -105 18l21 95c14 -6 26 -8 43 -8c67 0 115 50 115 131v45c0 82 -42 129 -114 129c-71 0 -121 -50 -121 -132v-269h-121v559h-72v88h72v83h121v-83h180v-88h-180v-142c35 50 84 94 166 94c120 0 190 -81 190 -203v-115c0 -124 -77 -202 -195 -202z " horiz-adv-x="620" unicode="ђ"/>
<glyph glyph-name="afii10100" d="M180 595l106 164l110 -49l-122 -115h-94zM76 0v528h374v-104h-253v-424h-121z" horiz-adv-x="470" unicode="ѓ"/>
<glyph glyph-name="afii10101" d="M320 -12c-156 0 -273 123 -273 274c0 150 114 276 273 276c98 0 164 -42 209 -89l-65 -75c-38 38 -80 62 -143 62c-76 0 -136 -56 -151 -128h207v-87h-208c16 -75 77 -132 157 -132c59 0 102 28 141 68l72 -71c-52 -59 -115 -98 -219 -98z" horiz-adv-x="574" unicode="є"/>
<glyph glyph-name="afii10102" d="M257 -10c-75 0 -158 27 -224 79l54 82c57 -43 119 -65 173 -65c52 0 82 22 82 59c0 39 -51 53 -109 70l-9 3c-78 23 -165 55 -165 158c0 100 83 161 188 161c66 0 138 -23 194 -60l-48 -86c-51 31 -105 50 -149 50c-47 0 -74 -22 -74 -55c0 -36 51 -52 109 -71 c3 -1 7 -2 10 -3c77 -24 164 -59 164 -156c0 -111 -86 -166 -196 -166z" unicode="ѕ"/>
<glyph glyph-name="afii10103" d="M78 609v115h130v-115h-130zM83 0v528h121v-528h-121z" horiz-adv-x="286" unicode="і"/>
<glyph glyph-name="afii10104" d="M182 595v118h123v-118h-123zM-17 595v118h123v-118h-123zM83 0v528h121v-528h-121z" horiz-adv-x="286" unicode="ї"/>
<glyph glyph-name="afii10105" d="M78 609v115h130v-115h-130zM50 -163c-23 0 -39 2 -58 5v97c12 -2 23 -3 34 -3c34 0 57 18 57 64v528h121v-535c0 -107 -55 -156 -154 -156z" horiz-adv-x="286" unicode="ј"/>
<glyph glyph-name="afii10106" d="M72 -6c-19 0 -55 4 -71 7l9 99c8 -2 27 -4 35 -4c63 0 103 37 103 432h399v-185h121c119 0 210 -52 210 -167c0 -109 -77 -176 -201 -176h-251v424h-165c0 -383 -73 -430 -189 -430zM547 98h114c61 0 96 27 96 78c0 47 -36 73 -98 73h-112v-151z" horiz-adv-x="908" unicode="љ"/>
<glyph glyph-name="afii10107" d="M75 0v528h121v-191h233v191h121v-191h122c118 0 209 -50 209 -166c0 -108 -77 -171 -201 -171h-251v242h-233v-242h-121zM550 98h115c61 0 95 24 95 74c0 46 -35 71 -97 71h-113v-145z" horiz-adv-x="911" unicode="њ"/>
<glyph glyph-name="afii10108" d="M75 0v559h-72v88h72v83h121v-83h180v-88h-180v-141c34 50 83 93 165 93c119 0 189 -80 189 -203v-308h-121v272c0 82 -41 129 -113 129c-71 0 -120 -49 -120 -131v-270h-121z" horiz-adv-x="620" unicode="ћ"/>
<glyph glyph-name="afii10109" d="M241 595l106 164l110 -49l-122 -115h-94zM76 0v528h120v-253l230 253h142l-205 -222l222 -306h-143l-160 218l-86 -91v-127h-120z" horiz-adv-x="593" unicode="ќ"/>
<glyph glyph-name="afii10110" d="M304 589c-85 0 -144 54 -157 139l74 14c13 -42 38 -68 83 -68s70 26 83 68l73 -14c-13 -85 -71 -139 -156 -139zM184 -163c-51 0 -88 12 -125 32l41 90c22 -12 46 -20 71 -20c34 0 55 15 75 61l-220 528h129l150 -392l137 392h126l-210 -543c-42 -108 -89 -148 -174 -148 z" horiz-adv-x="596" unicode="ў"/>
<glyph glyph-name="afii10193" d="M256 -127v127h-180v528h120v-424h231v424h120v-528h-176v-127h-115z" horiz-adv-x="623" unicode="џ"/>
<glyph glyph-name="afii10050" d="M90 0v700h351v150h103l17 -261h-349v-589h-122z" horiz-adv-x="594" unicode="Ґ"/>
<glyph glyph-name="afii10098" d="M76 0v528h258v127h101l15 -231h-253v-424h-121z" horiz-adv-x="470" unicode="ґ"/>
<glyph glyph-name="endash" d="M56 249v115h416v-115h-416z" horiz-adv-x="528" unicode="–"/>
<glyph glyph-name="emdash" d="M56 249v115h786v-115h-786z" horiz-adv-x="898" unicode="—"/>
<glyph glyph-name="quoteleft" d="M63 422v117c0 111 53 158 154 166l13 -52c-57 -10 -86 -37 -86 -82c0 -4 1 -7 1 -11h51v-138h-133z" horiz-adv-x="269" unicode="‘"/>
<glyph glyph-name="quoteright" d="M52 417l-13 52c57 10 86 38 86 83c0 4 -1 7 -1 11h-51v137h133v-117c0 -111 -53 -158 -154 -166z" horiz-adv-x="269" unicode="’"/>
<glyph glyph-name="quotesinglbase" d="M47 -145l-13 51c61 12 90 43 85 94h-51v137h133v-116c0 -111 -53 -158 -154 -166z" horiz-adv-x="269" unicode="‚"/>
<glyph glyph-name="quotedblleft" d="M295 422v117c0 111 53 158 154 166l13 -52c-57 -10 -86 -38 -86 -84v-9h52v-138h-133zM63 422v117c0 111 53 158 154 166l13 -52c-57 -10 -86 -37 -86 -82c0 -4 1 -7 1 -11h51v-138h-133z" horiz-adv-x="501" unicode="“"/>
<glyph glyph-name="quotedblright" d="M284 417l-13 52c57 10 86 38 86 83c0 4 -1 7 -1 11h-51v137h133v-117c0 -111 -53 -158 -154 -166zM52 417l-13 52c57 10 86 38 86 83c0 4 -1 7 -1 11h-51v137h133v-117c0 -111 -53 -158 -154 -166z" horiz-adv-x="501" unicode="”"/>
<glyph glyph-name="quotedblbase" d="M279 -145l-13 51c57 11 86 38 86 83c0 4 -1 7 -1 11h-51v137h133v-116c0 -111 -53 -158 -154 -166zM47 -145l-13 51c57 11 86 38 86 83c0 4 -1 7 -1 11h-51v137h133v-116c0 -111 -53 -158 -154 -166z" horiz-adv-x="501" unicode="„"/>
<glyph glyph-name="dagger" d="M169 238l9 275l-122 -9v71l121 -9l-12 134h80l-12 -134l121 9v-71l-122 9l9 -275h-72z" horiz-adv-x="410" unicode="†"/>
<glyph glyph-name="daggerdbl" d="M175 0l12 134l-121 -9v71l121 -9l-8 163l8 163l-121 -9v71l121 -9l-12 134h80l-12 -134l121 9v-71l-121 9l8 -163l-8 -163l121 9v-71l-121 9l12 -134h-80z" horiz-adv-x="430" unicode="‡"/>
<glyph glyph-name="bullet" d="M245 211c-77 0 -141 62 -141 142c0 78 65 140 141 140c77 0 142 -62 142 -142c0 -78 -64 -140 -142 -140z" horiz-adv-x="491" unicode="•"/>
<glyph glyph-name="ellipsis" d="M594 0v134h130v-134h-130zM331 0v134h130v-134h-130zM68 0v134h130v-134h-130z" horiz-adv-x="792" unicode="…"/>
<glyph glyph-name="perthousand" d="M212 350c-98 0 -164 81 -164 179c0 97 67 179 166 179c98 0 164 -81 164 -179c0 -97 -67 -179 -166 -179zM119 0l512 700h99l-512 -700h-99zM1014 -8c-99 0 -164 81 -164 179c0 97 66 179 166 179c98 0 164 -81 164 -179c0 -97 -67 -179 -166 -179zM635 -8 c-98 0 -164 81 -164 179c0 97 67 179 166 179c98 0 164 -81 164 -179c0 -97 -67 -179 -166 -179zM214 427c47 0 75 46 75 102s-32 102 -77 102c-47 0 -75 -46 -75 -102c0 -57 32 -102 77 -102zM1016 69c47 0 75 46 75 102s-32 102 -77 102c-47 0 -75 -46 -75 -102 c0 -57 32 -102 77 -102zM637 69c47 0 75 46 75 102s-32 102 -77 102c-47 0 -75 -46 -75 -102c0 -57 32 -102 77 -102z" horiz-adv-x="1228" unicode="‰"/>
<glyph glyph-name="guilsinglleft" d="M210 41l-166 219v8l166 220l92 -47l-132 -176l132 -177z" horiz-adv-x="354" unicode="‹"/>
<glyph glyph-name="guilsinglright" d="M145 41l-92 46l132 176l-132 177l92 48l165 -220v-8z" horiz-adv-x="354" unicode="›"/>
<glyph glyph-name="fraction" d="M-70 -98l467 856h110l-467 -856h-110z" horiz-adv-x="459" unicode="⁄"/>
<glyph glyph-name="Euro" d="M434 -12c-148 0 -253 96 -291 237h-91v85h77c-1 13 -1 25 -1 40s0 31 2 45h-78v85h94c40 135 143 232 284 232c122 0 191 -56 244 -132l-93 -69c-43 59 -84 91 -154 91c-71 0 -126 -47 -154 -122h215v-85h-234c-1 -13 -2 -28 -2 -45c0 -14 1 -27 2 -40h234v-85h-216 c27 -78 85 -127 163 -127c67 0 107 35 153 95l88 -64c-57 -83 -128 -141 -242 -141z" horiz-adv-x="720" unicode="€"/>
<glyph glyph-name="afii61352" d="M78 0v700h117l314 -480v480h125v-700h-107l-324 492v-492h-125zM718 140v76h261v-76h-261zM849 275c-85 0 -146 65 -146 147s62 148 147 148c84 0 146 -65 146 -147s-63 -148 -147 -148zM850 342c42 0 69 36 69 80s-29 80 -70 80c-43 0 -70 -35 -70 -80 c0 -43 29 -80 71 -80z" horiz-adv-x="1051" unicode="№"/>
<glyph glyph-name="published" d="M414 -12c-203 0 -361 163 -361 362c0 197 160 362 363 362s361 -163 361 -362c0 -197 -160 -362 -363 -362zM414 24c185 0 325 147 325 328c0 179 -139 324 -323 324c-185 0 -325 -147 -325 -328c0 -179 139 -324 323 -324zM286 167v380h153c90 0 147 -50 147 -130 c0 -86 -71 -130 -155 -130h-71v-120h-74zM360 352h73c48 0 78 26 78 66c0 41 -30 63 -78 63h-73v-129z" horiz-adv-x="830" unicode="℗"/>
<glyph glyph-name="trademark" d="M341 392v308h63l93 -146l93 146h61v-308h-57v219l-95 -148h-6l-95 148v-219h-57zM121 392v254h-95v54h249v-54h-95v-254h-59z" horiz-adv-x="690" unicode="™"/>
<glyph glyph-name="partialdiff" d="M0 0v700h500v-700h-500zM81 49h339l-170 255zM49 96l171 254l-171 254v-508zM450 96v508l-171 -254zM250 395l170 255h-339z" unicode="∂"/>
<glyph glyph-name="Delta" d="M28 0l298 701h115l299 -701h-712zM206 109h357l-178 436z" horiz-adv-x="660" unicode="∆"/>
<glyph glyph-name="product" d="M0 0v700h500v-700h-500zM81 49h339l-170 255zM49 96l171 254l-171 254v-508zM450 96v508l-171 -254zM250 395l170 255h-339z" unicode="∏"/>
<glyph glyph-name="summation" d="M0 0v700h500v-700h-500zM81 49h339l-170 255zM49 96l171 254l-171 254v-508zM450 96v508l-171 -254zM250 395l170 255h-339z" unicode="∑"/>
<glyph glyph-name="minus" d="M85 296v112h469v-112h-469z" horiz-adv-x="640" unicode="−"/>
<glyph glyph-name="radical" d="M253 -156l-178 352l-85 -7l-7 80l141 15l129 -258l255 767h93l-324 -949h-24z" horiz-adv-x="563" unicode="√"/>
<glyph glyph-name="infinity" d="M218 169c-108 0 -175 80 -175 185c0 103 65 183 172 183c87 0 142 -58 194 -119c54 61 104 119 193 119c107 0 173 -79 173 -183s-63 -185 -173 -185c-81 0 -142 55 -193 113c-53 -58 -106 -113 -191 -113zM218 269c51 0 100 47 131 83c-32 35 -82 86 -133 86 c-48 0 -77 -40 -77 -85c0 -48 29 -84 79 -84zM603 269c49 0 77 38 77 84c0 48 -30 85 -80 85c-51 0 -101 -50 -131 -86c34 -38 79 -83 134 -83z" horiz-adv-x="818" unicode="∞"/>
<glyph glyph-name="integral" d="M0 0v700h500v-700h-500zM81 49h339l-170 255zM49 96l171 254l-171 254v-508zM450 96v508l-171 -254zM250 395l170 255h-339z" unicode="∫"/>
<glyph glyph-name="approxequal" d="M131 376l-65 14c16 84 56 150 137 150c67 0 180 -53 230 -53c41 0 66 23 77 59l66 -14c-16 -83 -57 -149 -138 -149c-67 0 -182 53 -231 53c-36 0 -65 -24 -76 -60zM131 154l-65 14c16 83 56 149 137 149c68 0 180 -52 230 -52c41 0 66 22 77 59l66 -15 c-16 -82 -57 -148 -138 -148c-67 0 -182 52 -231 52c-36 0 -65 -23 -76 -59z" horiz-adv-x="640" unicode="≈"/>
<glyph glyph-name="notequal" d="M184 59l-81 13l61 101h-81v110h149l82 137h-231v110h298l68 114l81 -13l-61 -101h86v-110h-154l-82 -137h236v-110h-303z" horiz-adv-x="640" unicode="≠"/>
<glyph glyph-name="lessequal" d="M76 9v105h489v-105h-489zM565 151l-489 176v114l489 176v-118l-369 -115l369 -115v-118z" horiz-adv-x="640" unicode="≤"/>
<glyph glyph-name="greaterequal" d="M76 9v105h489v-105h-489zM77 151v118l368 115l-368 115v118l488 -176v-114z" horiz-adv-x="640" unicode="≥"/>
<glyph glyph-name="lozenge" d="M267 -35l-182 391l182 391h103l184 -391l-184 -391h-103zM320 78l119 278c-40 92 -80 184 -119 276l-120 -276z" horiz-adv-x="640" unicode="◊"/>
<glyph glyph-name="cyrBreve" d="M249 592c-85 0 -144 54 -158 140l75 14c12 -42 38 -68 83 -68s70 26 83 68l74 -14c-13 -86 -72 -140 -157 -140z" unicode=""/>
<glyph glyph-name="cyrbreve" d="M249 589c-85 0 -144 54 -157 139l74 14c13 -42 38 -68 83 -68s70 26 83 68l73 -14c-13 -85 -71 -139 -156 -139z" unicode=""/>
<glyph glyph-name="apple" d="M0 0v700h500v-700h-500zM81 49h339l-170 255zM49 96l171 254l-171 254v-508zM450 96v508l-171 -254zM250 395l170 255h-339z" unicode=""/>
<glyph glyph-name="ff" d="M479 0v424h-67v101h67v38c0 59 15 103 43 131s67 42 118 42c43 0 72 -6 99 -14v-102c-24 8 -45 13 -71 13c-46 0 -70 -25 -70 -80v-29h140v-100h-138v-424h-121zM103 0v424h-67v101h67v38c0 59 15 103 43 131s67 42 119 42c42 0 71 -6 98 -14v-102c-24 8 -45 13 -71 13 c-46 0 -70 -25 -70 -80v-29h140v-100h-138v-424h-121z" horiz-adv-x="752" unicode="ﬀ"/>
</font>
</defs>
</svg>
