<svg xmlns="http://www.w3.org/2000/svg" width="1920" height="624.5" viewBox="0 0 1920 624.5">
  <metadata><?xpacket begin="﻿" id="W5M0MpCehiHzreSzNTczkc9d"?>
<x:xmpmeta xmlns:x="adobe:ns:meta/" x:xmptk="Adobe XMP Core 5.6-c138 79.159824, 2016/09/14-01:09:01        ">
   <rdf:RDF xmlns:rdf="http://www.w3.org/1999/02/22-rdf-syntax-ns#">
      <rdf:Description rdf:about=""/>
   </rdf:RDF>
</x:xmpmeta>
                                                                                                    
                                                                                                    
                                                                                                    
                                                                                                    
                                                                                                    
                                                                                                    
                                                                                                    
                                                                                                    
                                                                                                    
                                                                                                    
                                                                                                    
                                                                                                    
                                                                                                    
                                                                                                    
                                                                                                    
                                                                                                    
                                                                                                    
                                                                                                    
                                                                                                    
                                                                                                    
                           
<?xpacket end="w"?></metadata>
<defs>
    <style>
      .cls-1 {
        fill: #694991;
        fill-rule: evenodd;
      }
    </style>
  </defs>
  <path id="Фигура_1_копия" data-name="Фигура 1 копия" class="cls-1" d="M1740.2,14852.8l-0.37-33.7h-34.48v-2.1a14.347,14.347,0,0,0-4.83-1.7v-2.2h-1.2v-0.7s1.89-.7,1.84-1.8a2.217,2.217,0,0,0-1.41-1.2v-1.5s0.15-1.6-4.83-1.7c0,0-15.33-24.3-49.19-27.8,0.15,0,.64-0.1.56-1.8,0,0,6.93-.1,6.73-2.4,0,0,1.29-2.6-8.91-3.2l-0.68-64.7c0.55-.1,1.39-0.3,1.56,0,0,0,1.18,1.3,1.14.1s0.08-.1.08-0.1,1.05-.3,1.05,1.2c0,0,.53,1.7.7,0.1a2.735,2.735,0,0,0-1.18-2.1,1.056,1.056,0,0,1-.35-1.2s1.23-2.4.92-2.8c0,0-.39-0.5-1.4,2.4a1.154,1.154,0,0,1-1.01-1.2s0-2.2-1.53-2.2l-0.13-1.6s0.22-1.3-.13-1.5l-0.04-2.6s2.05-1.1.08-4.4l-0.68-28.4-2.01-2-0.27-1.5-0.26,1.5-2.01,2-0.31,28.4c-1.97,3.3.09,4.4,0.09,4.4l-0.04,2.6a2.287,2.287,0,0,1-1.19,0,8.424,8.424,0,0,1-.91-2.4c0.08-.9-0.27-0.7-0.27-0.7-0.08-.7-0.47-0.6-0.47-0.6-0.8.4-.05,1.8-0.05,1.8a6.8,6.8,0,0,1,.7,2.3c0.31,0.9,2.05,1.1,2.05,1.1l-0.13,1.6c-1.53,0-1.53,2.2-1.53,2.2a1.148,1.148,0,0,1-1,1.2c-1.01-2.9-1.4-2.4-1.4-2.4-0.31.4,0.92,2.8,0.92,2.8a1.055,1.055,0,0,1-.36,1.2,2.771,2.771,0,0,0-1.18,2.1c0.18,1.6.7-.1,0.7-0.1,0-1.5,1.05-1.2,1.05-1.2s0.14-1.1.09,0.1,1.14-.1,1.14-0.1c0.17-.3,1.01-0.1,1.56,0l-0.68,64.7c-10.21.6-8.92,3.2-8.92,3.2-0.19,2.3,6.74,2.4,6.74,2.4-0.08,1.7.4,1.8,0.55,1.8-33.85,3.5-49.18,27.8-49.18,27.8-4.98.1-4.84,1.7-4.84,1.7v1.5a2.219,2.219,0,0,0-1.4,1.2c-0.05,1.1,1.84,1.8,1.84,1.8v0.7h-1.2v2.2a14.347,14.347,0,0,0-4.83,1.7v2.1h-32.69v32.7h-8.83v1h-6.57v-15.4h-7.23v9.2h-7.27v-12.3s1.37-3,2.73-2.7v-0.8l-3.12-1.9v-7.6s1-2,1.64-1.8l-2.29-1.1v-1.1l-0.75-.6v-38.5s2.61-.7,2.07-1.5c0,0,2.61-1.5,2.58-2.2,0,0-3.94-1.1-4.4-1.7v-6.7l-2.04-.3v-9l-0.36-.3v-0.4l-0.89-.6v-7.7s-0.07-1,.57-0.9a0.536,0.536,0,0,1,.47-0.3l-2.4-1.9a0.607,0.607,0,0,0-.25-0.8v-25.5s0.82-3.8,1.54-3.8l-1.79-.8s0.18-1.6.71-1.6l-1.1-.5v-1.1a1.241,1.241,0,0,0,.86-1.1s1.57-.5,1.46-1.3h0.36l0.14-.6s0.97-.2.9-0.7h0.78v-0.4a6.369,6.369,0,0,0-1.72-1.1c2.05,0.6,3.85,1.2,3.89,1.2h0.08a0.278,0.278,0,0,0,.24-0.2,0.226,0.226,0,0,0-.16-0.3,69.143,69.143,0,0,0-6.83-1.9c-0.22-1.9-1.81-11.6-11.69-15.4v-1.5l-0.79-1.2a2.253,2.253,0,0,0-.39-3.3v-0.7s-0.22-.8.39-0.6a0.722,0.722,0,0,0-.61-0.8v-0.6h0.25s-0.21-1.5.65-1.5a0.709,0.709,0,0,0-.47-0.6,1.175,1.175,0,0,0-.46-1.4l-0.22-.2a1.428,1.428,0,0,0,1-1.2,0.763,0.763,0,0,0,.5-1h0.57l-2-.9s0.36-.8-1.64-1c0,0-1.15-1.8.5-2.2a4.5,4.5,0,0,0,2.97-4.4,5.454,5.454,0,0,0-2.15-3.6,10.312,10.312,0,0,1-5.11-9.4l-0.07-2.3a1.829,1.829,0,0,0-.25-2.9v-1.3l0.42,0.2v-0.7l-0.53-.7v-6.1h2.57v-0.7h-2.79v-0.8h0.61v-0.6h-0.64v-1h-0.64v1h-0.72v0.6h0.72v0.7h-2.87v0.8h2.87v5.7l-0.36-.4v0.8l0.53,0.6v2a1.746,1.746,0,0,0,.04,2.8l-0.07,2.3s-0.29,7-3.79,8.9c0,0-3.61,1.7-3.36,5.4a3.992,3.992,0,0,0,3.25,3.4s1.4,0.9.61,1.9c0,0-1.68.2-1.86,1.4,0,0-2.11.7-1.22,1.7a1.717,1.717,0,0,1,.4.9l0.96,0.5v0.3l-0.36.4s-0.89-.3-0.82.5l0.47,0.6-0.22.2a3.321,3.321,0,0,1,.4,1.5l0.28,0.1v0.5l-0.18.3,0.22,0.2-0.5.3,0.46,0.5-0.18.2,0.25,0.3v2.4a2.571,2.571,0,0,0-.35,2.9,4.732,4.732,0,0,1-.66,1.3c-0.03,0-.06.1-0.09,0.1-0.4.3-3.4,1.9-4.86,4.5,0,0-1.08-1.6.21-1.9l0.07-.3a4.035,4.035,0,0,0,2.86-4.1,3.492,3.492,0,0,0-2.4-3.1s-3.93-1-4.4-8l-0.06-1.8s1.39-1.7-.15-2.7v-1.7l0.5,0.4v-0.7l-0.53-.7v-5.5h2.43v-0.6h-2.43v-0.6h0.49v-0.6h-0.49v-0.9h-0.61v0.8h-0.72v0.6h0.61v0.6h-2.54v0.5h2.5v5.3l-0.53-.5v0.7l0.66,0.6v2.3s-1.77.8-.13,2.6c0,0,.72,7.8-3.68,9.8,0,0-3.11,1.5-2.54,4.7,0,0,.9,2.7,2.97,2.9,0,0,.64,0,0.54.5,0,0,.96.3,0.28,1.3,0,0-1.93.3-1.89,1.2h-0.61l0.07,0.3s-1.25.4-.68,1.1l0.43,0.8,0.82,0.5v0.4l-1.43-.1s-7.47-13.8-21.32-20.2v-1.9s-1.03-1.1-.51-1.7c0,0,.94-2.8-0.69-3.6v-0.8l-0.26-.3v-6s0.86-2.5-.35-3.4v-1l1.73-1.5s-0.86-.4.17-0.8l-1.21-1.4-0.94-.3a5.263,5.263,0,0,0-3.19-2.1s-2.15-2.5-.43-3.1c0,0,3.7-1.3,3.36-5a5.017,5.017,0,0,0-3.36-4.1s-5.16-3.1-5.25-14.5c0,0,3.27-2.6-.08-4.2v-2.1l0.89-1.1v-0.6l-0.89.5v-5.8h2.92v-0.7H1432v-0.9h0.6v-0.7H1432v-1.2h-0.58v1.2h-0.61v0.7h0.61v0.9h-3.02v0.7h2.93v5.8l-0.69,1v0.6l0.69-.4v2.1c-3.36,1.6-.09,4.2-0.09,4.2-0.08,11.4-5.25,14.5-5.25,14.5a5.017,5.017,0,0,0-3.35,4.1c-0.35,3.7,3.35,5,3.35,5,1.73,0.6-.43,3.1-0.43,3.1a5.223,5.223,0,0,0-3.18,2.1l-0.95.3-1.2,1.4c1.03,0.4.17,0.8,0.17,0.8l1.72,1.5v1c-1.2.9-.34,3.4-0.34,3.4v6l-0.26.3v0.8c-1.63.8-.69,3.6-0.69,3.6,0.52,0.6-.51,1.7-0.51,1.7v1.9c-13.86,6.4-21.32,20.2-21.32,20.2l-1.44.1v-0.4l0.83-.5,0.43-.8c0.57-.7-0.68-1.1-0.68-1.1l0.07-.3h-0.61c0.04-.9-1.89-1.2-1.89-1.2-0.68-1,.28-1.3.28-1.3-0.11-.5.54-0.5,0.54-0.5,2.07-.2,2.97-2.9,2.97-2.9,0.57-3.2-2.54-4.7-2.54-4.7-4.4-2-3.69-9.8-3.69-9.8,1.65-1.8-.12-2.6-0.12-2.6v-2.3l0.66-.6v-0.7l-0.54.5v-5.3h2.51v-0.5h-2.54v-0.6h0.61v-0.6h-0.72v-0.8h-0.61v0.9h-0.5v0.6h0.5v0.6h-2.43v0.6h2.43v5.5l-0.53.7v0.7l0.5-.4v1.7c-1.54,1-.15,2.7-0.15,2.7l-0.07,1.8c-0.46,7-4.4,8-4.4,8a3.492,3.492,0,0,0-2.39,3.1,4.035,4.035,0,0,0,2.86,4.1l0.07,0.3c1.29,0.3.22,1.9,0.22,1.9-1.47-2.6-4.47-4.2-4.87-4.5-0.03,0-.06-0.1-0.09-0.1a4.732,4.732,0,0,1-.66-1.3,2.584,2.584,0,0,0-.36-2.9v-2.4l0.26-.3-0.18-.2,0.46-.5-0.5-.3,0.22-.2-0.18-.3v-0.5l0.28-.1a3.321,3.321,0,0,1,.4-1.5l-0.22-.2,0.47-.6c0.07-.8-0.83-0.5-0.83-0.5-0.18-.2-0.35-0.4-0.35-0.4v-0.3l0.96-.5a1.722,1.722,0,0,1,.39-0.9c0.9-1-1.21-1.7-1.21-1.7-0.18-1.2-1.86-1.4-1.86-1.4-0.79-1,.61-1.9.61-1.9a3.992,3.992,0,0,0,3.25-3.4c0.25-3.7-3.36-5.4-3.36-5.4-3.5-1.9-3.79-8.9-3.79-8.9l-0.07-2.3a1.744,1.744,0,0,0,.03-2.8v-2l0.54-.6v-0.8l-0.36.4v-5.7h2.86v-0.8h-2.86v-0.7h0.72v-0.6h-0.72v-1h-0.64v1h-0.65v0.6h0.61v0.8h-2.79v0.7h2.58v6.1l-0.54.7v0.7l0.43-.2v1.3a1.829,1.829,0,0,0-.25,2.9l-0.07,2.3a10.312,10.312,0,0,1-5.11,9.4,5.454,5.454,0,0,0-2.15,3.6,4.5,4.5,0,0,0,2.97,4.4c1.64,0.4.5,2.2,0.5,2.2-2,.2-1.64,1-1.64,1l-2.01.9h0.58a0.76,0.76,0,0,0,.49,1,1.447,1.447,0,0,0,1.01,1.2l-0.22.2a1.162,1.162,0,0,0-.46,1.4,0.709,0.709,0,0,0-.47.6c0.86,0,.65,1.5.65,1.5h0.25v0.6a0.722,0.722,0,0,0-.61.8c0.61-.2.39,0.6,0.39,0.6v0.7a2.253,2.253,0,0,0-.39,3.3l-0.79,1.2v1.5c-10.97,4.2-11.73,15.8-11.73,15.8a8.9,8.9,0,0,0-4.46,1.9v0.4h0.78c-0.07.5,0.9,0.7,0.9,0.7l0.14,0.6h0.36c-0.11.8,1.46,1.3,1.46,1.3a1.228,1.228,0,0,0,.86,1.1v1.1l-1.11.5c0.54,0,.72,1.6.72,1.6l-1.79.8c0.72,0,1.54,3.8,1.54,3.8v25.5a0.617,0.617,0,0,0-.26.8l-2.39,1.9a0.536,0.536,0,0,1,.47.3c0.64-.1.57,0.9,0.57,0.9v7.7l-0.9.6v0.4l-0.36.3v9l-2.03.3v6.7c-0.47.6-4.4,1.7-4.4,1.7-0.03.7,2.57,2.2,2.57,2.2-0.53.8,2.08,1.5,2.08,1.5v38.5l-0.75.6v1.1l-2.29,1.1c0.64-.2,1.64,1.8,1.64,1.8v7.6l-3.12,1.9v0.8c1.36-.3,2.73,2.7,2.73,2.7v12.3h-3.82v6.2h-3.94v-12.1h-5.92v9.2h-5.92v-11.2c0-12.5-7.22-16.5-7.22-16.5-7.89,2.7-7.23,17.8-7.23,17.8h-15.91l-2.98-235.2c0.76-.5,1.09-2.8,1.09-2.8,1.72-.7,1.94-4,1.94-4,1.73-.3,1.4.9,1.4,0.9a2.3,2.3,0,0,0-1.4,2.3l-0.22,1.9c-0.11,1.6,1.62.3,1.62,0.3-0.64-.6-0.21-2.6-0.21-2.6,0.1-.6,2.05-0.9,2.05-0.9,0.21,3.6,2.48,0,2.48,0a5.4,5.4,0,0,1,1.62.9c-0.21,3.1,1.73,2.7,1.73,2.7l3.45,1.9-3.45-2.8a1.655,1.655,0,0,1-.54-2,2.919,2.919,0,0,0,3.67-1.5c0-2.3-2.92-1.6-2.92-1.6a2.534,2.534,0,0,0-1.85.7,21.981,21.981,0,0,1-1.49-1.7c0-1.8-.22-4.5-0.22-4.5-0.76-.4-1.19,3.4-1.19,3.4-5.72-6.6-2.69-9.4-2.69-9.4,2.37-4-1.73-8.5-1.73-8.5-2.05-6-3.57-6.5-3.57-6.5l0.22-30.6-3.67-4.3-2.27,1.5c0.76,1.4-.54,4.4-0.54,4.4l-10.78,298h-5.7v-15.1h-5.26v26.3h-8.54s1.64-14.8,0-13.2c-1.64,1.7-7.23,0-7.23,0l-4.1,4.1-2.06-7a1.276,1.276,0,0,1,.64-0.7,0.583,0.583,0,0,0-.53-0.7,3.642,3.642,0,0,1,.31-0.4h2.21a0.4,0.4,0,0,0,0-.8h-0.94a0.851,0.851,0,0,0,.69-0.9s0.15-.6-2.35-0.7v-6.4s2.27,0,1.45-2a0.145,0.145,0,0,0,.11-0.1h1.04a0.415,0.415,0,0,0,.4-0.4,0.358,0.358,0,0,0-.4-0.4h-1.11a2.525,2.525,0,0,0-1.79-.6l-1.92-21.3h1.11a3.028,3.028,0,0,1,.85-1l-2.54-2s0.21-.8-1.4-1l-0.55-3.5a3.266,3.266,0,0,1,1.22-1.1l-0.32-3.1s2.39,0.1,2.59-1.1c0,0-1.08-2.7-3.49-2.5v-0.5l0.42-.4v-2s1.74-.4,1.91-1l-1.66-1.5-0.73-12.6s1.14-.7,1.14-2.9a1.249,1.249,0,0,1,.55-1,0.874,0.874,0,0,0-.64-0.8l1.45-3.6s1.2-.8-0.23-0.8c0,0,1.84-1.5,1.9-2.4v-1.3h0.46v-0.5h-2.77v-1.6h0.36v-0.5h-0.47v-1.3h-0.59v-3.1H1244v-0.6h-0.46v-0.7l1.95-1.9v-0.7h0.26v-0.5h-1.02a3.3,3.3,0,0,0-1.95-3.7v-1.5l0.64-.6h-0.58v-0.8l1.13-1.7h0.82v-0.7h-1.25l-3.44-6.1h-4.78a9.8,9.8,0,0,1-2.27,1.1l-4.43-4.5-2.01.8-2.05,2.2h-1.45l-0.7.5v0.5a9.526,9.526,0,0,1-3.38-.4v-0.7h0.23v-0.6l-1.63-.5a2.328,2.328,0,0,0-1.22-1.6v-3h0.35v-1l-1.28-1.2-0.38-8.3,1.28-1h-1.22l-0.03-.7s0.99-.7-0.06-0.9l-0.03-1,0.32-.1v-1.6s0.61-.7-0.23-0.9l-0.06-.2,1.13-.9v-0.7h0.53v-0.8h0.35v-0.4l-2.31-.9-0.61-9.9,0.97-1.7v-1.1h-0.41v-0.6a3.2,3.2,0,0,0,.84-2.1l-0.49.1-0.03-.5,0.64-.2v-3.1l0.47-.5v-1.3h-0.27l0.03-.3,1.23-1v-0.5l0.37-.1v-0.4h-0.23v-0.5l0.76-.4-2.01-.8v-0.7h-0.38s-0.29-.6.29-0.7c0,0-2.45-.7-0.49-1l0.14-1.2-1.45.2s-0.11-7.8-4.47-12a0.5,0.5,0,0,0,.07-0.6,0.5,0.5,0,0,0-.69-0.2,0.2,0.2,0,0,0-.15.1l-0.42-.3-4.83.8-10.26-17.6,0.25-.2v-0.6l0.33-.3v-2.6l0.38-1.2v-1.3l0.4-.9h0.55l-1.45-3.6h-0.96l-0.15-.5h-0.95l-0.36-.7-1.01.3-5.58-8.9s-0.4-1.1.1-1.1c0,0,1.06-.8.36-1.6l0.3-.4v-1.4a2.267,2.267,0,0,0-1.31-.7v-0.7a3.98,3.98,0,0,0-1.71-1.4v-0.6s1.4-1.6-.3-2.1c0,0,2.26-3.5,3.27-2.5l0.4-1.3a2.491,2.491,0,0,1-1.91-.1s-1.66-1.7,1-2.1a2.6,2.6,0,0,0-.65-2.4s1.51,0,.8-1.6c0,0-.05,1.1-0.9.9,0,0,.6-2.3-1.71-2.4l0.05-2.3,0.4-.9-0.2-1-0.86.4v0.7a3.569,3.569,0,0,0-.8-0.2l0.3-.6-0.5-.7-0.7.7,0.19,0.4a3.856,3.856,0,0,0-1.05.3l0.15-.7-0.75-.6-0.1.9,0.19,0.4-0.55.3-0.05-.6-0.75-.2,0.1,0.7,0.4,0.5v1.4a0.68,0.68,0,0,0,.46.4l-0.26.7s-2.71.8-.3,3.4c0,0,.35,1.7-0.55,1.9a1.06,1.06,0,0,1-1.01-.2s-0.7,2.4.45,2.9v0.6h0.71s3.47,2,3.57,2.9a1.315,1.315,0,0,0,.1,2.1v0.6a5.273,5.273,0,0,0-1.26,1.6v0.9a2.05,2.05,0,0,0-1.06,1.1v1.2l0.41,0.3a1.42,1.42,0,0,0,.75,1.5v1.1l-3.82,9.8-1.26-.3-1.15,2.2-1.01-.6-0.15.8-0.45-.2-0.61,3.7,0.66,0.4s0,2.1.9,2.4c0,0-.3,3.2,1.31,3.7l-8.9,19.8-3.62.1v-4.8l-0.61-.4,1.31-2.5h-1.06v-1.7l0.51-.7h-0.46v-0.4a5.171,5.171,0,0,0,1.46-2.6l0.66-.7h-3.02l0.53-.8h1.01a0.4,0.4,0,1,0,0-.8h-1.28a2.162,2.162,0,0,0-1.67-.7l0.55-.4-0.25-3.1a2.494,2.494,0,0,0,.76-2h-1.01l-0.6-15.1-0.71-.2a3.42,3.42,0,0,0,.91-2.2,0.772,0.772,0,0,0-.4-0.4,6.747,6.747,0,0,0,1.11-2h0.48a0.4,0.4,0,1,0,0-.8h-0.81c-0.31-.1-0.75-0.2-1.14-0.3l-0.4-7.6h-0.45v-0.7h0.4l-0.05-2.9h-0.7v-0.5a0.8,0.8,0,0,1,.55-0.2s-1.01-2,1.36-4.5h-0.5l1.96-4.6v-2.5l1.05-1.7v-0.5h-0.3l0.45-.6v-1.7h1.1a0.4,0.4,0,1,0,0-.8h-1.32a5.205,5.205,0,0,0-1.64-.4l-0.05-1.1s1.36-1.3-.55-1.7l0.05-.6,0.8-1-1.71-3.4s0.31,0.1.31-1.2l0.65-.8,0.15-.8-0.6-.8,2.01-3.4s-1.91.2-2.06-1.1l-0.61-.3s0.05-2.2-.65-2.4l0.05-.6s1.26-.6.96-1.5l-3.27-3.6-2.77,4.2s0.4,1.3,1.06,1.3l-0.11.5-2.11-1.6-0.3.1-5.33-16.8-1.16,11.6s-1.71,4.2-2.81,4.5a2.964,2.964,0,0,0,1.25.8l-0.6,1.6-2.77-1.5-0.8.5-0.25-2.5-0.3-.2-0.56-9.2,0.96-1.2-0.96-.2-0.45-6.3s0.71-.1.65-1.5c0,0,.51-0.2.51-1.7a1.516,1.516,0,0,0,.95-1.7s1.76-1.9.4-3.1l-0.2-2.8s1.01-.5.3-1.2l0.56-.6,0.05-1.3-0.86-.3v-0.7l0.4-.3v-1l0.46-.1-2.16-4-1.11,1-1.16-2.1-1.36.8-0.25-.3v-0.3h0.36l-0.06-2.1-0.55-1.5s0.25-2.8-.35-2.9l-1.01.1a1.382,1.382,0,0,0-.45-1.1v-1.8l0.4-.3s-0.05-4-1.26-3l0.11-3.4h0.45l-4.73-15.2s-0.85-7.1.3-7.4l-1.96-.1-7.45-31.7a1.584,1.584,0,0,0-.09-2.2s0.09-1.2.65-.5c0,0,.8,1.4,1.81-0.3a6.941,6.941,0,0,1-1.15-2.9c0.01,0.2.11,1.5-.46,1.2a1.785,1.785,0,0,1-.9-1.2c-0.21-.5-0.91-1.4-0.11-1.1s0.46,0,.86-0.3,2.41-.6,1.86-3.2c0,0-4.07.4-3.22-.5,0,0,1.31-.7.4-1,0,0-.15-2-1-1.9,0,0-.75-0.4-0.97.2s-0.14,0-.14,0a0.848,0.848,0,0,1,.87-0.9c0.95-.1.99-2.5-0.84-2.6l-0.29-2.1-0.47,2a2.147,2.147,0,0,0-.95,2.9l-0.58.1a29.521,29.521,0,0,1-2.19-2.7c-0.47-.8-0.18-0.2-0.18-0.2s0.73,6.1,3.46,7.9c0,0-.04,3.5-0.65,2.3-0.62-1.3-.19-0.2-0.19-0.2s-1.24,3.4,1.1,2.2a0.9,0.9,0,0,1,.29,1.2c-0.44.6,0.51,1.2,0.18,1.6,0,0-.58,1.6.11,2.3l-3.32,26.8-2.44-.2-0.14,6.9h0.4l-0.08,1.1,0.7,1.3-0.84,13.7s-0.87.8-.77,3.1c0,0-.8,2-0.76-0.4,0,0-1.17-.1-1.27,5.9l0.14,5.3s-0.95.3-.87,2.1c0,0-.95-0.4-0.84,5l-3.1,4.4-0.11,1.1-0.47.1-0.18,1.8h-0.55l-0.18,3.5h0.51s0.26,1.8-.4,2.3l1.35,2.5-0.11,4.9s1.96,1.3,2.26,2.9a6.364,6.364,0,0,0,.98,1.7l0.14,3.8-1.38-5.4-2.88,13.7s-2.18-2.2-2.26-3.2a8.373,8.373,0,0,1-2.69,4s-0.62,1.1.33,1.3c0,0,1.38.5,0.43,1.4-0.04,0-.07.1-0.11,0.1a2.392,2.392,0,0,0-2.84,2.5l-0.51,3.8h-0.8l-0.8,5-1.13.1-0.47,5-1.02.7-0.77,4.4-0.61.1-0.41,4.3h-3.2l-19.67-35.8v-9.1s1.63-1.5-.18-1.9c0,0-1.62.1-.33,1.7v9.1h-61.33v-9.1c1.3-1.6-.32-1.7-0.32-1.7-1.81.4-.19,1.9-0.19,1.9v9.1l-19.664,35.8H979.44l-0.4-4.3-0.619-.1-0.764-4.4-1.019-.7-0.476-5-1.128-.1-0.8-5h-0.8l-0.508-3.8a2.393,2.393,0,0,0-2.841-2.5,1.217,1.217,0,0,0-.11-0.1c-0.948-.9.438-1.4,0.438-1.4,0.943-.2.328-1.3,0.328-1.3a8.358,8.358,0,0,1-2.7-4c-0.073,1-2.258,3.2-2.258,3.2l-2.879-13.7-1.383,5.4,0.145-3.8a6.329,6.329,0,0,0,.983-1.7c0.292-1.6,2.259-2.9,2.259-2.9l-0.108-4.9,1.346-2.5c-0.654-.5-0.4-2.3-0.4-2.3h0.508l-0.181-3.5h-0.548l-0.184-1.8-0.471-.1-0.11-1.1-3.1-4.4c0.109-5.4-.84-5-0.84-5,0.076-1.8-.872-2.1-0.872-2.1l0.146-5.3c-0.111-6-1.275-5.9-1.275-5.9,0.038,2.4-.765.4-0.765,0.4,0.11-2.3-.765-3.1-0.765-3.1l-0.838-13.7,0.693-1.3-0.074-1.1h0.4l-0.143-6.9-2.442.2-3.315-26.8c0.7-.7.111-2.3,0.111-2.3-0.327-.4.618-1,0.181-1.6a0.893,0.893,0,0,1,.291-1.2c2.333,1.2,1.093-2.2,1.093-2.2s0.439-1.1-.182.2c-0.62,1.2-.656-2.3-0.656-2.3,2.731-1.8,3.461-7.9,3.461-7.9s0.292-.6-0.182.2a28.52,28.52,0,0,1-2.185,2.7l-0.583-.1a2.15,2.15,0,0,0-.946-2.9l-0.476-2-0.289,2.1c-1.823.1-1.788,2.5-.84,2.6a0.857,0.857,0,0,1,.876.9s0.072,0.6-.146,0-0.967-.2-0.967-0.2c-0.854-.1-1.007,1.9-1.007,1.9-0.9.3,0.4,1,.4,1,0.855,0.9-3.221.5-3.221,0.5-0.551,2.6,1.462,2.9,1.863,3.2s0.051,0.6.856,0.3,0.1,0.6-.1,1.1a1.779,1.779,0,0,1-.906,1.2c-0.566.3-.466-1-0.454-1.2a7.04,7.04,0,0,1-1.154,2.9c1,1.7,1.811.3,1.811,0.3,0.554-.7.654,0.5,0.654,0.5a1.583,1.583,0,0,0-.1,2.2l-7.444,31.7-1.963.1c1.156,0.3.3,7.4,0.3,7.4l-4.725,15.2H935.4l0.1,3.4c-1.206-1-1.256,3-1.256,3l0.4,0.3v1.8a1.379,1.379,0,0,0-.452,1.1l-1-.1c-0.606.1-.354,2.9-0.354,2.9l-0.554,1.5-0.05,2.1h0.352v0.3l-0.25.3-1.359-.8-1.155,2.1-1.107-1-2.165,4,0.454,0.1v1l0.4,0.3v0.7l-0.857.3,0.051,1.3,0.554,0.6c-0.7.7,0.3,1.2,0.3,1.2l-0.2,2.8c-1.358,1.2.4,3.1,0.4,3.1a1.517,1.517,0,0,0,.956,1.7c0,1.5.5,1.7,0.5,1.7-0.048,1.4.655,1.5,0.655,1.5l-0.453,6.3-0.954.2,0.954,1.2-0.552,9.2-0.3.2-0.251,2.5-0.805-.5-2.767,1.5-0.6-1.6a2.986,2.986,0,0,0,1.257-.8c-1.106-.3-2.815-4.5-2.815-4.5l-1.159-11.6-5.331,16.8-0.3-.1-2.113,1.6-0.1-.5c0.652,0,1.055-1.3,1.055-1.3l-2.766-4.2-3.27,3.6c-0.3.9,0.957,1.5,0.957,1.5l0.049,0.6c-0.7.2-.654,2.4-0.654,2.4l-0.6.3c-0.151,1.3-2.062,1.1-2.062,1.1l2.013,3.4-0.605.8,0.151,0.8,0.654,0.8c0,1.3.3,1.2,0.3,1.2l-1.71,3.4,0.8,1,0.05,0.6c-1.91.4-.553,1.7-0.553,1.7l-0.051,1.1a4.406,4.406,0,0,0-1.861.5v2.4l0.454,0.6h-0.3v0.5l1.055,1.7v2.5l1.962,4.6h-0.5c2.364,2.5,1.36,4.5,1.36,4.5a0.8,0.8,0,0,1,.552.2v0.5h-0.7l-0.052,2.9h0.4v0.7h-0.451l-0.4,7.6a9.807,9.807,0,0,0-1.559.4,5.12,5.12,0,0,0,1.2,2.7,0.772,0.772,0,0,0-.4.4,3.424,3.424,0,0,0,.907,2.2l-0.705.2-0.605,15.1h-1.006a2.5,2.5,0,0,0,.755,2l-0.252,3.1,0.554,0.4c-1.86.1-2.011,1.4-2.011,1.4l0.6,0.9h-3.016l0.652,0.7a5.172,5.172,0,0,0,1.459,2.6v0.4h-0.453l0.5,0.7v1.7h-1.055l1.308,2.5-0.6.4v4.8l-3.479-.1q-0.215-.3-0.436-0.6l-8.609-19.2c1.609-.5,1.306-3.7,1.306-3.7,0.907-.3.907-2.4,0.907-2.4l0.654-.4-0.6-3.7-0.453.2-0.149-.8-1.007.6-1.157-2.2-1.258.3-3.824-9.8v-1.1a1.418,1.418,0,0,0,.755-1.5l0.4-.3v-1.2a2.015,2.015,0,0,0-1.058-1.1v-0.9a5.277,5.277,0,0,0-1.256-1.6v-0.6a1.317,1.317,0,0,0,.1-2.1c0.1-.9,3.57-2.9,3.57-2.9h0.706v-0.6c1.154-.5.45-2.9,0.45-2.9a1.049,1.049,0,0,1-1,.2c-0.906-.2-0.554-1.9-0.554-1.9,2.414-2.6-.3-3.4-0.3-3.4l-0.251-.7a0.679,0.679,0,0,0,.452-0.4v-1.4l0.4-.5,0.1-.7-0.754.2-0.051.6-0.553-.3,0.2-.4-0.1-.9-0.755.6,0.15,0.7a3.886,3.886,0,0,0-1.056-.3l0.2-.4-0.7-.7-0.5.7,0.3,0.6a3.615,3.615,0,0,0-.806.2v-0.7l-0.855-.4-0.2,1,0.4,0.9,0.05,2.3c-2.313.1-1.709,2.4-1.709,2.4-0.856.2-.906-0.9-0.906-0.9-0.7,1.6.806,1.6,0.806,1.6a2.615,2.615,0,0,0-.655,2.4c2.666,0.4,1.007,2.1,1.007,2.1a2.5,2.5,0,0,1-1.913.1l0.4,1.3c1.006-1,3.269,2.5,3.269,2.5-1.709.5-.3,2.1-0.3,2.1v0.6a3.956,3.956,0,0,0-1.709,1.4v0.7a2.244,2.244,0,0,0-1.309.7v1.4l0.3,0.4c-0.7.8,0.352,1.6,0.352,1.6,0.5,0,.1,1.1.1,1.1l-5.582,8.9-1.007-.3-0.352.7h-0.957l-0.151.5h-0.955l-1.458,3.6h0.554l0.4,0.9v1.3l0.377,1.2v2.6l0.327,0.3v0.6l0.25,0.2-10.259,17.6-4.829-.8c-5.533,3.8-5.653,13-5.653,13l-1.457-.2,0.145,1.2c1.953,0.3-.494,1-0.494,1,0.582,0.1.291,0.7,0.291,0.7h-0.379v0.7l-2.012.8,0.758,0.4v0.5h-0.233v0.4l0.38,0.1v0.5l1.224,1,0.028,0.3h-0.263v1.3l0.468,0.5v3.1l0.639,0.2-0.027.5-0.5-.1a3.213,3.213,0,0,0,.845,2.1v0.6h-0.408v1.1l0.962,1.7-0.613,9.9-2.3.9v0.4h0.35v0.8h0.524v0.7l1.138,0.9-0.059.2c-0.846.2-.233,0.9-0.233,0.9v1.6l0.319,0.1-0.027,1c-1.05.2-.059,0.9-0.059,0.9l-0.03.7H850.6l1.281,1-0.379,8.3-1.284,1.2v1h0.352v3a2.325,2.325,0,0,0-1.224,1.6l-1.632.5v0.6h0.233v0.7a9.535,9.535,0,0,1-3.381.4v-0.5l-0.7-.5h-1.455l-2.04-2.2-2.012-.8-4.428,4.5a9.7,9.7,0,0,1-2.272-1.1h-4.779l-3.438,6.1h-1.255v0.7H823l1.135,1.7v0.8h-0.582l0.641,0.6v1.5a3.3,3.3,0,0,0-1.953,3.7h-1.02v0.5h0.263v0.7l1.952,1.9v0.7H822.97v0.6h0.41v3.1H822.8v1.3H822.33v0.5h0.351v1.6h-2.77v0.5h0.467v1.3c0.058,0.9,1.893,2.4,1.893,2.4-1.427,0-.231.8-0.231,0.8l1.455,3.6a0.874,0.874,0,0,0-.64.8,1.274,1.274,0,0,1,.553,1c0,2.2,1.137,2.9,1.137,2.9l-0.73,12.6-1.659,1.5c0.174,0.6,1.909,1,1.909,1v2l0.422,0.4v0.5c-2.42-.2-3.5,2.5-3.5,2.5,0.205,1.2,2.594,1.1,2.594,1.1l-0.322,3.1a3.3,3.3,0,0,1,1.225,1.1l-0.553,3.5c-1.6.2-1.4,1-1.4,1l-2.535,2a3.115,3.115,0,0,1,.845,1h1.107l-1.923,21.3c-2.825.2-1.749,1.5-1.749,1.5-0.813,2,1.457,2,1.457,2v6.4c-2.506.1-2.358,0.7-2.358,0.7-0.148.7,0.932,1,.932,1h0.147a0.5,0.5,0,0,0-.131.3,0.415,0.415,0,0,0,.4.4h0.616a2.92,2.92,0,0,1,.3.4,0.585,0.585,0,0,0-.523.7,1.267,1.267,0,0,1,.633.7l-2.583,8.9h-6.742v-5.3h-5.915v9.2H798.6c-1.313-20.4-10.513-25-10.513-25-13.145,3.9-11.173,24.7-11.173,24.7h-5.281l-3.58-9.1,0.64-2.6h-1.813l-9.393-23.7s0.961,0,.319-1.5c0,0,2.882-2.5-1.6-4.3l-3.523-12.9-0.746-22.2s1.922-.5-0.319-2.7l-0.854-32.9a2.915,2.915,0,0,0,2.134-2.6v-4.9s1.175-2.1-.535-2.8c0,0,4.163-2.9-.426-6.2,0,0,3.1-1.1,1.814-5.8a6.576,6.576,0,0,0-4.054-4.5l-2.028-52.3s2.99-2.2,2.776-5.2l0.319-7.5s-1.173-2.4-2.455-2.8v-4.2s2.241-2.2-.746-4.7l-0.214-17.8a3.947,3.947,0,0,0,2.562-4.1l-0.107-1.9s2.24-1.2,1.066-8c0,0,.215-8.5-4.268-10.3v-4.3s1.92-1.6-1.388-4.2l0.107-8.5a1.944,1.944,0,0,0-.748-2.6l-0.213-7.1s2.455-2,0-4l-0.212-3.9s2.241-1.2-.32-3.5v-4.9s1.6-.1-0.108-2.1v-3.4s0.506-1.7-.665-2h-0.08c-1.169.3-.666,2-0.666,2v3.4c-1.707,2-.107,2.1-0.107,2.1v4.9c-2.56,2.3-.32,3.5-0.32,3.5l-0.213,3.9c-2.455,2,0,4,0,4l-0.213,7.1a1.944,1.944,0,0,0-.746,2.6l0.1,8.5c-3.307,2.6-1.385,4.2-1.385,4.2v4.3c-4.484,1.8-4.269,10.3-4.269,10.3-1.174,6.8,1.067,8,1.067,8l-0.108,1.9a3.947,3.947,0,0,0,2.562,4.1l-0.215,17.8c-2.987,2.5-.746,4.7-0.746,4.7v4.2c-1.281.4-2.454,2.8-2.454,2.8l0.32,7.5c-0.215,3,2.775,5.2,2.775,5.2l-2.028,52.3a6.575,6.575,0,0,0-4.055,4.5c-1.281,4.7,1.814,5.8,1.814,5.8-4.588,3.3-.426,6.2-0.426,6.2-1.707.7-.534,2.8-0.534,2.8v4.9a2.916,2.916,0,0,0,2.135,2.6l-0.855,32.9c-2.239,2.2-.32,2.7-0.32,2.7l-0.746,22.2-3.523,12.9c-4.483,1.8-1.6,4.3-1.6,4.3-0.641,1.5.319,1.5,0.319,1.5l-9.391,23.7H717.34l0.64,2.6-3.494,8.9v-12.7H711.2v13.9h-6.573V14813H692.8v38.8h-5.258v-10.5h-9.2v9.9l-1.947,1.6H674.25v-3h0.795v-0.8h-0.928v-2.8l-0.752-1.1V14797s0.795-1.5.045-1.9a0.493,0.493,0,0,0-.263-0.8v-2.4a0.935,0.935,0,0,0,1.1-.9s0.442-1.1,1.016-1.1a6.356,6.356,0,0,1-1.987-1.9v-5s0.971-1.1.265-1.4c0,0,.53-0.8,0-1.1,0,0-.574-4.7-2.472-6.1a3.972,3.972,0,0,1-.663-2.7v-0.5h-0.264v-0.4H667.32l-1.37,3s-1.9-2.1-1.675-3.8v-0.6s0.352-2-.707-2.2H661.14l-1.986,6.2H647.677s-0.089-3.1-1.854-4.5c0,0,.043-2.8-1.191-3H642.2v-7.2l1.457-2.1-2.075-.9v-4.2l-0.222-.3v-22.3a1.408,1.408,0,0,0,.045-1.9v-1.7l1.811-2.8-3.047-1.2c2.15-3,6.263-11.3-6.2-18.7a2.07,2.07,0,0,0-1.13-1.6s-4.771-4.3-5.166-5.5v-1.8s3.092-3-.429-5.2v-15a0.867,0.867,0,0,0-.256-0.5h-0.106a0.883,0.883,0,0,0-.255.5v15c-3.521,2.2-.428,5.2-0.428,5.2v1.8c-0.4,1.2-5.165,5.5-5.165,5.5a2.081,2.081,0,0,0-1.134,1.6c-12.8,7.6-8.107,16.1-6.021,18.9l-2.846,4.9,1.721,1.5-0.087.2s-0.177,1-.22,1.3c0,0-4.46,3.5-4.547,5.2,0,0-10.2,7.7-5.606,13.6l-2.384-.9v-2.3s1.985-1.2.794-2.3v-20.4a3.03,3.03,0,0,0-.618-3.8v-3.3s1.59-1.9.708-3.4l3.045-5.9a5.669,5.669,0,0,0-3.178-6.1v-3.9l-1.721-3.7h-0.278c1.441-4.5,2.682-15.7-13.445-28.2,0,0-16.448-12.8-17.1-16.5,0,0-8.085-7.2-8.276-14.7,0,0,4.266-3.8-.453-6.2v-20.1a0.313,0.313,0,0,0-.275-0.3v-0.1h-0.172v0.1a0.314,0.314,0,0,0-.275.3v20.1c-4.718,2.4-.453,6.2-0.453,6.2-0.189,7.5-8.275,14.7-8.275,14.7-0.649,3.7-17.1,16.5-17.1,16.5-16.125,12.5-14.886,23.7-13.444,28.2h-0.379l-1.72,3.7v3.9a5.669,5.669,0,0,0-3.18,6.1l3.047,5.9c-0.883,1.5.7,3.4,0.7,3.4v3.3a3.033,3.033,0,0,0-.617,3.8v20.4c-1.19,1.1.8,2.3,0.8,2.3v2.3l-2.384.9c4.591-5.9-5.605-13.6-5.605-13.6-0.088-1.7-4.548-5.2-4.548-5.2-0.043-.3-0.22-1.3-0.22-1.3l-0.088-.2,1.722-1.5-2.74-4.7c2-2.6,7.21-11.3-5.883-19.1a2.085,2.085,0,0,0-1.132-1.6s-4.77-4.3-5.166-5.5v-1.8s3.093-3-.428-5.2v-15a0.87,0.87,0,0,0-.255-0.5h-0.107a0.877,0.877,0,0,0-.255.5v15c-3.522,2.2-.428,5.2-0.428,5.2v1.8c-0.395,1.2-5.166,5.5-5.166,5.5a2.081,2.081,0,0,0-1.133,1.6c-12.356,7.3-8.41,15.5-6.247,18.6l-3.238,1.3,1.808,2.8v1.7a1.408,1.408,0,0,0,.044,1.9v22.3l-0.219.3v4.2l-2.076.9,1.456,2.1v7.2h-2.426c-1.238.2-1.191,3-1.191,3-1.767,1.4-1.856,4.5-1.856,4.5H458.813l-1.985-6.2H454.4c-1.061.2-.707,2.2-0.707,2.2v0.6c0.222,1.7-1.677,3.8-1.677,3.8l-1.37-3h-2.823v0.4h-0.266v0.5a3.964,3.964,0,0,1-.661,2.7c-1.9,1.4-2.474,6.1-2.474,6.1-0.528.3,0,1.1,0,1.1-0.706.3,0.266,1.4,0.266,1.4v5a6.367,6.367,0,0,1-1.985,1.9c0.573,0,1.013,1.1,1.013,1.1a0.937,0.937,0,0,0,1.1.9v2.4a0.494,0.494,0,0,0-.264.8c-0.751.4,0.044,1.9,0.044,1.9v41.5l-4.814.8c-1.971-7.2-4.6-9.2-4.6-9.2-7.229,0-8.543,9.9-8.543,9.9h-7.229v9.9h-9.63l-7.464-62.7a2.452,2.452,0,0,0,.444-1.5l3.427-2v-1.9l0.678-.6a2,2,0,0,1,.563-1.2v-0.8h-9.525l-0.3-1.4a1.826,1.826,0,0,0,.489-0.8H369.7l-0.864,1H352.642v-1.3s0.453-1.2-.488-1.5c0,0-.189-1.2.6-1.1,0,0,.225-0.3-0.188-0.4,0,0,.564-0.7-0.226-0.8,0,0,.678-0.7-0.114-0.9,0,0,.451-0.7-0.074-0.7,0,0,.377-1.2-0.3-1.1a1.98,1.98,0,0,0-1.054.8l0.377-1.3a1.247,1.247,0,0,0-.565-0.2,1.2,1.2,0,0,1,.377-0.7,2.977,2.977,0,0,0-3.39.2,1.315,1.315,0,0,1,.451.8,2.075,2.075,0,0,0-.677.4,1.637,1.637,0,0,1,.452.7,0.5,0.5,0,0,0-.074.8,1.794,1.794,0,0,1-1.508,0,3.554,3.554,0,0,0,.377,1.6s-0.187.8,0.189,0.8c0,0-.376.9,0.037,0.8,0,0-.413.8,0.3,0.4a2.04,2.04,0,0,0,.3,1.5,0.747,0.747,0,0,0-.227.7v1s-20.033,6.4-29.531,7.4h-1.246a1.759,1.759,0,0,1,1.844-2.2s0.6-2.6-1.844-3a2.733,2.733,0,0,0-1.738.5c-0.133-.8-0.748-3.4-2.873-3.1v-15.6l0.647-2.2h-0.647l3.5-9.2h-5.9l0.37-1.4h-1.984v-2l0.323-.4H307.4v-0.4h-0.8a4.616,4.616,0,0,0-.161-1.8s0.417-.2-0.162-0.4c0,0,.394-2.6,1.111-3.1a0.132,0.132,0,0,0-.139-0.2s0.671-.9.116-0.7c0,0,.555-0.9.023-0.6,0,0,.209-0.9-0.555-0.3a0.459,0.459,0,0,1-.07-0.5,0.657,0.657,0,0,0,.023-0.9c-0.395-.5-0.788-0.6-1.227-1.1a4.566,4.566,0,0,0-.694-1.1l0.02-.2s0.719-.3.164-1.4a6.774,6.774,0,0,0,.857-2.7,1.54,1.54,0,0,0,.186-0.9s1.181-.8.324-0.6c0,0,.37-0.5-0.163-0.3,0,0-.114-0.8-0.716.4a3.472,3.472,0,0,0,0,1,11.774,11.774,0,0,0-1.137,2.5,1.477,1.477,0,0,0-1.04,1.8,1.976,1.976,0,0,0-.881.3s-0.81-.1-0.926-0.1a0.732,0.732,0,0,1-.114-0.7s0.855-1.7-.394-2a0.876,0.876,0,0,0-1.066.8s-0.834-.3-0.486.8c0,0,0,.7.58,0.6a0.624,0.624,0,0,0,.347.2s0.208,0.4-.835.5c0,0-.369-0.2-0.485,0,0,0-.278-0.8-1.066-0.2a1,1,0,0,1-.554,0s-0.882-.6-0.95.6a0.689,0.689,0,0,1-.534.2s-0.207-.1-0.185.3a0.732,0.732,0,0,0-.532.6,3.982,3.982,0,0,1,.106.9s-0.007.1-.012,0.1c-0.071.3,0.114,0.4,0.461,0.1a1.077,1.077,0,0,1-.114.8s1.018-.7,1.041-0.1c0,0,.672-1.1.624-0.3a1.158,1.158,0,0,0,.535-0.1,0.3,0.3,0,0,0,.461-0.1s0.488,1,1.157,0c0,0,.558-0.2.233,0.4,0,0-.51,1-0.6,1.3a0.661,0.661,0,0,1-.857-0.1s-1.3,1.2-1.112,1.9c0,0,.834,1.3,1.506.3,0,0,.485-0.3-0.255,1.2,0,0-.464.5,0.881,0.9a5.98,5.98,0,0,0-.279.7s-0.555.3-.741-0.1a0.892,0.892,0,0,0-1.133.8s-0.326,0-.3.5l-0.811,2.8h-6.992v-0.6s-2.221.2-2.917,0.3a4.161,4.161,0,0,1,.3-1.7l-0.95-.1v-10.8l0.231-.5v-1h-0.276v-1l0.37-1.9v-0.8h-0.788v-0.7h-0.716l1.272-12.1h-3.194v-0.4H281.7v-1.7a6.506,6.506,0,0,0-2.592-.4v-1.2h-0.788a1.785,1.785,0,0,0,.139-1.4s0.533-.1.441-1c0,0,.092-2.1-0.278-2.2,0,0,1.2-.2.9-0.7a1.106,1.106,0,0,0-1.112-.3,2.184,2.184,0,0,0,.533-1.4l-0.045-3.8s1.019-.5.949-1a1.141,1.141,0,0,0-1.227.5,5.274,5.274,0,0,0-1.367.4v-1.1a1.579,1.579,0,0,0,.649-1.2,1,1,0,0,0-.972.7s-0.718.1-2.247,2.2a0.7,0.7,0,0,1-.485-0.6,1.071,1.071,0,0,0,.463-0.9l0.3-.3-0.6-.6h-0.486l-1.805-27.8a0.466,0.466,0,0,0,.417-0.6s0.347-2.1-.44-2.5a1.164,1.164,0,0,0-.233-1.9l0.024-.2s0.7,0,.7.5a2.3,2.3,0,0,1,1.111.1,0.739,0.739,0,0,1,.231-0.7s-0.948,0-.717-0.4c0,0-.533-0.3.231-0.3a1.624,1.624,0,0,1,1.852-1.1l0.186-.8h0.231s0.209-1.2-.208-1.2l0.092-.8a3.008,3.008,0,0,0-1.018-.1s0.115-.8-1.066,0l-0.555-1.3,2.291-1.6-2.963-.3-0.711-1.8v-0.1h-0.007v0.1l-0.709,1.8-2.964.3,2.293,1.6-0.555,1.3c-1.182-.8-1.066,0-1.066,0a3.018,3.018,0,0,0-1.019.1l0.093,0.8c-0.416,0-.208,1.2-0.208,1.2h0.232l0.185,0.8a1.625,1.625,0,0,1,1.852,1.1c0.763,0,.231.3,0.231,0.3,0.232,0.4-.717.4-0.717,0.4a0.738,0.738,0,0,1,.23.7,2.3,2.3,0,0,1,1.113-.1c0-.5.693-0.5,0.693-0.5l0.023,0.2a1.164,1.164,0,0,0-.231,1.9c-0.787.4-.44,2.5-0.44,2.5a0.466,0.466,0,0,0,.416.6l-1.8,27.8h-0.485l-0.6.6,0.3,0.3a1.071,1.071,0,0,0,.463.9,0.7,0.7,0,0,1-.486.6c-1.529-2.1-2.245-2.2-2.245-2.2a1,1,0,0,0-.973-0.7,1.575,1.575,0,0,0,.646,1.2v1.1a5.227,5.227,0,0,0-1.365-.4,1.14,1.14,0,0,0-1.226-.5c-0.07.5,0.949,1,.949,1l-0.047,3.8a2.185,2.185,0,0,0,.532,1.4,1.105,1.105,0,0,0-1.11.3c-0.3.5,0.9,0.7,0.9,0.7-0.368.1-.277,2.2-0.277,2.2-0.091.9,0.441,1,.441,1a1.783,1.783,0,0,0,.138,1.4h-0.787v1.2a6.539,6.539,0,0,0-2.6.4v1.7h-0.716v0.4h-3.2l1.275,12.1h-0.718v0.7H257.19v0.8l0.371,1.9v1h-0.279v1l0.232,0.5v10.8l-0.949.1a4.151,4.151,0,0,1,.3,1.7c-0.693-.1-2.916-0.3-2.916-0.3v0.6h-6.992l-0.81-2.8c0.022-.5-0.3-0.5-0.3-0.5a0.893,0.893,0,0,0-1.134-.8c-0.185.4-.74,0.1-0.74,0.1a6.023,6.023,0,0,0-.278-0.7c1.343-.4.878-0.9,0.878-0.9-0.741-1.5-.254-1.2-0.254-1.2,0.672,1,1.5-.3,1.5-0.3,0.185-.7-1.111-1.9-1.111-1.9a0.661,0.661,0,0,1-.857.1c-0.092-.3-0.6-1.3-0.6-1.3-0.324-.6.231-0.4,0.231-0.4,0.673,1,1.158,0,1.158,0a0.305,0.305,0,0,0,.464.1,1.144,1.144,0,0,0,.532.1c-0.046-.8.625,0.3,0.625,0.3,0.023-.6,1.043.1,1.043,0.1a1.075,1.075,0,0,1-.116-0.8c0.347,0.3.533,0.2,0.463-.1a0.569,0.569,0,0,1-.012-0.1,3.9,3.9,0,0,1,.1-0.9,0.733,0.733,0,0,0-.532-0.6c0.022-.4-0.186-0.3-0.186-0.3a0.685,0.685,0,0,1-.531-0.2c-0.071-1.2-.949-0.6-0.949-0.6a1,1,0,0,1-.557,0c-0.788-.6-1.065.2-1.065,0.2-0.115-.2-0.486,0-0.486,0-1.042-.1-0.833-0.5-0.833-0.5a0.637,0.637,0,0,0,.347-0.2c0.578,0.1.578-.6,0.578-0.6,0.347-1.1-.487-0.8-0.487-0.8a0.874,0.874,0,0,0-1.064-.8c-1.251.3-.394,2-0.394,2a0.727,0.727,0,0,1-.114.7c-0.117,0-.927.1-0.927,0.1a1.973,1.973,0,0,0-.88-0.3,1.478,1.478,0,0,0-1.042-1.8,11.658,11.658,0,0,0-1.134-2.5,3.472,3.472,0,0,0,0-1c-0.6-1.2-.718-0.4-0.718-0.4-0.533-.2-0.161.3-0.161,0.3-0.858-.2.323,0.6,0.323,0.6a1.526,1.526,0,0,0,.185.9,6.769,6.769,0,0,0,.858,2.7c-0.557,1.1.161,1.4,0.161,1.4l0.024,0.2a4.551,4.551,0,0,0-.7,1.1c-0.441.5-.833,0.6-1.226,1.1a0.659,0.659,0,0,0,.022.9,0.46,0.46,0,0,1-.068.5c-0.764-.6-0.556.3-0.556,0.3-0.533-.3.024,0.6,0.024,0.6-0.557-.2.114,0.7,0.114,0.7a0.132,0.132,0,0,0-.138.2c0.717,0.5,1.111,3.1,1.111,3.1-0.579.2-.162,0.4-0.162,0.4a4.618,4.618,0,0,0-.162,1.8h-0.8v0.4H234.89l0.322,0.4v2H233.23l0.368,1.4h-5.9l3.5,9.2h-0.645l0.645,2.2v15.6c-2.127-.3-2.739,2.3-2.875,3.1a2.728,2.728,0,0,0-1.737-.5c-2.443.4-1.845,3-1.845,3a1.759,1.759,0,0,1,1.845,2.2h-1.244c-9.5-1-29.535-7.4-29.535-7.4v-1a0.738,0.738,0,0,0-.226-0.7,2.038,2.038,0,0,0,.3-1.5c0.715,0.4.3-.4,0.3-0.4,0.413,0.1.039-.8,0.039-0.8,0.374,0,.186-0.8.186-0.8a0.917,0.917,0,0,0,.264-0.7,0.907,0.907,0,0,0,.113-0.9,1.789,1.789,0,0,1-1.506,0,0.5,0.5,0,0,0-.075-0.8,1.646,1.646,0,0,1,.451-0.7,2.085,2.085,0,0,0-.677-0.4,1.311,1.311,0,0,1,.452-0.8,2.978,2.978,0,0,0-3.39-.2,1.2,1.2,0,0,1,.376.7,1.247,1.247,0,0,0-.564.2l0.376,1.3a1.977,1.977,0,0,0-1.054-.8c-0.678-.1-0.3,1.1-0.3,1.1-0.527,0-.076.7-0.076,0.7-0.791.2-.112,0.9-0.112,0.9-0.79.1-.226,0.8-0.226,0.8-0.415.1-.188,0.4-0.188,0.4,0.791-.1.6,1.1,0.6,1.1-0.94.3-.49,1.5-0.49,1.5v1.3H174.2l-0.865-1H144.937a1.825,1.825,0,0,0,.491.8l-0.3,1.4H135.6v0.8a1.982,1.982,0,0,1,.567,1.2l0.677,0.6v1.9l3.428,2a2.43,2.43,0,0,0,.444,1.5l-6.48,65.6H0V15067H1920v-214.2H1740.2Zm-429.24-254.2c1.52,0.7-1.18,1-1.18,1a1.89,1.89,0,0,1-1.02-.7A3.208,3.208,0,0,1,1310.96,14598.6Zm332.46,107-0.01-.8S1644.72,14704.9,1643.42,14705.6Zm-5.99-.8-0.01.8C1636.12,14704.9,1637.43,14704.8,1637.43,14704.8Zm-866.959,142.8h-0.233l-0.8-2.6Zm-7.584,0h-3.643l0.06-3.8,1.92,0.2Zm-20.787-4.4h1.835l1.447,4.4h-4.726Zm-15.367.6,0.061,3.8h-3.645l1.662-3.6Zm-10.935,3.8h-0.234l1.031-2.6Zm-402.4-65.9a1.11,1.11,0,0,1,1.177-.5,3.408,3.408,0,0,0-.994,1.6,0.716,0.716,0,0,1-.83.3S311.831,14781.8,313.4,14781.7ZM302.75,14745s0.369,0,.235-1a0.287,0.287,0,0,1,.288,0s0.218,0.6-.05.7a0.818,0.818,0,0,0-.153.5,10.3,10.3,0,0,0-.338,1.7h-0.439A11.342,11.342,0,0,0,302.75,14745Zm-2.7.9a1.81,1.81,0,0,0,.373-0.6,4.492,4.492,0,0,0,1.011-.2,2.683,2.683,0,0,0,.135,1.1v0.7h-0.928a0.641,0.641,0,0,0-.741-0.6A0.358,0.358,0,0,1,300.048,14745.9Zm-58.585.3a2.636,2.636,0,0,0,.136-1.1,4.517,4.517,0,0,0,1.013.2,1.766,1.766,0,0,0,.37.6,0.357,0.357,0,0,1,.153.4,0.642,0.642,0,0,0-.743.6h-0.929v-0.7Zm-1.7-2.2a0.286,0.286,0,0,1,.287,0c-0.135,1,.237,1,0.237,1a11.155,11.155,0,0,0,.456,1.9H240.3a10.212,10.212,0,0,0-.337-1.7,0.819,0.819,0,0,0-.152-0.5C239.54,14744.6,239.759,14744,239.759,14744Zm-10.125,37.7c1.567,0.1.645,1.4,0.645,1.4a0.719,0.719,0,0,1-.831-0.3,3.423,3.423,0,0,0-.993-1.6A1.115,1.115,0,0,1,229.634,14781.7Z" transform="translate(0 -14442.5)"/>
</svg>
